<svg width="51" height="24" viewBox="0 0 51 24" fill="none" xmlns="http://www.w3.org/2000/svg">
    <rect width="51" height="24" rx="2" fill="#F0F2F5"/>
    <path d="M11.2127 15L11.7468 13.4602H14.0195L14.5508 15H15.4826L13.3888 9.18182H12.3746L10.2809 15H11.2127ZM12.0025 12.7216L12.8604 10.2386H12.9059L13.7638 12.7216H12.0025ZM19.0063 15C20.779 15 21.8046 13.9006 21.8046 12.0824C21.8046 10.2727 20.779 9.18182 19.066 9.18182H17.1228V15H19.0063ZM18.0006 14.233V9.94886H19.012C20.2847 9.94886 20.941 10.7102 20.941 12.0824C20.941 13.4602 20.2847 14.233 18.958 14.233H18.0006ZM23.6962 9.18182V15H24.5315V10.7869H24.5854L26.3013 14.9915H26.9945L28.7104 10.7898H28.7644V15H29.5996V9.18182H28.5343L26.682 13.7045H26.6138L24.7616 9.18182H23.6962ZM32.7022 9.18182H31.8244V15H32.7022V9.18182ZM39.4766 9.18182H38.6073V13.4545H38.5533L35.5931 9.18182H34.7806V15H35.6585V10.733H35.7124L38.6698 15H39.4766V9.18182Z" fill="#71757A"/>
    </svg>
    