<svg width="468" height="349" viewBox="0 0 468 349" fill="none" xmlns="http://www.w3.org/2000/svg">
<path d="M468 306.446H0V306.68H468V306.446Z" fill="#EBEBEB"/>
<path d="M295.467 312.82H271.636V313.054H295.467V312.82Z" fill="#EBEBEB"/>
<path d="M426.292 317.884H369.823V318.118H426.292V317.884Z" fill="#EBEBEB"/>
<path d="M266.563 312.933H208.222V313.167H266.563V312.933Z" fill="#EBEBEB"/>
<path d="M170.389 319.934H158.184V320.168H170.389V319.934Z" fill="#EBEBEB"/>
<path d="M237.828 319.934H182.249V320.168H237.828V319.934Z" fill="#EBEBEB"/>
<path d="M85.0917 315.984H49.1025V316.218H85.0917V315.984Z" fill="#EBEBEB"/>
<path d="M221.832 264.701H41.0998C39.684 264.698 38.327 264.134 37.3267 263.132C36.3264 262.13 35.7646 260.772 35.7646 259.356V5.29776C35.777 3.89004 36.3442 2.54403 37.3432 1.55209C38.3421 0.560157 39.6921 0.0024115 41.0998 0H221.832C223.25 0 224.609 0.563086 225.611 1.56539C226.614 2.56768 227.177 3.92709 227.177 5.34456V259.356C227.177 260.774 226.614 262.133 225.611 263.135C224.609 264.138 223.25 264.701 221.832 264.701ZM41.0998 0.187201C39.7461 0.18968 38.4486 0.729205 37.4922 1.68735C36.5358 2.6455 35.9986 3.94397 35.9986 5.29776V259.356C35.9986 260.71 36.5358 262.008 37.4922 262.967C38.4486 263.925 39.7461 264.464 41.0998 264.467H221.832C223.187 264.464 224.485 263.925 225.443 262.967C226.401 262.009 226.94 260.711 226.943 259.356V5.29776C226.94 3.94311 226.401 2.64466 225.443 1.68678C224.485 0.728901 223.187 0.189675 221.832 0.187201H41.0998Z" fill="#EBEBEB"/>
<path d="M424.298 264.701H243.556C242.14 264.698 240.782 264.134 239.78 263.133C238.778 262.131 238.214 260.773 238.212 259.356V5.29776C238.227 3.88919 238.796 2.54318 239.796 1.55151C240.797 0.55983 242.148 0.0023852 243.556 0H424.298C425.704 0.00487141 427.052 0.563705 428.049 1.55538C429.046 2.54705 429.612 3.89166 429.624 5.29776V259.356C429.624 260.77 429.063 262.127 428.065 263.129C427.067 264.131 425.712 264.696 424.298 264.701ZM243.556 0.187201C242.202 0.189675 240.903 0.728901 239.945 1.68678C238.988 2.64466 238.448 3.94311 238.446 5.29776V259.356C238.448 260.711 238.988 262.009 239.945 262.967C240.903 263.925 242.202 264.464 243.556 264.467H424.298C425.653 264.464 426.951 263.925 427.909 262.967C428.867 262.009 429.406 260.711 429.409 259.356V5.29776C429.406 3.94311 428.867 2.64466 427.909 1.68678C426.951 0.728901 425.653 0.189675 424.298 0.187201H243.556Z" fill="#EBEBEB"/>
<path d="M183.418 225.267H121.268L117.496 181.743H179.646L183.418 225.267Z" fill="#E6E6E6"/>
<path d="M186.638 225.267H124.488L120.716 181.743H182.866L186.638 225.267Z" fill="#F0F0F0"/>
<path d="M132.987 215.916L130.909 191.084H174.368L176.446 215.916H132.987Z" fill="white"/>
<path d="M197.394 225.267H190.102V306.446H197.394V225.267Z" fill="#E6E6E6"/>
<path d="M199.696 225.267H194.632V306.446H199.696V225.267Z" fill="#F0F0F0"/>
<path d="M129.112 234.225H199.696V225.267H129.112V234.225Z" fill="#F0F0F0"/>
<path d="M131.602 234.225H124.311V306.446H131.602V234.225Z" fill="#E6E6E6"/>
<path d="M133.904 234.225H128.84V306.446H133.904V234.225Z" fill="#F0F0F0"/>
<path d="M79.7001 234.225H72.4087V306.446H79.7001V234.225Z" fill="#E6E6E6"/>
<path d="M82.0032 234.225H76.9395V306.446H82.0032V234.225Z" fill="#F0F0F0"/>
<path d="M151.248 234.225H143.956V306.446H151.248V234.225Z" fill="#E6E6E6"/>
<path d="M153.541 234.225H148.478V306.446H153.541V234.225Z" fill="#F0F0F0"/>
<path d="M129.112 225.267H72.4087V234.225H129.112V225.267Z" fill="#E6E6E6"/>
<path d="M340.554 22.8478H121.221V144.958H340.554V22.8478Z" fill="#E0E0E0"/>
<path d="M352.601 22.8478H122.326V144.958H352.601V22.8478Z" fill="#F5F5F5"/>
<path d="M348.837 141.196V26.6105L126.088 26.6105V141.196H348.837Z" fill="white"/>
<path d="M216.281 141.196L258.336 26.6105H188.931L146.877 141.196H216.281Z" fill="#F5F5F5"/>
<path d="M283.084 141.196L325.138 26.6105H272.778L230.724 141.196H283.084Z" fill="#F5F5F5"/>
<path d="M410.071 189.821H391.426V306.446H410.071V189.821Z" fill="#E6E6E6"/>
<path d="M405.166 306.446H410.071V297.47H400.028L405.166 306.446Z" fill="#FAFAFA"/>
<path d="M238.165 189.821H219.52V306.446H238.165V189.821Z" fill="#E6E6E6"/>
<path d="M410.07 189.821H233.887V304.022H410.07V189.821Z" fill="#FAFAFA"/>
<path d="M406.739 226.671H237.229V194.417H406.739V226.671ZM238.165 225.735H405.803V195.353H238.165V225.735Z" fill="#E6E6E6"/>
<path d="M376.899 210.076H270.354C265.412 210.076 260.648 206.088 257.25 199.125L256.932 198.46H390.312L389.994 199.125C386.568 206.088 381.888 210.076 376.899 210.076ZM258.467 199.368C261.631 205.574 265.955 209.112 270.354 209.112H376.899C381.317 209.112 385.623 205.574 388.786 199.368H258.467Z" fill="#E6E6E6"/>
<path d="M238.792 306.446H233.887V297.47H243.93L238.792 306.446Z" fill="#FAFAFA"/>
<path d="M406.739 263.016H237.229V230.799H406.739V263.016ZM238.165 262.08H405.803V231.735H238.165V262.08Z" fill="#E6E6E6"/>
<path d="M376.899 246.458H270.354C265.412 246.458 260.648 242.461 257.25 235.507L256.932 234.833H390.312L389.994 235.507C386.568 242.424 381.888 246.458 376.899 246.458ZM258.467 235.769C261.631 241.975 265.955 245.522 270.354 245.522H376.899C381.317 245.522 385.623 241.975 388.786 235.769H258.467Z" fill="#E6E6E6"/>
<path d="M406.739 299.426H237.229V267.172H406.739V299.426ZM238.165 298.49H405.803V268.108H238.165V298.49Z" fill="#E6E6E6"/>
<path d="M376.899 282.831H270.354C265.412 282.831 260.648 278.844 257.25 271.889L256.932 271.215H390.312L389.994 271.889C386.568 278.844 381.888 282.831 376.899 282.831ZM258.467 272.151C261.631 278.357 265.955 281.895 270.354 281.895H376.899C381.317 281.895 385.623 278.357 388.786 272.151H258.467Z" fill="#E6E6E6"/>
<path d="M113.237 205.246V207.511H111.796L110.597 225.267H92.9633L91.7745 207.511H90.3237V205.246H113.237Z" fill="#E6E6E6"/>
<path d="M107.434 161.189C105.993 150.612 91.7185 147.598 73.6069 147.205C56.3752 146.84 50.8528 140.746 50.8528 140.746C50.8528 140.746 50.9089 165.429 75.741 174.377C99.3189 182.857 108.885 171.784 107.434 161.189Z" fill="#E6E6E6"/>
<path d="M98.6361 185.16C98.9357 180.817 105.881 172.823 122.588 176.455C134.663 179.085 139.156 172.823 139.156 172.823C139.156 172.823 138.032 190.495 119.874 195.802C102.624 200.847 98.1026 192.816 98.6361 185.16Z" fill="#E6E6E6"/>
<path d="M102.445 211.91C102.539 211.911 102.632 211.892 102.718 211.853C102.804 211.814 102.88 211.757 102.941 211.686C104.149 210.254 103.156 206.828 101.79 202.082C100.03 195.998 97.8399 188.417 99.6932 182.922C100.72 180.02 101.921 177.182 103.287 174.424C105.908 168.882 108.173 164.128 106.283 159.092C106.253 159.012 106.208 158.938 106.15 158.876C106.092 158.813 106.022 158.763 105.944 158.727C105.867 158.692 105.783 158.672 105.697 158.67C105.612 158.667 105.527 158.681 105.447 158.711C105.367 158.742 105.294 158.787 105.232 158.846C105.17 158.905 105.121 158.975 105.086 159.053C105.052 159.131 105.033 159.215 105.031 159.301C105.029 159.386 105.044 159.471 105.075 159.551C106.769 164.034 104.72 168.377 102.117 173.881C100.733 176.684 99.5144 179.565 98.4671 182.511C96.4921 188.389 98.7385 196.186 100.545 202.438C101.612 206.182 102.716 209.926 101.958 210.862C101.898 210.927 101.852 211.003 101.823 211.087C101.794 211.17 101.783 211.258 101.79 211.347C101.797 211.435 101.822 211.52 101.864 211.598C101.906 211.676 101.964 211.744 102.033 211.798C102.153 211.883 102.299 211.923 102.445 211.91Z" fill="#E6E6E6"/>
<path d="M234 348.716C334.229 348.716 415.481 343.972 415.481 338.121C415.481 332.269 334.229 327.525 234 327.525C133.77 327.525 52.5186 332.269 52.5186 338.121C52.5186 343.972 133.77 348.716 234 348.716Z" fill="#F5F5F5"/>
<path d="M164.82 286.463H297.732L305.005 72.7084H172.093L164.82 286.463Z" fill="#3F8CFF"/>
<path d="M158.184 279.826H291.096L298.378 66.0721H165.466L158.184 279.826Z" fill="#3F8CFF"/>
<path opacity="0.3" d="M158.184 279.826H291.096L298.378 66.0721H165.466L158.184 279.826Z" fill="white"/>
<path d="M202.716 154.032C188.485 139.555 189.09 115.883 204.068 101.159C219.046 86.4354 242.725 86.2349 256.956 100.712C271.187 115.188 270.582 138.86 255.604 153.584C240.626 168.308 216.947 168.508 202.716 154.032Z" fill="#3F8CFF"/>
<path d="M198.974 127.38C198.783 132.473 199.894 137.531 202.203 142.075C204.696 146.972 208.503 151.078 213.199 153.931C217.894 156.785 223.292 158.274 228.786 158.231C234.409 158.2 239.926 156.692 244.782 153.856C249.638 151.021 253.664 146.958 256.454 142.075C259.056 137.601 260.509 132.553 260.685 127.38C260.857 123.369 260.213 119.366 258.79 115.612C257.368 111.858 255.197 108.432 252.409 105.543C249.622 102.654 246.276 100.362 242.576 98.8063C238.875 97.2504 234.897 96.463 230.883 96.4921C222.613 96.5506 214.683 99.7926 208.741 105.545C202.799 111.297 199.301 119.117 198.974 127.38Z" fill="white"/>
<path opacity="0.6" d="M202.222 142.075C204.715 146.972 208.522 151.078 213.217 153.931C217.913 156.785 223.31 158.274 228.805 158.231C234.428 158.2 239.945 156.692 244.801 153.856C249.657 151.021 253.683 146.958 256.473 142.075C248.557 136.678 239.19 133.81 229.61 133.848C219.875 133.869 210.357 136.728 202.222 142.075Z" fill="#3F8CFF"/>
<path opacity="0.6" d="M220.22 126.61C214.987 121.287 215.209 112.583 220.717 107.169C226.224 101.755 234.931 101.681 240.164 107.004C245.397 112.327 245.174 121.032 239.667 126.446C234.159 131.86 225.452 131.934 220.22 126.61Z" fill="#3F8CFF"/>
<path d="M184.888 202.419H269.67L270.241 185.571H185.459L184.888 202.419Z" fill="white"/>
<path d="M183.858 232.53H268.65L269.221 215.682H184.428L183.858 232.53Z" fill="white"/>
<path d="M216.581 218.004L237.014 220.812C237.208 220.834 237.397 220.896 237.566 220.995C237.736 221.093 237.884 221.226 238 221.384C238.116 221.542 238.198 221.723 238.241 221.914C238.284 222.106 238.286 222.304 238.249 222.496L235.563 236.19C235.475 236.592 235.24 236.946 234.904 237.184C234.568 237.421 234.155 237.524 233.747 237.472L213.314 234.664C213.12 234.64 212.932 234.576 212.763 234.476C212.595 234.376 212.448 234.242 212.333 234.083C212.219 233.925 212.137 233.744 212.095 233.552C212.053 233.361 212.05 233.163 212.088 232.97L214.765 219.277C214.853 218.875 215.088 218.522 215.425 218.286C215.761 218.05 216.173 217.95 216.581 218.004ZM222.449 231.875L226.193 232.371L226.558 227.953C226.944 227.787 227.284 227.529 227.55 227.204C227.815 226.878 227.999 226.493 228.084 226.081C228.153 225.763 228.154 225.433 228.087 225.114C228.021 224.794 227.888 224.493 227.697 224.228C227.507 223.963 227.263 223.742 226.981 223.577C226.699 223.413 226.386 223.309 226.062 223.273C225.398 223.188 224.725 223.355 224.177 223.741C223.629 224.128 223.247 224.706 223.105 225.361C223.023 225.756 223.048 226.166 223.176 226.549C223.305 226.932 223.532 227.274 223.835 227.542L222.449 231.875Z" fill="#3F8CFF"/>
<path d="M218.602 217.264C218.963 217.31 219.329 217.22 219.627 217.01C219.924 216.8 220.133 216.487 220.212 216.132L220.474 214.793C220.848 212.967 221.872 211.338 223.356 210.209C224.839 209.079 226.682 208.527 228.542 208.653C229.481 208.707 230.397 208.961 231.229 209.4C232.06 209.839 232.787 210.452 233.361 211.197C233.935 211.942 234.341 212.802 234.553 213.718C234.765 214.634 234.777 215.585 234.589 216.506L234.289 218.05C234.255 218.222 234.256 218.398 234.293 218.569C234.33 218.739 234.403 218.9 234.506 219.041C234.609 219.182 234.741 219.3 234.892 219.387C235.043 219.475 235.211 219.529 235.385 219.548C235.747 219.599 236.114 219.51 236.413 219.299C236.712 219.089 236.92 218.773 236.995 218.416L237.247 217.114C237.504 215.899 237.513 214.643 237.272 213.424C237.032 212.205 236.547 211.046 235.848 210.019C235.148 208.992 234.248 208.117 233.202 207.446C232.156 206.775 230.985 206.323 229.759 206.116C227.102 205.67 224.375 206.264 222.144 207.775C219.913 209.286 218.35 211.598 217.778 214.232L217.479 215.767C217.444 215.94 217.446 216.119 217.485 216.291C217.524 216.463 217.599 216.626 217.705 216.767C217.811 216.908 217.946 217.026 218.1 217.112C218.255 217.197 218.426 217.249 218.602 217.264Z" fill="#3F8CFF"/>
<path d="M197.851 256.127H253.047L253.412 245.157H198.226L197.851 256.127Z" fill="#3F8CFF"/>
<path d="M224.48 193.995C224.464 194.395 224.529 194.795 224.671 195.169C224.814 195.543 225.031 195.885 225.309 196.173C225.587 196.461 225.921 196.689 226.29 196.844C226.66 196.999 227.056 197.078 227.457 197.075C228.282 197.068 229.074 196.745 229.667 196.172C230.261 195.599 230.613 194.82 230.649 193.995C230.665 193.595 230.6 193.196 230.458 192.822C230.315 192.447 230.098 192.106 229.82 191.818C229.542 191.53 229.208 191.302 228.839 191.146C228.469 190.991 228.073 190.913 227.672 190.916C226.846 190.92 226.054 191.242 225.459 191.816C224.865 192.389 224.514 193.17 224.48 193.995Z" fill="#263238"/>
<path d="M237.791 193.995C237.773 194.396 237.837 194.796 237.979 195.17C238.121 195.545 238.338 195.887 238.616 196.176C238.895 196.464 239.229 196.692 239.599 196.847C239.969 197.001 240.366 197.079 240.767 197.075C241.592 197.068 242.382 196.745 242.974 196.171C243.567 195.598 243.916 194.819 243.95 193.995C243.966 193.595 243.901 193.196 243.759 192.822C243.616 192.447 243.399 192.106 243.121 191.818C242.843 191.53 242.509 191.302 242.14 191.146C241.77 190.991 241.374 190.913 240.973 190.916C240.148 190.92 239.356 191.243 238.764 191.816C238.171 192.39 237.822 193.171 237.791 193.995Z" fill="#263238"/>
<path d="M251.017 193.995C251 194.395 251.065 194.795 251.208 195.169C251.35 195.543 251.567 195.885 251.845 196.173C252.124 196.461 252.458 196.689 252.827 196.844C253.196 196.999 253.593 197.078 253.993 197.075C254.818 197.07 255.61 196.748 256.203 196.174C256.796 195.6 257.144 194.82 257.176 193.995C257.192 193.595 257.127 193.196 256.985 192.822C256.842 192.447 256.625 192.106 256.347 191.818C256.069 191.53 255.735 191.302 255.366 191.146C254.997 190.991 254.6 190.913 254.199 190.916C253.374 190.92 252.583 191.243 251.99 191.816C251.397 192.39 251.048 193.171 251.017 193.995Z" fill="#263238"/>
<path d="M211.218 193.995C211.201 194.395 211.266 194.795 211.409 195.169C211.551 195.543 211.768 195.885 212.046 196.173C212.325 196.461 212.658 196.689 213.028 196.844C213.397 196.999 213.794 197.078 214.194 197.075C215.019 197.07 215.811 196.748 216.404 196.174C216.997 195.6 217.345 194.82 217.377 193.995C217.391 193.596 217.323 193.199 217.179 192.827C217.035 192.454 216.817 192.115 216.537 191.83C216.258 191.545 215.924 191.319 215.555 191.167C215.186 191.014 214.79 190.939 214.391 190.944C213.572 190.95 212.787 191.27 212.196 191.838C211.606 192.405 211.256 193.177 211.218 193.995Z" fill="#263238"/>
<path d="M197.955 193.995C197.937 194.396 198.001 194.796 198.143 195.17C198.285 195.545 198.501 195.887 198.78 196.176C199.059 196.464 199.393 196.692 199.763 196.847C200.133 197.001 200.53 197.079 200.931 197.075C201.755 197.068 202.546 196.745 203.138 196.171C203.731 195.598 204.08 194.819 204.113 193.995C204.13 193.595 204.065 193.196 203.923 192.822C203.78 192.447 203.563 192.106 203.285 191.818C203.007 191.53 202.673 191.302 202.304 191.146C201.934 190.991 201.537 190.913 201.137 190.916C200.312 190.92 199.52 191.243 198.927 191.816C198.334 192.39 197.986 193.171 197.955 193.995Z" fill="#263238"/>
</svg>
