<svg width="51" height="24" viewBox="0 0 51 24" fill="none" xmlns="http://www.w3.org/2000/svg">
    <rect width="51" height="24" rx="2" fill="#F0F2F5"/>
    <path d="M10.6891 15C12.4619 15 13.4874 13.9006 13.4874 12.0824C13.4874 10.2727 12.4619 9.18182 10.7488 9.18182H8.80561V15H10.6891ZM9.68345 14.233V9.94886H10.6948C11.9675 9.94886 12.6238 10.7102 12.6238 12.0824C12.6238 13.4602 11.9675 14.233 10.6408 14.233H9.68345ZM15.379 15H19.0609V14.2443H16.2569V12.4631H18.8364V11.7102H16.2569V9.9375H19.0268V9.18182H15.379V15ZM24.1727 10.7102H25.0192C24.9937 9.77841 24.1698 9.10227 22.988 9.10227C21.8204 9.10227 20.9255 9.76989 20.9255 10.7727C20.9255 11.5824 21.505 12.0568 22.4397 12.3097L23.1272 12.4972C23.7494 12.6619 24.2295 12.8665 24.2295 13.3835C24.2295 13.9517 23.6869 14.3267 22.9397 14.3267C22.2636 14.3267 21.7011 14.0256 21.6499 13.392H20.7692C20.8261 14.446 21.6414 15.0966 22.9454 15.0966C24.3119 15.0966 25.0988 14.3778 25.0988 13.392C25.0988 12.3438 24.1641 11.9375 23.4255 11.7557L22.8573 11.608C22.4028 11.4915 21.7977 11.2784 21.8005 10.7216C21.8005 10.2273 22.2522 9.8608 22.9681 9.8608C23.6357 9.8608 24.1102 10.1733 24.1727 10.7102ZM27.8256 9.18182H26.9478V15H27.8256V9.18182ZM33.8415 11.0199H34.7421C34.5461 9.88636 33.5773 9.10227 32.3217 9.10227C30.816 9.10227 29.7165 10.2358 29.7165 12.0938C29.7165 13.9347 30.7847 15.0795 32.3614 15.0795C33.7734 15.0795 34.7819 14.1534 34.7819 12.6847V12.0227H32.495V12.7472H33.9325C33.9126 13.6847 33.2933 14.2784 32.3614 14.2784C31.3359 14.2784 30.5887 13.5028 30.5887 12.0881C30.5887 10.679 31.3415 9.90341 32.3273 9.90341C33.1001 9.90341 33.6228 10.3295 33.8415 11.0199ZM41.3923 9.18182H40.5229V13.4545H40.469L37.5087 9.18182H36.6962V15H37.5741V10.733H37.6281L40.5854 15H41.3923V9.18182Z" fill="#71757A"/>
    </svg>
    