<svg width="144" height="33" viewBox="0 0 144 33" fill="none" xmlns="http://www.w3.org/2000/svg">
    <path fill-rule="evenodd" clip-rule="evenodd" d="M31.9083 27.9534L27.8876 21C26.1785 23.7507 23.5522 25.8681 20.4313 26.9134L23.8468 32.6508C24.1321 33.1322 24.8534 33.0655 25.044 32.5375L26.6344 28.1668L31.2191 28.9441C31.7897 29.0335 32.1883 28.4334 31.9083 27.9534ZM0.0916853 27.9779L4.11242 21.0244C5.82151 23.7751 8.44778 25.8925 11.5687 26.9378L8.15316 32.6753C7.86787 33.1566 7.14664 33.0899 6.956 32.5619L5.36557 28.1912L0.780917 28.9685C0.210334 29.0579 -0.188273 28.4579 0.0916853 27.9779Z" fill="white"/>
    <path d="M16 3C9.93495 3 5 7.93495 5 14C5 20.0651 9.93495 25 16 25C22.0651 25 27 20.0651 27 14C27 7.93495 22.0651 3 16 3Z" fill="white"/>
    <path d="M16 1C9.01703 1 3.33521 6.68275 3.33521 13.6669C3.33521 20.651 9.01703 26.3337 16 26.3337C22.983 26.3337 28.6648 20.651 28.6648 13.6669C28.6648 6.68275 22.983 1 16 1Z" fill="white"/>
    <rect x="16.071" y="20.071" width="9.24261" height="9.24261" transform="rotate(-135 16.071 20.071)" fill="#193866"/>
    <path d="M52.3517 9.36222C51.9043 6.13068 49.4185 4.25568 46.1941 4.25568C42.3944 4.25568 39.5321 7.02557 39.5321 11.7273C39.5321 16.4219 42.3588 19.1989 46.1941 19.1989C49.6529 19.1989 51.9469 16.9616 52.3517 14.1847L49.6955 14.1705C49.3617 15.875 47.9696 16.8338 46.2296 16.8338C43.8716 16.8338 42.1813 15.0653 42.1813 11.7273C42.1813 8.44602 43.8574 6.62074 46.2367 6.62074C48.0051 6.62074 49.3901 7.62216 49.6955 9.36222H52.3517ZM58.4096 19.2131C61.6056 19.2131 63.6369 16.9616 63.6369 13.5881C63.6369 10.2074 61.6056 7.94886 58.4096 7.94886C55.2136 7.94886 53.1824 10.2074 53.1824 13.5881C53.1824 16.9616 55.2136 19.2131 58.4096 19.2131ZM58.4238 17.1534C56.6554 17.1534 55.7889 15.5767 55.7889 13.581C55.7889 11.5852 56.6554 9.98722 58.4238 9.98722C60.1639 9.98722 61.0304 11.5852 61.0304 13.581C61.0304 15.5767 60.1639 17.1534 58.4238 17.1534ZM68.8674 19.1918C70.7424 19.1918 71.5875 18.0767 71.9924 17.2812H72.1486V19H74.677V4.45455H72.0989V9.89489H71.9924C71.6017 9.10653 70.7992 7.94886 68.8745 7.94886C66.3532 7.94886 64.3716 9.9233 64.3716 13.5597C64.3716 17.1534 66.2963 19.1918 68.8674 19.1918ZM69.5847 17.0824C67.8873 17.0824 66.9924 15.5909 66.9924 13.5455C66.9924 11.5142 67.873 10.0582 69.5847 10.0582C71.2395 10.0582 72.1486 11.429 72.1486 13.5455C72.1486 15.6619 71.2253 17.0824 69.5847 17.0824ZM81.2463 19.2131C83.7889 19.2131 85.536 17.9702 85.9906 16.0739L83.59 15.804C83.242 16.7273 82.3897 17.2102 81.2818 17.2102C79.6199 17.2102 78.519 16.1165 78.4977 14.2486H86.0971V13.4602C86.0971 9.6321 83.796 7.94886 81.1113 7.94886C77.9863 7.94886 75.948 10.2429 75.948 13.6094C75.948 17.0327 77.9579 19.2131 81.2463 19.2131ZM78.5048 12.5156C78.5829 11.1236 79.6127 9.9517 81.1468 9.9517C82.6241 9.9517 83.6184 11.0312 83.6326 12.5156H78.5048ZM87.3858 19H93.2736C96.6046 19 98.2381 17.3026 98.2381 15.0369C98.2381 12.8352 96.6756 11.5426 95.1273 11.4645V11.3224C96.5478 10.9886 97.6699 9.99432 97.6699 8.22585C97.6699 6.05966 96.1074 4.45455 92.954 4.45455H87.3858V19ZM90.0208 16.7983V12.5369H92.9256C94.552 12.5369 95.5605 13.5312 95.5605 14.831C95.5605 15.9886 94.7651 16.7983 92.8546 16.7983H90.0208ZM90.0208 10.6406V6.62784H92.6841C94.2324 6.62784 95.035 7.4446 95.035 8.56676C95.035 9.84517 93.998 10.6406 92.6273 10.6406H90.0208ZM102.556 19.2202C104.268 19.2202 105.29 18.4176 105.759 17.5014H105.844V19H108.316V11.6989C108.316 8.81534 105.965 7.94886 103.884 7.94886C101.59 7.94886 99.8287 8.97159 99.2605 10.9602L101.661 11.3011C101.917 10.5554 102.641 9.91619 103.898 9.91619C105.091 9.91619 105.745 10.527 105.745 11.5994V11.642C105.745 12.3807 104.971 12.4162 103.046 12.6222C100.93 12.8494 98.9054 13.4815 98.9054 15.9389C98.9054 18.0838 100.475 19.2202 102.556 19.2202ZM103.224 17.331C102.151 17.331 101.384 16.8409 101.384 15.8963C101.384 14.9091 102.243 14.4972 103.394 14.3338C104.069 14.2415 105.418 14.071 105.752 13.8011V15.0866C105.752 16.3011 104.772 17.331 103.224 17.331ZM113.949 19.1918C115.824 19.1918 116.67 18.0767 117.074 17.2812H117.231V19H119.759V4.45455H117.181V9.89489H117.074C116.684 9.10653 115.881 7.94886 113.956 7.94886C111.435 7.94886 109.454 9.9233 109.454 13.5597C109.454 17.1534 111.378 19.1918 113.949 19.1918ZM114.667 17.0824C112.969 17.0824 112.074 15.5909 112.074 13.5455C112.074 11.5142 112.955 10.0582 114.667 10.0582C116.322 10.0582 117.231 11.429 117.231 13.5455C117.231 15.6619 116.307 17.0824 114.667 17.0824ZM126.243 23.2756C129.191 23.2756 131.364 21.9261 131.364 19.1776V8.09091H128.828V9.89489H128.686C128.296 9.10653 127.479 7.94886 125.554 7.94886C123.033 7.94886 121.051 9.9233 121.051 13.5099C121.051 17.0682 123.033 18.8438 125.547 18.8438C127.415 18.8438 128.289 17.8423 128.686 17.0398H128.814V19.1065C128.814 20.669 127.749 21.3295 126.286 21.3295C124.737 21.3295 124.056 20.598 123.743 20.0014L121.428 20.5625C121.896 22.0469 123.466 23.2756 126.243 23.2756ZM126.264 16.8267C124.567 16.8267 123.672 15.5057 123.672 13.4957C123.672 11.5142 124.553 10.0582 126.264 10.0582C127.919 10.0582 128.828 11.429 128.828 13.4957C128.828 15.5767 127.905 16.8267 126.264 16.8267ZM137.828 19.2131C140.371 19.2131 142.118 17.9702 142.573 16.0739L140.172 15.804C139.824 16.7273 138.972 17.2102 137.864 17.2102C136.202 17.2102 135.101 16.1165 135.08 14.2486H142.679V13.4602C142.679 9.6321 140.378 7.94886 137.693 7.94886C134.568 7.94886 132.53 10.2429 132.53 13.6094C132.53 17.0327 134.54 19.2131 137.828 19.2131ZM135.087 12.5156C135.165 11.1236 136.195 9.9517 137.729 9.9517C139.206 9.9517 140.2 11.0312 140.215 12.5156H135.087Z" fill="white"/>
    </svg>
    