<svg width="32" height="32" viewBox="0 0 32 32" fill="none" xmlns="http://www.w3.org/2000/svg">
    <rect width="32" height="32" rx="16" fill="#3F8CFF"/>
    <path d="M10.5589 20.1753C10.5109 20.1169 10.4647 20.0586 10.4208 20.0026C10.4035 19.9805 10.3865 19.9588 10.3699 19.9375C10.3036 19.8526 10.2418 19.7736 10.1774 19.6961C9.87741 19.3348 9.65765 19.1761 9.35158 19.2053C9.3439 19.1999 9.33621 19.1945 9.32851 19.1892C9.34063 19.1814 9.35394 19.1716 9.36785 19.1593C9.40532 19.1264 9.44609 19.0763 9.47273 19.0076C9.49958 18.9382 9.50421 18.8701 9.49686 18.8129C9.49039 18.7627 9.47543 18.7252 9.46386 18.7022L10.6923 20.1184M10.5589 20.1753L10.2326 20.3151L10.559 20.1754M10.5589 20.1753C10.5589 20.1754 10.559 20.1754 10.559 20.1754M10.5589 20.1753L10.6923 20.1182L10.6923 20.1184M10.559 20.1754C10.602 20.2277 10.6465 20.2801 10.6923 20.331C10.7617 20.408 10.8399 20.4884 10.9281 20.5645C10.8272 20.4173 10.754 20.2623 10.6923 20.1184M10.559 20.1754L10.6923 20.1184M13.302 21.6507L13.2187 21.1576L13.2188 21.1576C13.2188 21.1576 13.2187 21.1576 13.302 21.6507ZM13.302 21.6507L12.802 21.6549L12.802 21.6549L12.802 21.6551L12.802 21.6558L12.802 21.6585L12.8021 21.6694L12.8024 21.7029C13.11 21.6831 13.302 21.6507 13.302 21.6507ZM13.302 21.6507C13.302 21.6507 13.3038 21.8664 13.3059 22.1555C13.3283 22.1525 13.3463 22.1498 13.3595 22.1478L13.3769 22.145L13.3822 22.1442L13.384 22.1439L13.3847 22.1438L13.385 22.1437L13.3851 22.1437C13.3852 22.1437 13.3852 22.1437 13.302 21.6507ZM14.615 20.4699C14.3636 20.0378 14.3633 20.0379 14.363 20.0381L14.3624 20.0384L14.3612 20.0392L14.3587 20.0406L14.3532 20.0439L14.3408 20.0517C14.3319 20.0574 14.3217 20.0643 14.3104 20.0723C14.2879 20.0884 14.2608 20.1094 14.231 20.1359C14.1713 20.1889 14.1003 20.2641 14.0324 20.366C13.9193 20.5357 13.8245 20.7646 13.793 21.0607L9.93983 14.2687C9.93984 13.6434 10.0381 13.2481 10.1823 12.9367C10.33 12.6174 10.5363 12.3586 10.827 11.9941L10.8431 11.9738L11.0035 11.7725L10.933 11.525C10.7366 10.8365 10.7734 10.2647 10.855 9.87064C10.8815 9.74286 10.9127 9.63366 10.9423 9.54532C11.0089 9.55381 11.0891 9.56767 11.1827 9.5899C11.5655 9.6808 12.1817 9.91382 13.0192 10.5038L13.2459 10.6635L13.5014 10.5558C13.8843 10.3943 14.6768 10.2844 15.5763 10.2691C16.4634 10.2541 17.3445 10.3328 17.8774 10.4861L18.0968 10.5493L18.2882 10.4248C18.6373 10.1978 19.1334 9.9223 19.5992 9.72911C19.8326 9.63233 20.0442 9.56217 20.2174 9.52622C20.259 9.51759 20.2963 9.51137 20.3295 9.50716C20.4309 9.78851 20.5387 10.3558 20.3562 11.36L20.324 11.5372L20.4121 11.6942C20.4575 11.7751 20.5163 11.8502 20.5615 11.9062C20.58 11.929 20.6123 11.968 20.6442 12.0066C20.6721 12.0403 20.6997 12.0736 20.7178 12.0957C20.8254 12.228 20.9444 12.3844 21.0575 12.5829C21.2794 12.9721 21.4974 13.5562 21.5 14.4557C21.4852 15.1559 21.4109 15.7276 21.282 16.1966L21.1973 16.5047L21.0771 16.7644C20.5579 17.8873 19.4981 18.3771 17.4118 18.5879L15.9485 18.7358L17.1987 19.5104C17.4665 19.6763 17.6027 19.8348 17.6921 20.0776C17.7944 20.3559 17.8456 20.7739 17.8456 21.4883C17.8456 21.7408 17.845 21.956 17.8439 22.1409L17.8353 21.5618C17.8358 21.5522 17.8362 21.5394 17.8367 21.5239C17.8377 21.4905 17.8386 21.4439 17.8382 21.3883C17.8376 21.2791 17.8322 21.1268 17.8115 20.969C17.7919 20.8204 17.7537 20.6239 17.6659 20.4508C17.578 20.2776 17.3742 20.0146 17.0034 20.0146H16.5034V20.5146V23.6747C16.5034 23.6953 16.5037 23.7156 16.5043 23.7356C16.495 23.6846 16.4869 23.6286 16.4802 23.5674C16.4503 23.294 16.4554 22.9965 16.4608 22.6863C16.4617 22.6346 16.4626 22.5826 16.4633 22.5303C16.4683 22.189 16.4667 21.6499 16.464 21.1999C16.4626 20.974 16.4609 20.7692 16.4596 20.6208L16.4579 20.445L16.4574 20.3971L16.4573 20.3846L16.4572 20.3813L16.4572 20.3805L16.4572 20.3803L16.4572 20.3803L16.1729 20.3833L16.1729 20.3833L16.4572 20.3802L16.4517 19.8758L15.9473 19.8858L15.663 19.8914L15.1548 19.9015L15.1732 20.4095L15.1732 20.4095L15.1732 20.4096L15.1733 20.4099L15.1733 20.4115L15.1735 20.418L15.1744 20.4442L15.1776 20.5452C15.1803 20.6328 15.1837 20.7589 15.1871 20.9122C15.1938 21.219 15.1999 21.6332 15.1979 22.0645C15.1958 22.4972 15.1855 22.9403 15.16 23.3071C15.1473 23.4909 15.1312 23.6485 15.1119 23.7726C15.1023 23.8345 15.0925 23.8835 15.0833 23.9205C15.0758 23.9507 15.0704 23.966 15.0687 23.9706C15.0699 23.9566 15.071 23.9427 15.0721 23.929C15.0834 23.7874 15.092 23.6157 15.0987 23.4284C15.112 23.0531 15.1182 22.5979 15.1206 22.1605C15.123 21.7222 15.1216 21.2981 15.1196 20.9839C15.1186 20.8267 15.1175 20.6968 15.1166 20.6061L15.1154 20.501L15.1151 20.4733L15.115 20.4661L15.115 20.4643L15.115 20.4638L15.115 20.4636L14.615 20.4699ZM14.615 20.4699L14.3636 20.0378L15.1041 19.6068L15.115 20.4636L14.615 20.4699ZM10.2123 16.1631C10.0282 15.6297 9.9403 15.0001 9.93983 14.2688L11.476 20.8801C11.8503 20.9964 12.2623 21.0258 12.6335 20.9936C12.9969 20.962 13.3759 20.8665 13.6616 20.6847L13.866 20.5546L13.8906 20.3135C13.922 20.0044 14.1711 19.6806 14.4204 19.4944L15.4589 18.7184L14.1683 18.5961C12.1054 18.4006 11.0154 17.7131 10.4627 16.7254L10.4486 16.7003C10.4424 16.688 10.4342 16.6714 10.4243 16.6509C10.3968 16.5942 10.3604 16.517 10.3248 16.4394C10.2964 16.3776 10.2699 16.3185 10.2495 16.2709L10.2123 16.1631ZM9.73966 15.8263C9.69262 15.8263 9.64639 15.8329 9.60215 15.8455L9.73966 16.3263V15.8263ZM9.45807 18.7021L9.24278 19.0404L9.24228 19.0412L9.20156 19.1052L9.24233 19.0415L9.24284 19.0407L9.45971 18.7021C9.45916 18.7021 9.45862 18.7021 9.45807 18.7021ZM11.0472 9.28851L11.047 9.28887C11.0479 9.28711 11.0484 9.2863 11.0483 9.28647L11.0477 9.28746L11.0472 9.28851ZM17.015 24.934C17.0149 24.9338 17.0149 24.9336 17.0148 24.9334C17.0149 24.9336 17.015 24.9338 17.0151 24.934C17.0151 24.934 17.015 24.934 17.015 24.934ZM15.0686 23.972L15.523 24.1797L15.0687 23.9709L15.0686 23.972ZM13.7808 21.6466C13.7808 21.6466 13.7808 21.6466 13.7808 21.6466V21.6466Z" fill="white" stroke="white"/>
    </svg>
    