<svg width="417" height="495" viewBox="0 0 417 495" fill="none" xmlns="http://www.w3.org/2000/svg">
    <path d="M0 415.5C0 412.7 0 411.3 0.544967 410.23C1.02433 409.289 1.78924 408.524 2.73005 408.045C3.79961 407.5 5.19974 407.5 8 407.5H189C191.8 407.5 193.2 407.5 194.27 408.045C195.211 408.524 195.976 409.289 196.455 410.23C197 411.3 197 412.7 197 415.5V446.5C197 449.3 197 450.7 196.455 451.77C195.976 452.711 195.211 453.476 194.27 453.955C193.2 454.5 191.8 454.5 189 454.5H8C5.19974 454.5 3.79961 454.5 2.73005 453.955C1.78924 453.476 1.02433 452.711 0.544967 451.77C0 450.7 0 449.3 0 446.5V415.5Z" fill="black"/>
    <path d="M28 423C23.5733 423 20 426.609 20 431.081C20 434.798 22.5067 438.03 26.08 438.946C26.1333 438.946 26.24 438.946 26.2933 438.892C26.3467 438.838 26.4 438.785 26.4 438.677V436.737C26.4 436.684 26.3467 436.576 26.3467 436.522C26.2933 436.468 26.24 436.468 26.1333 436.468H25.6C24.7467 436.468 24.2133 435.66 23.7333 434.96C23.6267 434.852 23.5733 434.69 23.4667 434.582C23.7867 434.744 24 434.96 24.2667 435.229C24.64 435.606 25.0133 435.983 25.6533 435.983C25.92 435.983 26.4533 435.714 26.4533 434.906V434.636C26.4533 434.529 26.4 434.421 26.24 434.367C24.4267 433.828 23.2533 432.374 23.2533 430.704C23.2533 429.842 23.6267 428.98 24.2667 428.333C24.2667 428.226 24.2667 428.118 24.2667 428.01C24 427.471 24.2667 426.717 24.64 426.286C25.0133 426.448 25.3867 426.879 25.7067 427.202C25.76 427.31 25.92 427.31 26.0267 427.256L26.1867 427.202C26.7733 426.987 27.4667 426.717 28.1067 426.717C28.7467 426.717 29.44 426.987 30.0267 427.202L30.1867 427.256C30.2933 427.31 30.4 427.256 30.5067 427.202C30.8267 426.825 31.2 426.448 31.5733 426.286C31.9467 426.771 32.2133 427.471 31.9467 428.01C31.7333 428.118 31.7333 428.226 31.7867 428.333C32.4267 429.034 32.8 429.788 32.8 430.596C32.8 432.374 31.4667 433.936 29.5467 434.367C29.44 434.367 29.3867 434.421 29.3867 434.529C29.3867 434.636 29.3333 434.69 29.3867 434.744C29.5467 435.013 29.6 435.552 29.6 436.253C29.6 437.168 29.6 438.731 29.6 438.731C29.6 438.838 29.6533 438.892 29.7067 438.946C29.76 439 29.8133 439 29.8667 439H29.92C33.4933 438.03 36 434.798 36 431.081C36 426.609 32.4267 423 28 423Z" fill="white"/>
    <path d="M54.6719 428.993H56.1534C56.1087 427.362 54.6669 426.179 52.5987 426.179C50.5554 426.179 48.9893 427.347 48.9893 429.102C48.9893 430.519 50.0036 431.349 51.6392 431.792L52.8423 432.12C53.9311 432.408 54.7713 432.766 54.7713 433.671C54.7713 434.665 53.8217 435.322 52.5142 435.322C51.331 435.322 50.3466 434.795 50.2571 433.686H48.7159C48.8153 435.531 50.2422 436.669 52.5241 436.669C54.9155 436.669 56.2926 435.411 56.2926 433.686C56.2926 431.852 54.657 431.141 53.3643 430.822L52.37 430.564C51.5746 430.36 50.5156 429.987 50.5206 429.013C50.5206 428.148 51.3111 427.506 52.5639 427.506C53.7322 427.506 54.5625 428.053 54.6719 428.993ZM58.0091 436.5H59.4956V428.864H58.0091V436.5ZM58.7598 427.685C59.2718 427.685 59.6994 427.288 59.6994 426.8C59.6994 426.313 59.2718 425.911 58.7598 425.911C58.2427 425.911 57.8201 426.313 57.8201 426.8C57.8201 427.288 58.2427 427.685 58.7598 427.685ZM64.6971 439.508C66.641 439.508 68.1424 438.618 68.1424 436.669V428.864H66.6857V430.102H66.5763C66.3129 429.629 65.7859 428.764 64.364 428.764C62.5195 428.764 61.1623 430.221 61.1623 432.652C61.1623 435.088 62.5494 436.386 64.354 436.386C65.756 436.386 66.2979 435.595 66.5664 435.108H66.6609V436.609C66.6609 437.788 65.8406 438.31 64.712 438.31C63.4741 438.31 62.9918 437.688 62.7283 437.266L61.4506 437.793C61.8533 438.712 62.8725 439.508 64.6971 439.508ZM64.6822 435.153C63.3548 435.153 62.6637 434.134 62.6637 432.632C62.6637 431.165 63.3398 430.027 64.6822 430.027C65.9798 430.027 66.6758 431.086 66.6758 432.632C66.6758 434.208 65.9648 435.153 64.6822 435.153ZM71.6225 431.966C71.6225 430.748 72.3683 430.052 73.4023 430.052C74.4116 430.052 75.0231 430.713 75.0231 431.822V436.5H76.5096V431.643C76.5096 429.754 75.4705 428.764 73.9094 428.764C72.761 428.764 72.0103 429.296 71.6573 430.107H71.5629V428.864H70.136V436.5H71.6225V431.966ZM83.3406 433.333C83.3455 434.631 82.381 435.247 81.5458 435.247C80.6261 435.247 79.9897 434.581 79.9897 433.542V428.864H78.5032V433.721C78.5032 435.615 79.5423 436.599 81.0089 436.599C82.1573 436.599 82.9379 435.993 83.2908 435.178H83.3704V436.5H84.832V428.864H83.3406V433.333ZM86.8294 439.364H88.3159V435.312H88.4054C88.6738 435.799 89.2207 436.649 90.6127 436.649C92.4622 436.649 93.8045 435.168 93.8045 432.697C93.8045 430.221 92.4423 428.764 90.5978 428.764C89.1809 428.764 88.6689 429.629 88.4054 430.102H88.2811V428.864H86.8294V439.364ZM88.286 432.682C88.286 431.086 88.9821 430.027 90.2797 430.027C91.627 430.027 92.3031 431.165 92.3031 432.682C92.3031 434.213 91.6071 435.381 90.2797 435.381C89.002 435.381 88.286 434.288 88.286 432.682ZM100.831 436.5H102.342L103.893 430.987H104.007L105.559 436.5H107.075L109.317 428.864H107.781L106.294 434.447H106.22L104.728 428.864H103.192L101.691 434.472H101.616L100.12 428.864H98.5835L100.831 436.5ZM110.728 436.5H112.214V428.864H110.728V436.5ZM111.479 427.685C111.991 427.685 112.418 427.288 112.418 426.8C112.418 426.313 111.991 425.911 111.479 425.911C110.961 425.911 110.539 426.313 110.539 426.8C110.539 427.288 110.961 427.685 111.479 427.685ZM117.779 428.864H116.213V427.034H114.726V428.864H113.608V430.057H114.726V434.566C114.721 435.953 115.78 436.624 116.953 436.599C117.426 436.594 117.744 436.505 117.918 436.44L117.65 435.212C117.55 435.232 117.366 435.277 117.127 435.277C116.645 435.277 116.213 435.118 116.213 434.258V430.057H117.779V428.864ZM121.074 431.966C121.074 430.748 121.844 430.052 122.903 430.052C123.927 430.052 124.539 430.703 124.539 431.822V436.5H126.025V431.643C126.025 429.739 124.981 428.764 123.41 428.764C122.222 428.764 121.506 429.281 121.148 430.107H121.054V426.318H119.587V436.5H121.074V431.966ZM138.724 429.535H140.3C139.957 427.551 138.262 426.179 136.064 426.179C133.429 426.179 131.505 428.163 131.505 431.414C131.505 434.636 133.375 436.639 136.134 436.639C138.605 436.639 140.37 435.018 140.37 432.448V431.29H136.368V432.558H138.883C138.848 434.198 137.765 435.237 136.134 435.237C134.339 435.237 133.032 433.88 133.032 431.404C133.032 428.938 134.349 427.581 136.074 427.581C137.426 427.581 138.341 428.327 138.724 429.535ZM142.679 436.5H144.165V428.864H142.679V436.5ZM143.43 427.685C143.942 427.685 144.369 427.288 144.369 426.8C144.369 426.313 143.942 425.911 143.43 425.911C142.913 425.911 142.49 426.313 142.49 426.8C142.49 427.288 142.913 427.685 143.43 427.685ZM149.73 428.864H148.164V427.034H146.677V428.864H145.559V430.057H146.677V434.566C146.672 435.953 147.731 436.624 148.905 436.599C149.377 436.594 149.695 436.505 149.869 436.44L149.601 435.212C149.501 435.232 149.317 435.277 149.079 435.277C148.596 435.277 148.164 435.118 148.164 434.258V430.057H149.73V428.864ZM153.025 431.966C153.025 430.748 153.795 430.052 154.854 430.052C155.879 430.052 156.49 430.703 156.49 431.822V436.5H157.977V431.643C157.977 429.739 156.933 428.764 155.362 428.764C154.173 428.764 153.457 429.281 153.099 430.107H153.005V426.318H151.538V436.5H153.025V431.966ZM164.798 433.333C164.803 434.631 163.838 435.247 163.003 435.247C162.083 435.247 161.447 434.581 161.447 433.542V428.864H159.96V433.721C159.96 435.615 160.999 436.599 162.466 436.599C163.614 436.599 164.395 435.993 164.748 435.178H164.827V436.5H166.289V428.864H164.798V433.333ZM168.406 436.5H169.857V435.312H169.982C170.25 435.799 170.797 436.649 172.189 436.649C174.039 436.649 175.381 435.168 175.381 432.697C175.381 430.221 174.019 428.764 172.174 428.764C170.757 428.764 170.245 429.629 169.982 430.102H169.892V426.318H168.406V436.5ZM169.862 432.682C169.862 431.086 170.558 430.027 171.856 430.027C173.203 430.027 173.879 431.165 173.879 432.682C173.879 434.213 173.183 435.381 171.856 435.381C170.578 435.381 169.862 434.288 169.862 432.682Z" fill="white"/>
    <rect x="217" y="406" width="193" height="50" rx="5" fill="#D44638"/>
    <path d="M253.667 424.333H240.333C239.417 424.333 238.675 425.083 238.675 426L238.667 436C238.667 436.917 239.417 437.667 240.333 437.667H253.667C254.583 437.667 255.333 436.917 255.333 436V426C255.333 425.083 254.583 424.333 253.667 424.333ZM253.667 436H240.333V427.667L247 431.833L253.667 427.667V436ZM247 430.167L240.333 426H253.667L247 430.167Z" fill="white"/>
    <path d="M275.672 428.993H277.153C277.109 427.362 275.667 426.179 273.599 426.179C271.555 426.179 269.989 427.347 269.989 429.102C269.989 430.519 271.004 431.349 272.639 431.792L273.842 432.12C274.931 432.408 275.771 432.766 275.771 433.671C275.771 434.665 274.822 435.322 273.514 435.322C272.331 435.322 271.347 434.795 271.257 433.686H269.716C269.815 435.531 271.242 436.669 273.524 436.669C275.915 436.669 277.293 435.411 277.293 433.686C277.293 431.852 275.657 431.141 274.364 430.822L273.37 430.564C272.575 430.36 271.516 429.987 271.521 429.013C271.521 428.148 272.311 427.506 273.564 427.506C274.732 427.506 275.562 428.053 275.672 428.993ZM279.009 436.5H280.496V428.864H279.009V436.5ZM279.76 427.685C280.272 427.685 280.699 427.288 280.699 426.8C280.699 426.313 280.272 425.911 279.76 425.911C279.243 425.911 278.82 426.313 278.82 426.8C278.82 427.288 279.243 427.685 279.76 427.685ZM285.697 439.508C287.641 439.508 289.142 438.618 289.142 436.669V428.864H287.686V430.102H287.576C287.313 429.629 286.786 428.764 285.364 428.764C283.52 428.764 282.162 430.221 282.162 432.652C282.162 435.088 283.549 436.386 285.354 436.386C286.756 436.386 287.298 435.595 287.566 435.108H287.661V436.609C287.661 437.788 286.841 438.31 285.712 438.31C284.474 438.31 283.992 437.688 283.728 437.266L282.451 437.793C282.853 438.712 283.873 439.508 285.697 439.508ZM285.682 435.153C284.355 435.153 283.664 434.134 283.664 432.632C283.664 431.165 284.34 430.027 285.682 430.027C286.98 430.027 287.676 431.086 287.676 432.632C287.676 434.208 286.965 435.153 285.682 435.153ZM292.623 431.966C292.623 430.748 293.368 430.052 294.402 430.052C295.412 430.052 296.023 430.713 296.023 431.822V436.5H297.51V431.643C297.51 429.754 296.471 428.764 294.909 428.764C293.761 428.764 293.01 429.296 292.657 430.107H292.563V428.864H291.136V436.5H292.623V431.966ZM304.341 433.333C304.346 434.631 303.381 435.247 302.546 435.247C301.626 435.247 300.99 434.581 300.99 433.542V428.864H299.503V433.721C299.503 435.615 300.542 436.599 302.009 436.599C303.157 436.599 303.938 435.993 304.291 435.178H304.37V436.5H305.832V428.864H304.341V433.333ZM307.829 439.364H309.316V435.312H309.405C309.674 435.799 310.221 436.649 311.613 436.649C313.462 436.649 314.805 435.168 314.805 432.697C314.805 430.221 313.442 428.764 311.598 428.764C310.181 428.764 309.669 429.629 309.405 430.102H309.281V428.864H307.829V439.364ZM309.286 432.682C309.286 431.086 309.982 430.027 311.28 430.027C312.627 430.027 313.303 431.165 313.303 432.682C313.303 434.213 312.607 435.381 311.28 435.381C310.002 435.381 309.286 434.288 309.286 432.682ZM321.831 436.5H323.342L324.893 430.987H325.007L326.559 436.5H328.075L330.317 428.864H328.781L327.294 434.447H327.22L325.728 428.864H324.192L322.691 434.472H322.616L321.12 428.864H319.583L321.831 436.5ZM331.728 436.5H333.214V428.864H331.728V436.5ZM332.479 427.685C332.991 427.685 333.418 427.288 333.418 426.8C333.418 426.313 332.991 425.911 332.479 425.911C331.961 425.911 331.539 426.313 331.539 426.8C331.539 427.288 331.961 427.685 332.479 427.685ZM338.779 428.864H337.213V427.034H335.726V428.864H334.608V430.057H335.726V434.566C335.721 435.953 336.78 436.624 337.953 436.599C338.426 436.594 338.744 436.505 338.918 436.44L338.65 435.212C338.55 435.232 338.366 435.277 338.127 435.277C337.645 435.277 337.213 435.118 337.213 434.258V430.057H338.779V428.864ZM342.074 431.966C342.074 430.748 342.844 430.052 343.903 430.052C344.927 430.052 345.539 430.703 345.539 431.822V436.5H347.025V431.643C347.025 429.739 345.981 428.764 344.41 428.764C343.222 428.764 342.506 429.281 342.148 430.107H342.054V426.318H340.587V436.5H342.074V431.966ZM359.724 429.535H361.3C360.957 427.551 359.262 426.179 357.064 426.179C354.429 426.179 352.505 428.163 352.505 431.414C352.505 434.636 354.375 436.639 357.134 436.639C359.605 436.639 361.37 435.018 361.37 432.448V431.29H357.368V432.558H359.883C359.848 434.198 358.765 435.237 357.134 435.237C355.339 435.237 354.032 433.88 354.032 431.404C354.032 428.938 355.349 427.581 357.074 427.581C358.426 427.581 359.341 428.327 359.724 429.535ZM363.2 436.5H364.687V431.792C364.687 430.763 365.408 430.047 366.253 430.047C367.078 430.047 367.65 430.594 367.65 431.424V436.5H369.132V431.633C369.132 430.713 369.693 430.047 370.663 430.047C371.448 430.047 372.095 430.484 372.095 431.518V436.5H373.581V431.379C373.581 429.634 372.607 428.764 371.225 428.764C370.126 428.764 369.301 429.291 368.933 430.107H368.853C368.52 429.271 367.819 428.764 366.8 428.764C365.791 428.764 365.04 429.266 364.722 430.107H364.627V428.864H363.2V436.5ZM377.796 436.669C379.059 436.669 379.77 436.028 380.053 435.456H380.113V436.5H381.564V431.429C381.564 429.207 379.814 428.764 378.601 428.764C377.219 428.764 375.946 429.321 375.449 430.713L376.846 431.031C377.065 430.489 377.622 429.967 378.621 429.967C379.581 429.967 380.073 430.469 380.073 431.335V431.369C380.073 431.911 379.516 431.901 378.144 432.06C376.697 432.229 375.216 432.607 375.216 434.342C375.216 435.844 376.344 436.669 377.796 436.669ZM378.119 435.476C377.279 435.476 376.672 435.098 376.672 434.362C376.672 433.567 377.378 433.283 378.238 433.169C378.721 433.104 379.864 432.975 380.078 432.761V433.746C380.078 434.651 379.357 435.476 378.119 435.476ZM383.544 436.5H385.031V428.864H383.544V436.5ZM384.295 427.685C384.807 427.685 385.235 427.288 385.235 426.8C385.235 426.313 384.807 425.911 384.295 425.911C383.778 425.911 383.355 426.313 383.355 426.8C383.355 427.288 383.778 427.685 384.295 427.685ZM388.517 426.318H387.031V436.5H388.517V426.318Z" fill="white"/>
    <path d="M11.7997 106H19.5923L26.7756 81.2741H27.071L34.2727 106H42.0653L52.8864 68.1818H44.152L37.892 94.5142H37.5597L30.6719 68.1818H23.1932L16.2869 94.4588H15.973L9.71307 68.1818H0.978693L11.7997 106ZM66.8974 106.554C73.9144 106.554 78.6417 103.138 79.7496 97.875L72.4741 97.3949C71.68 99.5554 69.6488 100.682 67.0266 100.682C63.0934 100.682 60.6005 98.0781 60.6005 93.8494V93.831H79.9158V91.6705C79.9158 82.0312 74.0806 77.267 66.5835 77.267C58.2369 77.267 52.8263 83.1946 52.8263 91.9474C52.8263 100.94 58.163 106.554 66.8974 106.554ZM60.6005 88.956C60.7667 85.7244 63.2227 83.1392 66.7127 83.1392C70.1289 83.1392 72.4925 85.5767 72.511 88.956H60.6005ZM92.9158 68.1818H85.0494V106H92.9158V68.1818ZM112.033 106.554C119.585 106.554 124.331 102.122 124.7 95.6037H117.277C116.815 98.6321 114.821 100.331 112.125 100.331C108.45 100.331 106.068 97.2472 106.068 91.8182C106.068 86.4631 108.469 83.3977 112.125 83.3977C115.006 83.3977 116.852 85.2997 117.277 88.125H124.7C124.368 81.5696 119.401 77.267 111.996 77.267C103.391 77.267 98.0724 83.2315 98.0724 91.929C98.0724 100.553 103.298 106.554 112.033 106.554ZM142.552 106.554C151.157 106.554 156.512 100.663 156.512 91.929C156.512 83.1392 151.157 77.267 142.552 77.267C133.947 77.267 128.592 83.1392 128.592 91.929C128.592 100.663 133.947 106.554 142.552 106.554ZM142.589 100.46C138.619 100.46 136.588 96.8224 136.588 91.8736C136.588 86.9247 138.619 83.2685 142.589 83.2685C146.485 83.2685 148.517 86.9247 148.517 91.8736C148.517 96.8224 146.485 100.46 142.589 100.46ZM161.627 106H169.494V88.9744C169.494 85.8352 171.488 83.7486 174.11 83.7486C176.696 83.7486 178.431 85.5213 178.431 88.3097V106H186.058V88.679C186.058 85.7429 187.738 83.7486 190.6 83.7486C193.112 83.7486 194.995 85.3182 194.995 88.4759V106H202.843V86.9247C202.843 80.7756 199.187 77.267 193.906 77.267C189.751 77.267 186.52 79.3906 185.356 82.6406H185.061C184.156 79.3537 181.257 77.267 177.36 77.267C173.538 77.267 170.639 79.2983 169.457 82.6406H169.125V77.6364H161.627V106ZM221.983 106.554C229 106.554 233.728 103.138 234.836 97.875L227.56 97.3949C226.766 99.5554 224.735 100.682 222.113 100.682C218.179 100.682 215.686 98.0781 215.686 93.8494V93.831H235.002V91.6705C235.002 82.0312 229.167 77.267 221.669 77.267C213.323 77.267 207.912 83.1946 207.912 91.9474C207.912 100.94 213.249 106.554 221.983 106.554ZM215.686 88.956C215.853 85.7244 218.309 83.1392 221.799 83.1392C225.215 83.1392 227.578 85.5767 227.597 88.956H215.686ZM267.257 77.6364H261.92V70.8409H254.054V77.6364H250.176V83.5455H254.054V98.3182C254.017 103.876 257.803 106.628 263.509 106.388C265.54 106.314 266.98 105.908 267.774 105.649L266.537 99.7955C266.149 99.8693 265.318 100.054 264.58 100.054C263.01 100.054 261.92 99.4631 261.92 97.2841V83.5455H267.257V77.6364ZM284.892 106.554C293.497 106.554 298.852 100.663 298.852 91.929C298.852 83.1392 293.497 77.267 284.892 77.267C276.287 77.267 270.932 83.1392 270.932 91.929C270.932 100.663 276.287 106.554 284.892 106.554ZM284.929 100.46C280.959 100.46 278.928 96.8224 278.928 91.8736C278.928 86.9247 280.959 83.2685 284.929 83.2685C288.825 83.2685 290.857 86.9247 290.857 91.8736C290.857 96.8224 288.825 100.46 284.929 100.46ZM36.6548 151.422C35.6023 142.688 28.9915 137.665 20.2386 137.665C10.2486 137.665 2.62216 144.719 2.62216 157.091C2.62216 169.426 10.1193 176.517 20.2386 176.517C29.9332 176.517 35.7869 170.072 36.6548 163.111L28.5668 163.074C27.8097 167.118 24.6335 169.445 20.3679 169.445C14.625 169.445 10.7287 165.179 10.7287 157.091C10.7287 149.224 14.5696 144.737 20.4233 144.737C24.7997 144.737 27.9574 147.267 28.5668 151.422H36.6548ZM55.0561 176.554C63.6612 176.554 69.0163 170.663 69.0163 161.929C69.0163 153.139 63.6612 147.267 55.0561 147.267C46.451 147.267 41.0959 153.139 41.0959 161.929C41.0959 170.663 46.451 176.554 55.0561 176.554ZM55.093 170.46C51.1229 170.46 49.0916 166.822 49.0916 161.874C49.0916 156.925 51.1229 153.268 55.093 153.268C58.9893 153.268 61.0206 156.925 61.0206 161.874C61.0206 166.822 58.9893 170.46 55.093 170.46ZM84.5831 176.462C89.1626 176.462 91.5447 173.821 92.6342 171.457H92.9666V176H100.722V138.182H92.8743V152.401H92.6342C91.5817 150.092 89.3104 147.267 84.5646 147.267C78.3416 147.267 73.0788 152.105 73.0788 161.855C73.0788 171.347 78.12 176.462 84.5831 176.462ZM87.076 170.202C83.2166 170.202 81.1115 166.767 81.1115 161.818C81.1115 156.906 83.1797 153.527 87.076 153.527C90.8984 153.527 93.0405 156.759 93.0405 161.818C93.0405 166.878 90.8615 170.202 87.076 170.202ZM120.116 176.554C127.133 176.554 131.86 173.138 132.968 167.875L125.693 167.395C124.899 169.555 122.868 170.682 120.245 170.682C116.312 170.682 113.819 168.078 113.819 163.849V163.831H133.135V161.67C133.135 152.031 127.299 147.267 119.802 147.267C111.456 147.267 106.045 153.195 106.045 161.947C106.045 170.94 111.382 176.554 120.116 176.554ZM113.819 158.956C113.985 155.724 116.441 153.139 119.931 153.139C123.348 153.139 125.711 155.577 125.73 158.956H113.819ZM138.416 176H154.574C163.068 176 167.592 171.568 167.592 165.548C167.592 159.953 163.585 156.574 159.282 156.371V156.001C163.216 155.115 166.115 152.327 166.115 147.876C166.115 142.207 161.904 138.182 153.558 138.182H138.416V176ZM146.412 169.463V159.418H153.115C156.956 159.418 159.338 161.634 159.338 164.754C159.338 167.598 157.399 169.463 152.93 169.463H146.412ZM146.412 154.007V144.645H152.487C156.032 144.645 158.045 146.473 158.045 149.206C158.045 152.197 155.608 154.007 152.339 154.007H146.412ZM180.735 176.536C184.927 176.536 187.641 174.707 189.026 172.067H189.248V176H196.708V156.869C196.708 150.111 190.984 147.267 184.668 147.267C177.873 147.267 173.404 150.517 172.315 155.688L179.59 156.278C180.126 154.395 181.806 153.01 184.631 153.01C187.309 153.01 188.842 154.358 188.842 156.685V156.795C188.842 158.624 186.903 158.864 181.972 159.344C176.359 159.861 171.317 161.744 171.317 168.078C171.317 173.692 175.325 176.536 180.735 176.536ZM182.988 171.107C180.569 171.107 178.833 169.98 178.833 167.82C178.833 165.604 180.661 164.514 183.431 164.126C185.148 163.886 187.955 163.48 188.897 162.852V165.862C188.897 168.835 186.441 171.107 182.988 171.107ZM213.263 176.462C217.842 176.462 220.224 173.821 221.314 171.457H221.646V176H229.402V138.182H221.554V152.401H221.314C220.261 150.092 217.99 147.267 213.244 147.267C207.021 147.267 201.759 152.105 201.759 161.855C201.759 171.347 206.8 176.462 213.263 176.462ZM215.756 170.202C211.896 170.202 209.791 166.767 209.791 161.818C209.791 156.906 211.859 153.527 215.756 153.527C219.578 153.527 221.72 156.759 221.72 161.818C221.72 166.878 219.541 170.202 215.756 170.202ZM248.648 187.043C256.755 187.043 262.516 183.349 262.516 176.277V147.636H254.705V152.401H254.409C253.357 150.092 251.049 147.267 246.303 147.267C240.08 147.267 234.817 152.105 234.817 161.763C234.817 171.199 239.932 175.594 246.321 175.594C250.846 175.594 253.375 173.322 254.409 170.977H254.742V176.166C254.742 179.878 252.249 181.392 248.833 181.392C245.361 181.392 243.607 179.878 242.961 178.345L235.685 179.324C236.627 183.608 241.003 187.043 248.648 187.043ZM248.814 169.685C244.955 169.685 242.85 166.619 242.85 161.726C242.85 156.906 244.918 153.527 248.814 153.527C252.637 153.527 254.779 156.759 254.779 161.726C254.779 166.73 252.6 169.685 248.814 169.685ZM281.702 176.554C288.719 176.554 293.446 173.138 294.554 167.875L287.279 167.395C286.485 169.555 284.453 170.682 281.831 170.682C277.898 170.682 275.405 168.078 275.405 163.849V163.831H294.721V161.67C294.721 152.031 288.885 147.267 281.388 147.267C273.042 147.267 267.631 153.195 267.631 161.947C267.631 170.94 272.968 176.554 281.702 176.554ZM275.405 158.956C275.571 155.724 278.027 153.139 281.517 153.139C284.934 153.139 287.297 155.577 287.316 158.956H275.405ZM304.452 176.48C306.816 176.48 308.865 174.504 308.884 172.048C308.865 169.629 306.816 167.653 304.452 167.653C302.015 167.653 300.002 169.629 300.02 172.048C300.002 174.504 302.015 176.48 304.452 176.48Z" fill="#313233"/>
    <path fill-rule="evenodd" clip-rule="evenodd" d="M41.8797 35.3764L36.6025 26.25C34.3593 29.8603 30.9123 32.6393 26.8162 34.0114L31.299 41.5417C31.6735 42.1735 32.6201 42.086 32.8703 41.393L34.9577 35.6564L40.9751 36.6767C41.724 36.7939 42.2472 36.0064 41.8797 35.3764ZM0.120337 35.4077L5.39756 26.2813C7.64072 29.8916 11.0877 32.6706 15.1839 34.0426L10.701 41.573C10.3266 42.2048 9.37996 42.1173 9.12975 41.4243L7.04231 35.6877L1.02495 36.7079C0.276064 36.8252 -0.247109 36.0377 0.120337 35.4077Z" fill="#3F8CFF"/>
    <path d="M21 2.625C13.0396 2.625 6.5625 9.10212 6.5625 17.0625C6.5625 25.0229 13.0396 31.5 21 31.5C28.9604 31.5 35.4375 25.0229 35.4375 17.0625C35.4375 9.10212 28.9604 2.625 21 2.625Z" fill="white"/>
    <path d="M21 0C11.8348 0 4.37744 7.45861 4.37744 16.6253C4.37744 25.7919 11.8348 33.2505 21 33.2505C30.1651 33.2505 37.6225 25.7919 37.6225 16.6253C37.6225 7.45861 30.1651 0 21 0Z" fill="#3F8CFF"/>
    <rect x="21.0933" y="25.0307" width="12.1309" height="12.1309" transform="rotate(-135 21.0933 25.0307)" fill="white"/>
    <path d="M1.05682 222.812H6.49432V238H9.11932V222.812H14.5653V220.545H1.05682V222.812ZM15.9865 238H18.5348V230.006C18.5348 228.301 19.8558 227.065 21.62 227.065C22.1143 227.065 22.4979 227.168 22.8047 227.321L23.6229 225.19C23.1882 224.901 22.6257 224.713 21.9098 224.713C20.3587 224.713 19.0632 225.582 18.5859 226.989H18.4496V224.909H15.9865V238ZM29.2415 238.29C31.4062 238.29 32.625 237.19 33.1108 236.21H33.2131V238H35.7017V229.307C35.7017 225.497 32.7017 224.739 30.6222 224.739C28.2528 224.739 26.071 225.693 25.2188 228.08L27.6136 228.625C27.9886 227.696 28.9432 226.801 30.6562 226.801C32.3011 226.801 33.1449 227.662 33.1449 229.145V229.205C33.1449 230.134 32.1903 230.116 29.8381 230.389C27.358 230.679 24.8182 231.327 24.8182 234.301C24.8182 236.875 26.7528 238.29 29.2415 238.29ZM29.7955 236.244C28.3551 236.244 27.3153 235.597 27.3153 234.335C27.3153 232.972 28.5256 232.486 30 232.29C30.8267 232.179 32.7869 231.957 33.1534 231.591V233.278C33.1534 234.83 31.9176 236.244 29.7955 236.244ZM44.6101 238.264C47.7038 238.264 49.7067 236.406 49.9879 233.858H47.5078C47.1839 235.273 46.0845 236.108 44.6271 236.108C42.4709 236.108 41.0817 234.31 41.0817 231.455C41.0817 228.651 42.4964 226.886 44.6271 226.886C46.2464 226.886 47.2351 227.909 47.5078 229.136H49.9879C49.7152 226.494 47.5589 224.739 44.5845 224.739C40.8942 224.739 38.5078 227.517 38.5078 231.514C38.5078 235.46 40.8089 238.264 44.6101 238.264ZM52.7131 238H55.2614V233.355L56.5312 232.085L60.9801 238H64.108L58.4489 230.526L63.75 224.909H60.6989L55.483 230.449H55.2614V220.545H52.7131V238ZM76.2337 238.29C78.3984 238.29 79.6172 237.19 80.103 236.21H80.2053V238H82.6939V229.307C82.6939 225.497 79.6939 224.739 77.6143 224.739C75.245 224.739 73.0632 225.693 72.2109 228.08L74.6058 228.625C74.9808 227.696 75.9354 226.801 77.6484 226.801C79.2933 226.801 80.1371 227.662 80.1371 229.145V229.205C80.1371 230.134 79.1825 230.116 76.8303 230.389C74.3501 230.679 71.8104 231.327 71.8104 234.301C71.8104 236.875 73.745 238.29 76.2337 238.29ZM76.7876 236.244C75.3473 236.244 74.3075 235.597 74.3075 234.335C74.3075 232.972 75.5178 232.486 76.9922 232.29C77.8189 232.179 79.7791 231.957 80.1456 231.591V233.278C80.1456 234.83 78.9098 236.244 76.7876 236.244ZM88.6364 220.545H86.0881V238H88.6364V220.545ZM94.6129 220.545H92.0646V238H94.6129V220.545ZM105.91 243.088C108.023 243.088 109.396 241.946 110.137 239.909L115.592 224.909H112.856L109.54 235.068H109.404L106.089 224.909H103.362L108.151 238.17L107.776 239.202C107.137 240.906 106.225 241.051 104.819 240.676L104.205 242.79C104.478 242.918 105.117 243.088 105.91 243.088ZM123.032 238.264C126.722 238.264 129.134 235.562 129.134 231.514C129.134 227.44 126.722 224.739 123.032 224.739C119.342 224.739 116.93 227.44 116.93 231.514C116.93 235.562 119.342 238.264 123.032 238.264ZM123.04 236.125C120.629 236.125 119.504 234.02 119.504 231.506C119.504 229 120.629 226.869 123.04 226.869C125.435 226.869 126.56 229 126.56 231.506C126.56 234.02 125.435 236.125 123.04 236.125ZM140.271 232.571C140.28 234.795 138.626 235.852 137.195 235.852C135.618 235.852 134.527 234.71 134.527 232.929V224.909H131.979V233.236C131.979 236.483 133.76 238.17 136.274 238.17C138.243 238.17 139.581 237.131 140.186 235.733H140.322V238H142.828V224.909H140.271V232.571ZM146.252 238H148.8V230.006C148.8 228.301 150.121 227.065 151.886 227.065C152.38 227.065 152.763 227.168 153.07 227.321L153.888 225.19C153.454 224.901 152.891 224.713 152.175 224.713C150.624 224.713 149.329 225.582 148.852 226.989H148.715V224.909H146.252V238ZM162.371 238H165.004V231.864H168.584C172.632 231.864 174.635 229.418 174.635 226.196C174.635 222.983 172.649 220.545 168.592 220.545H162.371V238ZM165.004 229.631V222.804H168.311C170.919 222.804 171.984 224.219 171.984 226.196C171.984 228.173 170.919 229.631 168.345 229.631H165.004ZM177.518 238H180.066V230.006C180.066 228.301 181.387 227.065 183.151 227.065C183.646 227.065 184.029 227.168 184.336 227.321L185.154 225.19C184.719 224.901 184.157 224.713 183.441 224.713C181.89 224.713 180.594 225.582 180.117 226.989H179.981V224.909H177.518V238ZM192.126 238.264C195.816 238.264 198.228 235.562 198.228 231.514C198.228 227.44 195.816 224.739 192.126 224.739C188.435 224.739 186.023 227.44 186.023 231.514C186.023 235.562 188.435 238.264 192.126 238.264ZM192.134 236.125C189.722 236.125 188.597 234.02 188.597 231.506C188.597 229 189.722 226.869 192.134 226.869C194.529 226.869 195.654 229 195.654 231.506C195.654 234.02 194.529 236.125 192.134 236.125ZM201.072 224.909V238.818C201.072 240.037 200.57 240.702 199.359 240.702C199.214 240.702 199.104 240.702 198.95 240.693V242.892H199.445C202.18 242.926 203.621 241.46 203.621 238.835V224.909H201.072ZM202.334 222.889C203.212 222.889 203.945 222.207 203.945 221.372C203.945 220.537 203.212 219.847 202.334 219.847C201.447 219.847 200.723 220.537 200.723 221.372C200.723 222.207 201.447 222.889 202.334 222.889ZM212.691 238.264C215.546 238.264 217.566 236.858 218.146 234.727L215.734 234.293C215.273 235.528 214.165 236.159 212.717 236.159C210.535 236.159 209.069 234.744 209.001 232.222H218.308V231.318C218.308 226.588 215.478 224.739 212.512 224.739C208.864 224.739 206.461 227.517 206.461 231.54C206.461 235.605 208.83 238.264 212.691 238.264ZM209.009 230.312C209.112 228.455 210.458 226.844 212.529 226.844C214.506 226.844 215.802 228.31 215.81 230.312H209.009ZM226.649 238.264C229.743 238.264 231.746 236.406 232.027 233.858H229.547C229.223 235.273 228.124 236.108 226.666 236.108C224.51 236.108 223.121 234.31 223.121 231.455C223.121 228.651 224.536 226.886 226.666 226.886C228.286 226.886 229.274 227.909 229.547 229.136H232.027C231.754 226.494 229.598 224.739 226.624 224.739C222.933 224.739 220.547 227.517 220.547 231.514C220.547 235.46 222.848 238.264 226.649 238.264ZM240.863 224.909H238.178V221.773H235.63V224.909H233.712V226.955H235.63V234.685C235.621 237.062 237.437 238.213 239.448 238.17C240.258 238.162 240.803 238.009 241.102 237.898L240.641 235.793C240.471 235.827 240.156 235.903 239.746 235.903C238.92 235.903 238.178 235.631 238.178 234.156V226.955H240.863V224.909ZM253.281 228.105C252.752 226.068 251.158 224.739 248.329 224.739C245.371 224.739 243.275 226.298 243.275 228.616C243.275 230.474 244.4 231.71 246.854 232.256L249.07 232.741C250.332 233.023 250.92 233.585 250.92 234.403C250.92 235.418 249.837 236.21 248.167 236.21C246.641 236.21 245.661 235.554 245.354 234.267L242.891 234.642C243.317 236.96 245.244 238.264 248.184 238.264C251.346 238.264 253.536 236.585 253.536 234.216C253.536 232.366 252.36 231.224 249.957 230.67L247.877 230.193C246.437 229.852 245.815 229.366 245.823 228.48C245.815 227.474 246.906 226.759 248.354 226.759C249.94 226.759 250.673 227.636 250.971 228.514L253.281 228.105ZM266.499 238.29C268.664 238.29 269.883 237.19 270.369 236.21H270.471V238H272.96V229.307C272.96 225.497 269.96 224.739 267.88 224.739C265.511 224.739 263.329 225.693 262.477 228.08L264.871 228.625C265.246 227.696 266.201 226.801 267.914 226.801C269.559 226.801 270.403 227.662 270.403 229.145V229.205C270.403 230.134 269.448 230.116 267.096 230.389C264.616 230.679 262.076 231.327 262.076 234.301C262.076 236.875 264.011 238.29 266.499 238.29ZM267.053 236.244C265.613 236.244 264.573 235.597 264.573 234.335C264.573 232.972 265.783 232.486 267.258 232.29C268.085 232.179 270.045 231.957 270.411 231.591V233.278C270.411 234.83 269.175 236.244 267.053 236.244ZM282.464 224.909H279.78V221.773H277.232V224.909H275.314V226.955H277.232V234.685C277.223 237.062 279.038 238.213 281.05 238.17C281.859 238.162 282.405 238.009 282.703 237.898L282.243 235.793C282.072 235.827 281.757 235.903 281.348 235.903C280.521 235.903 279.78 235.631 279.78 234.156V226.955H282.464V224.909ZM297.149 238.264C300.839 238.264 303.251 235.562 303.251 231.514C303.251 227.44 300.839 224.739 297.149 224.739C293.459 224.739 291.047 227.44 291.047 231.514C291.047 235.562 293.459 238.264 297.149 238.264ZM297.158 236.125C294.746 236.125 293.621 234.02 293.621 231.506C293.621 229 294.746 226.869 297.158 226.869C299.553 226.869 300.678 229 300.678 231.506C300.678 234.02 299.553 236.125 297.158 236.125ZM308.644 230.227C308.644 228.139 309.923 226.946 311.695 226.946C313.425 226.946 314.474 228.08 314.474 229.98V238H317.022V229.673C317.022 226.435 315.241 224.739 312.565 224.739C310.596 224.739 309.309 225.651 308.704 227.04H308.542V224.909H306.096V238H308.644V230.227ZM326.082 238.264C328.937 238.264 330.957 236.858 331.536 234.727L329.124 234.293C328.664 235.528 327.556 236.159 326.107 236.159C323.925 236.159 322.46 234.744 322.391 232.222H331.698V231.318C331.698 226.588 328.869 224.739 325.903 224.739C322.255 224.739 319.852 227.517 319.852 231.54C319.852 235.605 322.221 238.264 326.082 238.264ZM322.4 230.312C322.502 228.455 323.849 226.844 325.92 226.844C327.897 226.844 329.192 228.31 329.201 230.312H322.4ZM340.877 242.909H343.425V235.963H343.579C344.039 236.798 344.977 238.256 347.363 238.256C350.533 238.256 352.835 235.716 352.835 231.48C352.835 227.236 350.499 224.739 347.337 224.739C344.908 224.739 344.031 226.222 343.579 227.031H343.366V224.909H340.877V242.909ZM343.374 231.455C343.374 228.719 344.567 226.903 346.792 226.903C349.102 226.903 350.261 228.855 350.261 231.455C350.261 234.08 349.067 236.082 346.792 236.082C344.602 236.082 343.374 234.207 343.374 231.455ZM358.238 220.545H355.69V238H358.238V220.545ZM365.476 238.29C367.641 238.29 368.859 237.19 369.345 236.21H369.447V238H371.936V229.307C371.936 225.497 368.936 224.739 366.857 224.739C364.487 224.739 362.305 225.693 361.453 228.08L363.848 228.625C364.223 227.696 365.178 226.801 366.891 226.801C368.536 226.801 369.379 227.662 369.379 229.145V229.205C369.379 230.134 368.425 230.116 366.072 230.389C363.592 230.679 361.053 231.327 361.053 234.301C361.053 236.875 362.987 238.29 365.476 238.29ZM366.03 236.244C364.589 236.244 363.55 235.597 363.55 234.335C363.55 232.972 364.76 232.486 366.234 232.29C367.061 232.179 369.021 231.957 369.388 231.591V233.278C369.388 234.83 368.152 236.244 366.03 236.244ZM380.844 238.264C383.938 238.264 385.941 236.406 386.222 233.858H383.742C383.418 235.273 382.319 236.108 380.862 236.108C378.705 236.108 377.316 234.31 377.316 231.455C377.316 228.651 378.731 226.886 380.862 226.886C382.481 226.886 383.469 227.909 383.742 229.136H386.222C385.95 226.494 383.793 224.739 380.819 224.739C377.129 224.739 374.742 227.517 374.742 231.514C374.742 235.46 377.043 238.264 380.844 238.264ZM394.589 238.264C397.445 238.264 399.464 236.858 400.044 234.727L397.632 234.293C397.172 235.528 396.064 236.159 394.615 236.159C392.433 236.159 390.967 234.744 390.899 232.222H400.206V231.318C400.206 226.588 397.376 224.739 394.411 224.739C390.763 224.739 388.359 227.517 388.359 231.54C388.359 235.605 390.729 238.264 394.589 238.264ZM390.908 230.312C391.01 228.455 392.357 226.844 394.428 226.844C396.405 226.844 397.7 228.31 397.709 230.312H390.908Z" fill="#4E5052"/>
    <path d="M12.5469 286V274.727H10.9141L7.05469 284.133H6.92969L3.07031 274.727H1.4375V286H2.75V277.391H2.84375L6.39844 286H7.58594L11.1406 277.391H11.2344V286H12.5469ZM17.5938 286.148C18.7188 286.148 19.6406 285.656 20.1875 284.758H20.3125V286H21.5938V280.234C21.5938 278.484 20.4453 277.43 18.3906 277.43C16.5938 277.43 15.2656 278.32 15.0859 279.672H16.4453C16.6328 279.008 17.3359 278.625 18.3438 278.625C19.6016 278.625 20.25 279.195 20.25 280.234V281L17.8203 281.148C15.8594 281.266 14.75 282.133 14.75 283.641C14.75 285.18 15.9609 286.148 17.5938 286.148ZM17.8438 284.969C16.8672 284.969 16.1406 284.469 16.1406 283.609C16.1406 282.766 16.7031 282.32 17.9844 282.234L20.25 282.086V282.859C20.25 284.062 19.2266 284.969 17.8438 284.969ZM24.0781 286H25.4219V281.016C25.4219 279.539 26.2891 278.641 27.6328 278.641C28.9766 278.641 29.6172 279.359 29.6172 280.875V286H30.9609V280.547C30.9609 278.547 29.9062 277.43 28.0156 277.43C26.7266 277.43 25.9062 277.977 25.4844 278.906H25.3594V277.578H24.0781V286ZM33.8281 289.047C35.3203 289.047 35.9922 288.469 36.7109 286.516L40 277.578H38.5703L36.2656 284.508H36.1406L33.8281 277.578H32.375L35.4922 286.008L35.3359 286.508C34.9844 287.523 34.5625 287.891 33.7891 287.891C33.6016 287.891 33.3906 287.883 33.2266 287.852V289C33.4141 289.031 33.6484 289.047 33.8281 289.047ZM48.6562 286.148C49.7812 286.148 50.7031 285.656 51.25 284.758H51.375V286H52.6562V280.234C52.6562 278.484 51.5078 277.43 49.4531 277.43C47.6562 277.43 46.3281 278.32 46.1484 279.672H47.5078C47.6953 279.008 48.3984 278.625 49.4062 278.625C50.6641 278.625 51.3125 279.195 51.3125 280.234V281L48.8828 281.148C46.9219 281.266 45.8125 282.133 45.8125 283.641C45.8125 285.18 47.0234 286.148 48.6562 286.148ZM48.9062 284.969C47.9297 284.969 47.2031 284.469 47.2031 283.609C47.2031 282.766 47.7656 282.32 49.0469 282.234L51.3125 282.086V282.859C51.3125 284.062 50.2891 284.969 48.9062 284.969ZM60.2188 275.398V277.578H58.8594V278.703H60.2188V283.812C60.2188 285.422 60.9141 286.062 62.6484 286.062C62.9141 286.062 63.1719 286.031 63.4375 285.984V284.852C63.1875 284.875 63.0547 284.883 62.8125 284.883C61.9375 284.883 61.5625 284.461 61.5625 283.469V278.703H63.4375V277.578H61.5625V275.398H60.2188ZM66.1719 275.953C66.6875 275.953 67.1094 275.531 67.1094 275.016C67.1094 274.5 66.6875 274.078 66.1719 274.078C65.6562 274.078 65.2344 274.5 65.2344 275.016C65.2344 275.531 65.6562 275.953 66.1719 275.953ZM65.5 286H66.8438V277.578H65.5V286ZM69.4062 286H70.75V280.781C70.75 279.594 71.6016 278.641 72.7031 278.641C73.7656 278.641 74.4609 279.281 74.4609 280.281V286H75.8047V280.586C75.8047 279.516 76.5859 278.641 77.7578 278.641C78.9453 278.641 79.5312 279.25 79.5312 280.492V286H80.875V280.18C80.875 278.414 79.9141 277.43 78.1953 277.43C77.0312 277.43 76.0703 278.016 75.6172 278.906H75.4922C75.1016 278.031 74.3047 277.43 73.1641 277.43C72.0391 277.43 71.1953 277.969 70.8125 278.906H70.6875V277.578H69.4062V286ZM88.9062 283.82C88.5547 284.562 87.8203 284.961 86.7344 284.961C85.3047 284.961 84.375 283.906 84.3047 282.242V282.18H90.3594V281.664C90.3594 279.047 88.9766 277.43 86.7031 277.43C84.3906 277.43 82.9062 279.148 82.9062 281.797C82.9062 284.461 84.3672 286.148 86.7031 286.148C88.5469 286.148 89.8594 285.258 90.25 283.82H88.9062ZM86.6875 278.617C88.0234 278.617 88.9141 279.602 88.9453 281.094H84.3047C84.4062 279.602 85.3438 278.617 86.6875 278.617ZM92.2734 279.883C92.2734 281.102 92.9922 281.781 94.5703 282.164L96.0156 282.516C96.9141 282.734 97.3516 283.125 97.3516 283.703C97.3516 284.477 96.5391 285.016 95.4062 285.016C94.3281 285.016 93.6562 284.562 93.4297 283.852H92.0469C92.1953 285.25 93.4844 286.148 95.3594 286.148C97.2734 286.148 98.7344 285.109 98.7344 283.602C98.7344 282.391 97.9688 281.703 96.3828 281.32L95.0859 281.008C94.0938 280.766 93.625 280.406 93.625 279.828C93.625 279.078 94.4062 278.57 95.4062 278.57C96.4219 278.57 97.0781 279.016 97.2578 279.688H98.5859C98.4062 278.305 97.1797 277.43 95.4141 277.43C93.625 277.43 92.2734 278.484 92.2734 279.883ZM106.062 275.953C106.578 275.953 107 275.531 107 275.016C107 274.5 106.578 274.078 106.062 274.078C105.547 274.078 105.125 274.5 105.125 275.016C105.125 275.531 105.547 275.953 106.062 275.953ZM105.391 286H106.734V277.578H105.391V286ZM109.859 275.398V277.578H108.5V278.703H109.859V283.812C109.859 285.422 110.555 286.062 112.289 286.062C112.555 286.062 112.812 286.031 113.078 285.984V284.852C112.828 284.875 112.695 284.883 112.453 284.883C111.578 284.883 111.203 284.461 111.203 283.469V278.703H113.078V277.578H111.203V275.398H109.859ZM119.625 286H120.969V280.781C120.969 279.594 121.82 278.641 122.922 278.641C123.984 278.641 124.68 279.281 124.68 280.281V286H126.023V280.586C126.023 279.516 126.805 278.641 127.977 278.641C129.164 278.641 129.75 279.25 129.75 280.492V286H131.094V280.18C131.094 278.414 130.133 277.43 128.414 277.43C127.25 277.43 126.289 278.016 125.836 278.906H125.711C125.32 278.031 124.523 277.43 123.383 277.43C122.258 277.43 121.414 277.969 121.031 278.906H120.906V277.578H119.625V286ZM135.891 286.148C137.016 286.148 137.938 285.656 138.484 284.758H138.609V286H139.891V280.234C139.891 278.484 138.742 277.43 136.688 277.43C134.891 277.43 133.562 278.32 133.383 279.672H134.742C134.93 279.008 135.633 278.625 136.641 278.625C137.898 278.625 138.547 279.195 138.547 280.234V281L136.117 281.148C134.156 281.266 133.047 282.133 133.047 283.641C133.047 285.18 134.258 286.148 135.891 286.148ZM136.141 284.969C135.164 284.969 134.438 284.469 134.438 283.609C134.438 282.766 135 282.32 136.281 282.234L138.547 282.086V282.859C138.547 284.062 137.523 284.969 136.141 284.969ZM142.781 289.047C144.273 289.047 144.945 288.469 145.664 286.516L148.953 277.578H147.523L145.219 284.508H145.094L142.781 277.578H141.328L144.445 286.008L144.289 286.508C143.938 287.523 143.516 287.891 142.742 287.891C142.555 287.891 142.344 287.883 142.18 287.852V289C142.367 289.031 142.602 289.047 142.781 289.047ZM155.344 286H156.688V281.016C156.688 279.594 157.516 278.641 159.023 278.641C160.297 278.641 160.969 279.383 160.969 280.875V286H162.312V280.547C162.312 278.57 161.188 277.43 159.406 277.43C158.117 277.43 157.234 277.977 156.812 278.906H156.688V274.234H155.344V286ZM167.109 286.148C168.234 286.148 169.156 285.656 169.703 284.758H169.828V286H171.109V280.234C171.109 278.484 169.961 277.43 167.906 277.43C166.109 277.43 164.781 278.32 164.602 279.672H165.961C166.148 279.008 166.852 278.625 167.859 278.625C169.117 278.625 169.766 279.195 169.766 280.234V281L167.336 281.148C165.375 281.266 164.266 282.133 164.266 283.641C164.266 285.18 165.477 286.148 167.109 286.148ZM167.359 284.969C166.383 284.969 165.656 284.469 165.656 283.609C165.656 282.766 166.219 282.32 167.5 282.234L169.766 282.086V282.859C169.766 284.062 168.742 284.969 167.359 284.969ZM177.695 277.43C176.547 277.43 175.539 278.016 175 278.984H174.875V277.578H173.594V288.812H174.938V284.734H175.062C175.523 285.625 176.492 286.148 177.695 286.148C179.836 286.148 181.234 284.422 181.234 281.789C181.234 279.141 179.844 277.43 177.695 277.43ZM177.375 284.938C175.859 284.938 174.898 283.719 174.898 281.789C174.898 279.852 175.859 278.641 177.383 278.641C178.922 278.641 179.844 279.82 179.844 281.789C179.844 283.758 178.922 284.938 177.375 284.938ZM187.445 277.43C186.297 277.43 185.289 278.016 184.75 278.984H184.625V277.578H183.344V288.812H184.688V284.734H184.812C185.273 285.625 186.242 286.148 187.445 286.148C189.586 286.148 190.984 284.422 190.984 281.789C190.984 279.141 189.594 277.43 187.445 277.43ZM187.125 284.938C185.609 284.938 184.648 283.719 184.648 281.789C184.648 279.852 185.609 278.641 187.133 278.641C188.672 278.641 189.594 279.82 189.594 281.789C189.594 283.758 188.672 284.938 187.125 284.938ZM198.672 283.82C198.32 284.562 197.586 284.961 196.5 284.961C195.07 284.961 194.141 283.906 194.07 282.242V282.18H200.125V281.664C200.125 279.047 198.742 277.43 196.469 277.43C194.156 277.43 192.672 279.148 192.672 281.797C192.672 284.461 194.133 286.148 196.469 286.148C198.312 286.148 199.625 285.258 200.016 283.82H198.672ZM196.453 278.617C197.789 278.617 198.68 279.602 198.711 281.094H194.07C194.172 279.602 195.109 278.617 196.453 278.617ZM202.234 286H203.578V281.016C203.578 279.539 204.445 278.641 205.789 278.641C207.133 278.641 207.773 279.359 207.773 280.875V286H209.117V280.547C209.117 278.547 208.062 277.43 206.172 277.43C204.883 277.43 204.062 277.977 203.641 278.906H203.516V277.578H202.234V286ZM216.656 275.398V277.578H215.297V278.703H216.656V283.812C216.656 285.422 217.352 286.062 219.086 286.062C219.352 286.062 219.609 286.031 219.875 285.984V284.852C219.625 284.875 219.492 284.883 219.25 284.883C218.375 284.883 218 284.461 218 283.469V278.703H219.875V277.578H218V275.398H216.656ZM221.984 286H223.328V281.016C223.328 279.594 224.156 278.641 225.664 278.641C226.938 278.641 227.609 279.383 227.609 280.875V286H228.953V280.547C228.953 278.57 227.828 277.43 226.047 277.43C224.758 277.43 223.875 277.977 223.453 278.906H223.328V274.234H221.984V286ZM233.75 286.148C234.875 286.148 235.797 285.656 236.344 284.758H236.469V286H237.75V280.234C237.75 278.484 236.602 277.43 234.547 277.43C232.75 277.43 231.422 278.32 231.242 279.672H232.602C232.789 279.008 233.492 278.625 234.5 278.625C235.758 278.625 236.406 279.195 236.406 280.234V281L233.977 281.148C232.016 281.266 230.906 282.133 230.906 283.641C230.906 285.18 232.117 286.148 233.75 286.148ZM234 284.969C233.023 284.969 232.297 284.469 232.297 283.609C232.297 282.766 232.859 282.32 234.141 282.234L236.406 282.086V282.859C236.406 284.062 235.383 284.969 234 284.969ZM240.797 275.398V277.578H239.438V278.703H240.797V283.812C240.797 285.422 241.492 286.062 243.227 286.062C243.492 286.062 243.75 286.031 244.016 285.984V284.852C243.766 284.875 243.633 284.883 243.391 284.883C242.516 284.883 242.141 284.461 242.141 283.469V278.703H244.016V277.578H242.141V275.398H240.797ZM252.906 286.148C254.031 286.148 254.953 285.656 255.5 284.758H255.625V286H256.906V280.234C256.906 278.484 255.758 277.43 253.703 277.43C251.906 277.43 250.578 278.32 250.398 279.672H251.758C251.945 279.008 252.648 278.625 253.656 278.625C254.914 278.625 255.562 279.195 255.562 280.234V281L253.133 281.148C251.172 281.266 250.062 282.133 250.062 283.641C250.062 285.18 251.273 286.148 252.906 286.148ZM253.156 284.969C252.18 284.969 251.453 284.469 251.453 283.609C251.453 282.766 252.016 282.32 253.297 282.234L255.562 282.086V282.859C255.562 284.062 254.539 284.969 253.156 284.969ZM263.906 286H265.25V280.781C265.25 279.594 266.102 278.641 267.203 278.641C268.266 278.641 268.961 279.281 268.961 280.281V286H270.305V280.586C270.305 279.516 271.086 278.641 272.258 278.641C273.445 278.641 274.031 279.25 274.031 280.492V286H275.375V280.18C275.375 278.414 274.414 277.43 272.695 277.43C271.531 277.43 270.57 278.016 270.117 278.906H269.992C269.602 278.031 268.805 277.43 267.664 277.43C266.539 277.43 265.695 277.969 265.312 278.906H265.188V277.578H263.906V286ZM283.406 283.82C283.055 284.562 282.32 284.961 281.234 284.961C279.805 284.961 278.875 283.906 278.805 282.242V282.18H284.859V281.664C284.859 279.047 283.477 277.43 281.203 277.43C278.891 277.43 277.406 279.148 277.406 281.797C277.406 284.461 278.867 286.148 281.203 286.148C283.047 286.148 284.359 285.258 284.75 283.82H283.406ZM281.188 278.617C282.523 278.617 283.414 279.602 283.445 281.094H278.805C278.906 279.602 279.844 278.617 281.188 278.617ZM286.969 286H288.312V281.016C288.312 279.539 289.18 278.641 290.523 278.641C291.867 278.641 292.508 279.359 292.508 280.875V286H293.852V280.547C293.852 278.547 292.797 277.43 290.906 277.43C289.617 277.43 288.797 277.977 288.375 278.906H288.25V277.578H286.969V286ZM296.875 275.398V277.578H295.516V278.703H296.875V283.812C296.875 285.422 297.57 286.062 299.305 286.062C299.57 286.062 299.828 286.031 300.094 285.984V284.852C299.844 284.875 299.711 284.883 299.469 284.883C298.594 284.883 298.219 284.461 298.219 283.469V278.703H300.094V277.578H298.219V275.398H296.875ZM305.461 286.148C307.859 286.148 309.344 284.492 309.344 281.789C309.344 279.078 307.859 277.43 305.461 277.43C303.062 277.43 301.578 279.078 301.578 281.789C301.578 284.492 303.062 286.148 305.461 286.148ZM305.461 284.938C303.867 284.938 302.969 283.781 302.969 281.789C302.969 279.789 303.867 278.641 305.461 278.641C307.055 278.641 307.953 279.789 307.953 281.789C307.953 283.781 307.055 284.938 305.461 284.938ZM311.453 286H312.797V280.781C312.797 279.594 313.727 278.734 315.008 278.734C315.273 278.734 315.758 278.781 315.867 278.812V277.469C315.695 277.445 315.414 277.43 315.195 277.43C314.078 277.43 313.109 278.008 312.859 278.828H312.734V277.578H311.453V286ZM322.766 275.953C323.281 275.953 323.703 275.531 323.703 275.016C323.703 274.5 323.281 274.078 322.766 274.078C322.25 274.078 321.828 274.5 321.828 275.016C321.828 275.531 322.25 275.953 322.766 275.953ZM322.094 286H323.438V277.578H322.094V286ZM325.805 279.883C325.805 281.102 326.523 281.781 328.102 282.164L329.547 282.516C330.445 282.734 330.883 283.125 330.883 283.703C330.883 284.477 330.07 285.016 328.938 285.016C327.859 285.016 327.188 284.562 326.961 283.852H325.578C325.727 285.25 327.016 286.148 328.891 286.148C330.805 286.148 332.266 285.109 332.266 283.602C332.266 282.391 331.5 281.703 329.914 281.32L328.617 281.008C327.625 280.766 327.156 280.406 327.156 279.828C327.156 279.078 327.938 278.57 328.938 278.57C329.953 278.57 330.609 279.016 330.789 279.688H332.117C331.938 278.305 330.711 277.43 328.945 277.43C327.156 277.43 325.805 278.484 325.805 279.883ZM345.703 277.578H344.359V282.562C344.359 284.039 343.547 284.922 342.062 284.922C340.719 284.922 340.156 284.219 340.156 282.703V277.578H338.812V283.031C338.812 285.023 339.797 286.148 341.688 286.148C342.977 286.148 343.875 285.617 344.297 284.68H344.422V286H345.703V277.578ZM348.234 286H349.578V281.016C349.578 279.539 350.445 278.641 351.789 278.641C353.133 278.641 353.773 279.359 353.773 280.875V286H355.117V280.547C355.117 278.547 354.062 277.43 352.172 277.43C350.883 277.43 350.062 277.977 349.641 278.906H349.516V277.578H348.234V286ZM359.922 286.148C361.047 286.148 361.969 285.656 362.516 284.758H362.641V286H363.922V280.234C363.922 278.484 362.773 277.43 360.719 277.43C358.922 277.43 357.594 278.32 357.414 279.672H358.773C358.961 279.008 359.664 278.625 360.672 278.625C361.93 278.625 362.578 279.195 362.578 280.234V281L360.148 281.148C358.188 281.266 357.078 282.133 357.078 283.641C357.078 285.18 358.289 286.148 359.922 286.148ZM360.172 284.969C359.195 284.969 358.469 284.469 358.469 283.609C358.469 282.766 359.031 282.32 360.312 282.234L362.578 282.086V282.859C362.578 284.062 361.555 284.969 360.172 284.969ZM366.406 286H367.75V281.016C367.75 279.539 368.617 278.641 369.961 278.641C371.305 278.641 371.945 279.359 371.945 280.875V286H373.289V280.547C373.289 278.547 372.234 277.43 370.344 277.43C369.055 277.43 368.234 277.977 367.812 278.906H367.688V277.578H366.406V286ZM375.828 286H377.172V274.234H375.828V286ZM385.359 283.82C385.008 284.562 384.273 284.961 383.188 284.961C381.758 284.961 380.828 283.906 380.758 282.242V282.18H386.812V281.664C386.812 279.047 385.43 277.43 383.156 277.43C380.844 277.43 379.359 279.148 379.359 281.797C379.359 284.461 380.82 286.148 383.156 286.148C385 286.148 386.312 285.258 386.703 283.82H385.359ZM383.141 278.617C384.477 278.617 385.367 279.602 385.398 281.094H380.758C380.859 279.602 381.797 278.617 383.141 278.617ZM394 275.398V277.578H392.641V278.703H394V283.812C394 285.422 394.695 286.062 396.43 286.062C396.695 286.062 396.953 286.031 397.219 285.984V284.852C396.969 284.875 396.836 284.883 396.594 284.883C395.719 284.883 395.344 284.461 395.344 283.469V278.703H397.219V277.578H395.344V275.398H394ZM402.586 286.148C404.984 286.148 406.469 284.492 406.469 281.789C406.469 279.078 404.984 277.43 402.586 277.43C400.188 277.43 398.703 279.078 398.703 281.789C398.703 284.492 400.188 286.148 402.586 286.148ZM402.586 284.938C400.992 284.938 400.094 283.781 400.094 281.789C400.094 279.789 400.992 278.641 402.586 278.641C404.18 278.641 405.078 279.789 405.078 281.789C405.078 283.781 404.18 284.938 402.586 284.938ZM1.26562 314H2.60938V308.781C2.60938 307.594 3.46094 306.641 4.5625 306.641C5.625 306.641 6.32031 307.281 6.32031 308.281V314H7.66406V308.586C7.66406 307.516 8.44531 306.641 9.61719 306.641C10.8047 306.641 11.3906 307.25 11.3906 308.492V314H12.7344V308.18C12.7344 306.414 11.7734 305.43 10.0547 305.43C8.89062 305.43 7.92969 306.016 7.47656 306.906H7.35156C6.96094 306.031 6.16406 305.43 5.02344 305.43C3.89844 305.43 3.05469 305.969 2.67188 306.906H2.54688V305.578H1.26562V314ZM17.5312 314.148C18.6562 314.148 19.5781 313.656 20.125 312.758H20.25V314H21.5312V308.234C21.5312 306.484 20.3828 305.43 18.3281 305.43C16.5312 305.43 15.2031 306.32 15.0234 307.672H16.3828C16.5703 307.008 17.2734 306.625 18.2812 306.625C19.5391 306.625 20.1875 307.195 20.1875 308.234V309L17.7578 309.148C15.7969 309.266 14.6875 310.133 14.6875 311.641C14.6875 313.18 15.8984 314.148 17.5312 314.148ZM17.7812 312.969C16.8047 312.969 16.0781 312.469 16.0781 311.609C16.0781 310.766 16.6406 310.32 17.9219 310.234L20.1875 310.086V310.859C20.1875 312.062 19.1641 312.969 17.7812 312.969ZM24.0156 314H25.3594V309.016C25.3594 307.539 26.2266 306.641 27.5703 306.641C28.9141 306.641 29.5547 307.359 29.5547 308.875V314H30.8984V308.547C30.8984 306.547 29.8438 305.43 27.9531 305.43C26.6641 305.43 25.8438 305.977 25.4219 306.906H25.2969V305.578H24.0156V314ZM35.7031 314.148C36.8281 314.148 37.75 313.656 38.2969 312.758H38.4219V314H39.7031V308.234C39.7031 306.484 38.5547 305.43 36.5 305.43C34.7031 305.43 33.375 306.32 33.1953 307.672H34.5547C34.7422 307.008 35.4453 306.625 36.4531 306.625C37.7109 306.625 38.3594 307.195 38.3594 308.234V309L35.9297 309.148C33.9688 309.266 32.8594 310.133 32.8594 311.641C32.8594 313.18 34.0703 314.148 35.7031 314.148ZM35.9531 312.969C34.9766 312.969 34.25 312.469 34.25 311.609C34.25 310.766 34.8125 310.32 36.0938 310.234L38.3594 310.086V310.859C38.3594 312.062 37.3359 312.969 35.9531 312.969ZM45.6562 317.234C47.9531 317.234 49.4062 316.031 49.4062 314.148V305.578H48.125V306.914H48C47.5156 306.008 46.4766 305.43 45.2969 305.43C43.1328 305.43 41.7656 307.141 41.7656 309.664C41.7656 312.188 43.1172 313.875 45.2969 313.875C46.4531 313.875 47.4062 313.352 47.9375 312.422H48.0625V314.078C48.0625 315.32 47.1641 316.062 45.6562 316.062C44.4453 316.062 43.6953 315.617 43.5469 314.93H42.125C42.3281 316.32 43.625 317.234 45.6562 317.234ZM45.5938 312.688C44.0312 312.688 43.1562 311.5 43.1562 309.664C43.1562 307.828 44.0312 306.641 45.5938 306.641C47.1484 306.641 48.0938 307.828 48.0938 309.664C48.0938 311.5 47.1562 312.688 45.5938 312.688ZM57.5156 311.82C57.1641 312.562 56.4297 312.961 55.3438 312.961C53.9141 312.961 52.9844 311.906 52.9141 310.242V310.18H58.9688V309.664C58.9688 307.047 57.5859 305.43 55.3125 305.43C53 305.43 51.5156 307.148 51.5156 309.797C51.5156 312.461 52.9766 314.148 55.3125 314.148C57.1562 314.148 58.4688 313.258 58.8594 311.82H57.5156ZM55.2969 306.617C56.6328 306.617 57.5234 307.602 57.5547 309.094H52.9141C53.0156 307.602 53.9531 306.617 55.2969 306.617ZM67.9375 314.148C69.0625 314.148 69.9844 313.656 70.5312 312.758H70.6562V314H71.9375V308.234C71.9375 306.484 70.7891 305.43 68.7344 305.43C66.9375 305.43 65.6094 306.32 65.4297 307.672H66.7891C66.9766 307.008 67.6797 306.625 68.6875 306.625C69.9453 306.625 70.5938 307.195 70.5938 308.234V309L68.1641 309.148C66.2031 309.266 65.0938 310.133 65.0938 311.641C65.0938 313.18 66.3047 314.148 67.9375 314.148ZM68.1875 312.969C67.2109 312.969 66.4844 312.469 66.4844 311.609C66.4844 310.766 67.0469 310.32 68.3281 310.234L70.5938 310.086V310.859C70.5938 312.062 69.5703 312.969 68.1875 312.969ZM74.5 314H75.8438V302.234H74.5V314ZM78.5312 314H79.875V302.234H78.5312V314ZM87.5625 303.398V305.578H86.2031V306.703H87.5625V311.812C87.5625 313.422 88.2578 314.062 89.9922 314.062C90.2578 314.062 90.5156 314.031 90.7812 313.984V312.852C90.5312 312.875 90.3984 312.883 90.1562 312.883C89.2812 312.883 88.9062 312.461 88.9062 311.469V306.703H90.7812V305.578H88.9062V303.398H87.5625ZM92.8906 314H94.2344V309.016C94.2344 307.594 95.0625 306.641 96.5703 306.641C97.8438 306.641 98.5156 307.383 98.5156 308.875V314H99.8594V308.547C99.8594 306.57 98.7344 305.43 96.9531 305.43C95.6641 305.43 94.7812 305.977 94.3594 306.906H94.2344V302.234H92.8906V314ZM107.891 311.82C107.539 312.562 106.805 312.961 105.719 312.961C104.289 312.961 103.359 311.906 103.289 310.242V310.18H109.344V309.664C109.344 307.047 107.961 305.43 105.688 305.43C103.375 305.43 101.891 307.148 101.891 309.797C101.891 312.461 103.352 314.148 105.688 314.148C107.531 314.148 108.844 313.258 109.234 311.82H107.891ZM105.672 306.617C107.008 306.617 107.898 307.602 107.93 309.094H103.289C103.391 307.602 104.328 306.617 105.672 306.617ZM111.258 307.883C111.258 309.102 111.977 309.781 113.555 310.164L115 310.516C115.898 310.734 116.336 311.125 116.336 311.703C116.336 312.477 115.523 313.016 114.391 313.016C113.312 313.016 112.641 312.562 112.414 311.852H111.031C111.18 313.25 112.469 314.148 114.344 314.148C116.258 314.148 117.719 313.109 117.719 311.602C117.719 310.391 116.953 309.703 115.367 309.32L114.07 309.008C113.078 308.766 112.609 308.406 112.609 307.828C112.609 307.078 113.391 306.57 114.391 306.57C115.406 306.57 116.062 307.016 116.242 307.688H117.57C117.391 306.305 116.164 305.43 114.398 305.43C112.609 305.43 111.258 306.484 111.258 307.883ZM125.406 311.82C125.055 312.562 124.32 312.961 123.234 312.961C121.805 312.961 120.875 311.906 120.805 310.242V310.18H126.859V309.664C126.859 307.047 125.477 305.43 123.203 305.43C120.891 305.43 119.406 307.148 119.406 309.797C119.406 312.461 120.867 314.148 123.203 314.148C125.047 314.148 126.359 313.258 126.75 311.82H125.406ZM123.188 306.617C124.523 306.617 125.414 307.602 125.445 309.094H120.805C120.906 307.602 121.844 306.617 123.188 306.617ZM135.828 314.148C136.953 314.148 137.875 313.656 138.422 312.758H138.547V314H139.828V308.234C139.828 306.484 138.68 305.43 136.625 305.43C134.828 305.43 133.5 306.32 133.32 307.672H134.68C134.867 307.008 135.57 306.625 136.578 306.625C137.836 306.625 138.484 307.195 138.484 308.234V309L136.055 309.148C134.094 309.266 132.984 310.133 132.984 311.641C132.984 313.18 134.195 314.148 135.828 314.148ZM136.078 312.969C135.102 312.969 134.375 312.469 134.375 311.609C134.375 310.766 134.938 310.32 136.219 310.234L138.484 310.086V310.859C138.484 312.062 137.461 312.969 136.078 312.969ZM149.281 308.156C149.047 306.656 147.797 305.43 145.75 305.43C143.391 305.43 141.891 307.133 141.891 309.758C141.891 312.438 143.398 314.148 145.758 314.148C147.781 314.148 149.039 313.008 149.281 311.461H147.922C147.672 312.414 146.883 312.938 145.75 312.938C144.25 312.938 143.281 311.703 143.281 309.758C143.281 307.852 144.234 306.641 145.75 306.641C146.961 306.641 147.703 307.32 147.922 308.156H149.281ZM151.984 303.398V305.578H150.625V306.703H151.984V311.812C151.984 313.422 152.68 314.062 154.414 314.062C154.68 314.062 154.938 314.031 155.203 313.984V312.852C154.953 312.875 154.82 312.883 154.578 312.883C153.703 312.883 153.328 312.461 153.328 311.469V306.703H155.203V305.578H153.328V303.398H151.984ZM157.938 303.953C158.453 303.953 158.875 303.531 158.875 303.016C158.875 302.5 158.453 302.078 157.938 302.078C157.422 302.078 157 302.5 157 303.016C157 303.531 157.422 303.953 157.938 303.953ZM157.266 314H158.609V305.578H157.266V314ZM168.047 305.578H166.609L164.305 312.516H164.18L161.875 305.578H160.438L163.555 314H164.93L168.047 305.578ZM170.547 303.953C171.062 303.953 171.484 303.531 171.484 303.016C171.484 302.5 171.062 302.078 170.547 302.078C170.031 302.078 169.609 302.5 169.609 303.016C169.609 303.531 170.031 303.953 170.547 303.953ZM169.875 314H171.219V305.578H169.875V314ZM174.344 303.398V305.578H172.984V306.703H174.344V311.812C174.344 313.422 175.039 314.062 176.773 314.062C177.039 314.062 177.297 314.031 177.562 313.984V312.852C177.312 312.875 177.18 312.883 176.938 312.883C176.062 312.883 175.688 312.461 175.688 311.469V306.703H177.562V305.578H175.688V303.398H174.344ZM180.297 303.953C180.812 303.953 181.234 303.531 181.234 303.016C181.234 302.5 180.812 302.078 180.297 302.078C179.781 302.078 179.359 302.5 179.359 303.016C179.359 303.531 179.781 303.953 180.297 303.953ZM179.625 314H180.969V305.578H179.625V314ZM189.109 311.82C188.758 312.562 188.023 312.961 186.938 312.961C185.508 312.961 184.578 311.906 184.508 310.242V310.18H190.562V309.664C190.562 307.047 189.18 305.43 186.906 305.43C184.594 305.43 183.109 307.148 183.109 309.797C183.109 312.461 184.57 314.148 186.906 314.148C188.75 314.148 190.062 313.258 190.453 311.82H189.109ZM186.891 306.617C188.227 306.617 189.117 307.602 189.148 309.094H184.508C184.609 307.602 185.547 306.617 186.891 306.617ZM192.477 307.883C192.477 309.102 193.195 309.781 194.773 310.164L196.219 310.516C197.117 310.734 197.555 311.125 197.555 311.703C197.555 312.477 196.742 313.016 195.609 313.016C194.531 313.016 193.859 312.562 193.633 311.852H192.25C192.398 313.25 193.688 314.148 195.562 314.148C197.477 314.148 198.938 313.109 198.938 311.602C198.938 310.391 198.172 309.703 196.586 309.32L195.289 309.008C194.297 308.766 193.828 308.406 193.828 307.828C193.828 307.078 194.609 306.57 195.609 306.57C196.625 306.57 197.281 307.016 197.461 307.688H198.789C198.609 306.305 197.383 305.43 195.617 305.43C193.828 305.43 192.477 306.484 192.477 307.883ZM202.156 314.078C202.719 314.078 203.172 313.617 203.172 313.062C203.172 312.5 202.719 312.047 202.156 312.047C201.602 312.047 201.141 312.5 201.141 313.062C201.141 313.617 201.602 314.078 202.156 314.078ZM209.945 311.055C210.094 313 211.742 314.266 214.133 314.266C216.711 314.266 218.344 312.945 218.344 310.875C218.344 309.219 217.406 308.312 215.07 307.727L213.891 307.414C212.336 307.016 211.719 306.508 211.719 305.625C211.719 304.484 212.711 303.734 214.211 303.734C215.617 303.734 216.57 304.422 216.766 305.578H218.18C218.062 303.758 216.438 302.461 214.258 302.461C211.875 302.461 210.273 303.758 210.273 305.672C210.273 307.273 211.156 308.195 213.195 308.711L214.641 309.086C216.195 309.477 216.898 310.086 216.898 311.047C216.898 312.164 215.781 312.984 214.266 312.984C212.664 312.984 211.539 312.234 211.367 311.055H209.945ZM223.977 314.148C226.375 314.148 227.859 312.492 227.859 309.789C227.859 307.078 226.375 305.43 223.977 305.43C221.578 305.43 220.094 307.078 220.094 309.789C220.094 312.492 221.578 314.148 223.977 314.148ZM223.977 312.938C222.383 312.938 221.484 311.781 221.484 309.789C221.484 307.789 222.383 306.641 223.977 306.641C225.57 306.641 226.469 307.789 226.469 309.789C226.469 311.781 225.57 312.938 223.977 312.938ZM238.992 314V303.992H242.625V302.727H233.953V303.992H237.586V314H238.992ZM244.703 314H246.047V309.016C246.047 307.594 246.875 306.641 248.383 306.641C249.656 306.641 250.328 307.383 250.328 308.875V314H251.672V308.547C251.672 306.57 250.547 305.43 248.766 305.43C247.477 305.43 246.594 305.977 246.172 306.906H246.047V302.234H244.703V314ZM254.828 303.953C255.344 303.953 255.766 303.531 255.766 303.016C255.766 302.5 255.344 302.078 254.828 302.078C254.312 302.078 253.891 302.5 253.891 303.016C253.891 303.531 254.312 303.953 254.828 303.953ZM254.156 314H255.5V305.578H254.156V314ZM257.867 307.883C257.867 309.102 258.586 309.781 260.164 310.164L261.609 310.516C262.508 310.734 262.945 311.125 262.945 311.703C262.945 312.477 262.133 313.016 261 313.016C259.922 313.016 259.25 312.562 259.023 311.852H257.641C257.789 313.25 259.078 314.148 260.953 314.148C262.867 314.148 264.328 313.109 264.328 311.602C264.328 310.391 263.562 309.703 261.977 309.32L260.68 309.008C259.688 308.766 259.219 308.406 259.219 307.828C259.219 307.078 260 306.57 261 306.57C262.016 306.57 262.672 307.016 262.852 307.688H264.18C264 306.305 262.773 305.43 261.008 305.43C259.219 305.43 257.867 306.484 257.867 307.883ZM275.055 305.43C273.906 305.43 272.898 306.016 272.359 306.984H272.234V305.578H270.953V316.812H272.297V312.734H272.422C272.883 313.625 273.852 314.148 275.055 314.148C277.195 314.148 278.594 312.422 278.594 309.789C278.594 307.141 277.203 305.43 275.055 305.43ZM274.734 312.938C273.219 312.938 272.258 311.719 272.258 309.789C272.258 307.852 273.219 306.641 274.742 306.641C276.281 306.641 277.203 307.82 277.203 309.789C277.203 311.758 276.281 312.938 274.734 312.938ZM280.703 314H282.047V308.781C282.047 307.594 282.977 306.734 284.258 306.734C284.523 306.734 285.008 306.781 285.117 306.812V305.469C284.945 305.445 284.664 305.43 284.445 305.43C283.328 305.43 282.359 306.008 282.109 306.828H281.984V305.578H280.703V314ZM290.023 314.148C292.422 314.148 293.906 312.492 293.906 309.789C293.906 307.078 292.422 305.43 290.023 305.43C287.625 305.43 286.141 307.078 286.141 309.789C286.141 312.492 287.625 314.148 290.023 314.148ZM290.023 312.938C288.43 312.938 287.531 311.781 287.531 309.789C287.531 307.789 288.43 306.641 290.023 306.641C291.617 306.641 292.516 307.789 292.516 309.789C292.516 311.781 291.617 312.938 290.023 312.938ZM296.734 303.953C297.25 303.953 297.672 303.531 297.672 303.016C297.672 302.5 297.25 302.078 296.734 302.078C296.219 302.078 295.797 302.5 295.797 303.016C295.797 303.531 296.219 303.953 296.734 303.953ZM297.391 305.578H296.047V314.438C296.047 315.367 295.734 315.742 294.781 315.742H294.578V316.891H294.812C296.578 316.891 297.391 316.148 297.391 314.414V305.578ZM305.531 311.82C305.18 312.562 304.445 312.961 303.359 312.961C301.93 312.961 301 311.906 300.93 310.242V310.18H306.984V309.664C306.984 307.047 305.602 305.43 303.328 305.43C301.016 305.43 299.531 307.148 299.531 309.797C299.531 312.461 300.992 314.148 303.328 314.148C305.172 314.148 306.484 313.258 306.875 311.82H305.531ZM303.312 306.617C304.648 306.617 305.539 307.602 305.57 309.094H300.93C301.031 307.602 301.969 306.617 303.312 306.617ZM316.062 308.156C315.828 306.656 314.578 305.43 312.531 305.43C310.172 305.43 308.672 307.133 308.672 309.758C308.672 312.438 310.18 314.148 312.539 314.148C314.562 314.148 315.82 313.008 316.062 311.461H314.703C314.453 312.414 313.664 312.938 312.531 312.938C311.031 312.938 310.062 311.703 310.062 309.758C310.062 307.852 311.016 306.641 312.531 306.641C313.742 306.641 314.484 307.32 314.703 308.156H316.062ZM318.766 303.398V305.578H317.406V306.703H318.766V311.812C318.766 313.422 319.461 314.062 321.195 314.062C321.461 314.062 321.719 314.031 321.984 313.984V312.852C321.734 312.875 321.602 312.883 321.359 312.883C320.484 312.883 320.109 312.461 320.109 311.469V306.703H321.984V305.578H320.109V303.398H318.766ZM329.234 303.953C329.75 303.953 330.172 303.531 330.172 303.016C330.172 302.5 329.75 302.078 329.234 302.078C328.719 302.078 328.297 302.5 328.297 303.016C328.297 303.531 328.719 303.953 329.234 303.953ZM328.562 314H329.906V305.578H328.562V314ZM332.273 307.883C332.273 309.102 332.992 309.781 334.57 310.164L336.016 310.516C336.914 310.734 337.352 311.125 337.352 311.703C337.352 312.477 336.539 313.016 335.406 313.016C334.328 313.016 333.656 312.562 333.43 311.852H332.047C332.195 313.25 333.484 314.148 335.359 314.148C337.273 314.148 338.734 313.109 338.734 311.602C338.734 310.391 337.969 309.703 336.383 309.32L335.086 309.008C334.094 308.766 333.625 308.406 333.625 307.828C333.625 307.078 334.406 306.57 335.406 306.57C336.422 306.57 337.078 307.016 337.258 307.688H338.586C338.406 306.305 337.18 305.43 335.414 305.43C333.625 305.43 332.273 306.484 332.273 307.883ZM347.703 314.148C348.828 314.148 349.75 313.656 350.297 312.758H350.422V314H351.703V308.234C351.703 306.484 350.555 305.43 348.5 305.43C346.703 305.43 345.375 306.32 345.195 307.672H346.555C346.742 307.008 347.445 306.625 348.453 306.625C349.711 306.625 350.359 307.195 350.359 308.234V309L347.93 309.148C345.969 309.266 344.859 310.133 344.859 311.641C344.859 313.18 346.07 314.148 347.703 314.148ZM347.953 312.969C346.977 312.969 346.25 312.469 346.25 311.609C346.25 310.766 346.812 310.32 348.094 310.234L350.359 310.086V310.859C350.359 312.062 349.336 312.969 347.953 312.969ZM358.375 314.148C360.508 314.148 361.906 312.422 361.906 309.789C361.906 307.141 360.516 305.43 358.375 305.43C357.219 305.43 356.195 306 355.734 306.906H355.609V302.234H354.266V314H355.547V312.656H355.672C356.203 313.594 357.203 314.148 358.375 314.148ZM358.062 306.641C359.602 306.641 360.516 307.82 360.516 309.789C360.516 311.758 359.602 312.938 358.062 312.938C356.531 312.938 355.578 311.734 355.578 309.789C355.578 307.844 356.531 306.641 358.062 306.641ZM367.477 314.148C369.875 314.148 371.359 312.492 371.359 309.789C371.359 307.078 369.875 305.43 367.477 305.43C365.078 305.43 363.594 307.078 363.594 309.789C363.594 312.492 365.078 314.148 367.477 314.148ZM367.477 312.938C365.883 312.938 364.984 311.781 364.984 309.789C364.984 307.789 365.883 306.641 367.477 306.641C369.07 306.641 369.969 307.789 369.969 309.789C369.969 311.781 369.07 312.938 367.477 312.938ZM380.281 305.578H378.938V310.562C378.938 312.039 378.125 312.922 376.641 312.922C375.297 312.922 374.734 312.219 374.734 310.703V305.578H373.391V311.031C373.391 313.023 374.375 314.148 376.266 314.148C377.555 314.148 378.453 313.617 378.875 312.68H379V314H380.281V305.578ZM383.375 303.398V305.578H382.016V306.703H383.375V311.812C383.375 313.422 384.07 314.062 385.805 314.062C386.07 314.062 386.328 314.031 386.594 313.984V312.852C386.344 312.875 386.211 312.883 385.969 312.883C385.094 312.883 384.719 312.461 384.719 311.469V306.703H386.594V305.578H384.719V303.398H383.375ZM1.82812 331.398V333.578H0.46875V334.703H1.82812V339.812C1.82812 341.422 2.52344 342.062 4.25781 342.062C4.52344 342.062 4.78125 342.031 5.04688 341.984V340.852C4.79688 340.875 4.66406 340.883 4.42188 340.883C3.54688 340.883 3.17188 340.461 3.17188 339.469V334.703H5.04688V333.578H3.17188V331.398H1.82812ZM7.07812 342H8.42188V336.781C8.42188 335.594 9.35156 334.734 10.6328 334.734C10.8984 334.734 11.3828 334.781 11.4922 334.812V333.469C11.3203 333.445 11.0391 333.43 10.8203 333.43C9.70312 333.43 8.73438 334.008 8.48438 334.828H8.35938V333.578H7.07812V342ZM15.5156 342.148C16.6406 342.148 17.5625 341.656 18.1094 340.758H18.2344V342H19.5156V336.234C19.5156 334.484 18.3672 333.43 16.3125 333.43C14.5156 333.43 13.1875 334.32 13.0078 335.672H14.3672C14.5547 335.008 15.2578 334.625 16.2656 334.625C17.5234 334.625 18.1719 335.195 18.1719 336.234V337L15.7422 337.148C13.7812 337.266 12.6719 338.133 12.6719 339.641C12.6719 341.18 13.8828 342.148 15.5156 342.148ZM15.7656 340.969C14.7891 340.969 14.0625 340.469 14.0625 339.609C14.0625 338.766 14.625 338.32 15.9062 338.234L18.1719 338.086V338.859C18.1719 340.062 17.1484 340.969 15.7656 340.969ZM28.9688 336.156C28.7344 334.656 27.4844 333.43 25.4375 333.43C23.0781 333.43 21.5781 335.133 21.5781 337.758C21.5781 340.438 23.0859 342.148 25.4453 342.148C27.4688 342.148 28.7266 341.008 28.9688 339.461H27.6094C27.3594 340.414 26.5703 340.938 25.4375 340.938C23.9375 340.938 22.9688 339.703 22.9688 337.758C22.9688 335.852 23.9219 334.641 25.4375 334.641C26.6484 334.641 27.3906 335.32 27.6094 336.156H28.9688ZM32.5 337.258H32.375V330.234H31.0312V342H32.375V338.805L33.1797 338.055L36.3359 342H38.0469L34.1797 337.188L37.8047 333.578H36.1562L32.5 337.258ZM40.3438 331.953C40.8594 331.953 41.2812 331.531 41.2812 331.016C41.2812 330.5 40.8594 330.078 40.3438 330.078C39.8281 330.078 39.4062 330.5 39.4062 331.016C39.4062 331.531 39.8281 331.953 40.3438 331.953ZM39.6719 342H41.0156V333.578H39.6719V342ZM43.5781 342H44.9219V337.016C44.9219 335.539 45.7891 334.641 47.1328 334.641C48.4766 334.641 49.1172 335.359 49.1172 336.875V342H50.4609V336.547C50.4609 334.547 49.4062 333.43 47.5156 333.43C46.2266 333.43 45.4062 333.977 44.9844 334.906H44.8594V333.578H43.5781V342ZM56.3906 345.234C58.6875 345.234 60.1406 344.031 60.1406 342.148V333.578H58.8594V334.914H58.7344C58.25 334.008 57.2109 333.43 56.0312 333.43C53.8672 333.43 52.5 335.141 52.5 337.664C52.5 340.188 53.8516 341.875 56.0312 341.875C57.1875 341.875 58.1406 341.352 58.6719 340.422H58.7969V342.078C58.7969 343.32 57.8984 344.062 56.3906 344.062C55.1797 344.062 54.4297 343.617 54.2812 342.93H52.8594C53.0625 344.32 54.3594 345.234 56.3906 345.234ZM56.3281 340.688C54.7656 340.688 53.8906 339.5 53.8906 337.664C53.8906 335.828 54.7656 334.641 56.3281 334.641C57.8828 334.641 58.8281 335.828 58.8281 337.664C58.8281 339.5 57.8906 340.688 56.3281 340.688ZM67.75 331.398V333.578H66.3906V334.703H67.75V339.812C67.75 341.422 68.4453 342.062 70.1797 342.062C70.4453 342.062 70.7031 342.031 70.9688 341.984V340.852C70.7188 340.875 70.5859 340.883 70.3438 340.883C69.4688 340.883 69.0938 340.461 69.0938 339.469V334.703H70.9688V333.578H69.0938V331.398H67.75ZM73.0781 342H74.4219V337.016C74.4219 335.594 75.25 334.641 76.7578 334.641C78.0312 334.641 78.7031 335.383 78.7031 336.875V342H80.0469V336.547C80.0469 334.57 78.9219 333.43 77.1406 333.43C75.8516 333.43 74.9688 333.977 74.5469 334.906H74.4219V330.234H73.0781V342ZM88.0781 339.82C87.7266 340.562 86.9922 340.961 85.9062 340.961C84.4766 340.961 83.5469 339.906 83.4766 338.242V338.18H89.5312V337.664C89.5312 335.047 88.1484 333.43 85.875 333.43C83.5625 333.43 82.0781 335.148 82.0781 337.797C82.0781 340.461 83.5391 342.148 85.875 342.148C87.7188 342.148 89.0312 341.258 89.4219 339.82H88.0781ZM85.8594 334.617C87.1953 334.617 88.0859 335.602 88.1172 337.094H83.4766C83.5781 335.602 84.5156 334.617 85.8594 334.617ZM103.125 336.156C102.891 334.656 101.641 333.43 99.5938 333.43C97.2344 333.43 95.7344 335.133 95.7344 337.758C95.7344 340.438 97.2422 342.148 99.6016 342.148C101.625 342.148 102.883 341.008 103.125 339.461H101.766C101.516 340.414 100.727 340.938 99.5938 340.938C98.0938 340.938 97.125 339.703 97.125 337.758C97.125 335.852 98.0781 334.641 99.5938 334.641C100.805 334.641 101.547 335.32 101.766 336.156H103.125ZM108.57 342.148C110.969 342.148 112.453 340.492 112.453 337.789C112.453 335.078 110.969 333.43 108.57 333.43C106.172 333.43 104.688 335.078 104.688 337.789C104.688 340.492 106.172 342.148 108.57 342.148ZM108.57 340.938C106.977 340.938 106.078 339.781 106.078 337.789C106.078 335.789 106.977 334.641 108.57 334.641C110.164 334.641 111.062 335.789 111.062 337.789C111.062 339.781 110.164 340.938 108.57 340.938ZM114.562 342H115.906V337.016C115.906 335.539 116.773 334.641 118.117 334.641C119.461 334.641 120.102 335.359 120.102 336.875V342H121.445V336.547C121.445 334.547 120.391 333.43 118.5 333.43C117.211 333.43 116.391 333.977 115.969 334.906H115.844V333.578H114.562V342ZM124.469 331.398V333.578H123.109V334.703H124.469V339.812C124.469 341.422 125.164 342.062 126.898 342.062C127.164 342.062 127.422 342.031 127.688 341.984V340.852C127.438 340.875 127.305 340.883 127.062 340.883C126.188 340.883 125.812 340.461 125.812 339.469V334.703H127.688V333.578H125.812V331.398H124.469ZM129.719 342H131.062V336.781C131.062 335.594 131.992 334.734 133.273 334.734C133.539 334.734 134.023 334.781 134.133 334.812V333.469C133.961 333.445 133.68 333.43 133.461 333.43C132.344 333.43 131.375 334.008 131.125 334.828H131V333.578H129.719V342ZM136.516 331.953C137.031 331.953 137.453 331.531 137.453 331.016C137.453 330.5 137.031 330.078 136.516 330.078C136 330.078 135.578 330.5 135.578 331.016C135.578 331.531 136 331.953 136.516 331.953ZM135.844 342H137.188V333.578H135.844V342ZM143.938 342.148C146.07 342.148 147.469 340.422 147.469 337.789C147.469 335.141 146.078 333.43 143.938 333.43C142.781 333.43 141.758 334 141.297 334.906H141.172V330.234H139.828V342H141.109V340.656H141.234C141.766 341.594 142.766 342.148 143.938 342.148ZM143.625 334.641C145.164 334.641 146.078 335.82 146.078 337.789C146.078 339.758 145.164 340.938 143.625 340.938C142.094 340.938 141.141 339.734 141.141 337.789C141.141 335.844 142.094 334.641 143.625 334.641ZM156.391 333.578H155.047V338.562C155.047 340.039 154.234 340.922 152.75 340.922C151.406 340.922 150.844 340.219 150.844 338.703V333.578H149.5V339.031C149.5 341.023 150.484 342.148 152.375 342.148C153.664 342.148 154.562 341.617 154.984 340.68H155.109V342H156.391V333.578ZM159.484 331.398V333.578H158.125V334.703H159.484V339.812C159.484 341.422 160.18 342.062 161.914 342.062C162.18 342.062 162.438 342.031 162.703 341.984V340.852C162.453 340.875 162.32 340.883 162.078 340.883C161.203 340.883 160.828 340.461 160.828 339.469V334.703H162.703V333.578H160.828V331.398H159.484ZM168.07 342.148C170.469 342.148 171.953 340.492 171.953 337.789C171.953 335.078 170.469 333.43 168.07 333.43C165.672 333.43 164.188 335.078 164.188 337.789C164.188 340.492 165.672 342.148 168.07 342.148ZM168.07 340.938C166.477 340.938 165.578 339.781 165.578 337.789C165.578 335.789 166.477 334.641 168.07 334.641C169.664 334.641 170.562 335.789 170.562 337.789C170.562 339.781 169.664 340.938 168.07 340.938ZM174.062 342H175.406V336.781C175.406 335.594 176.336 334.734 177.617 334.734C177.883 334.734 178.367 334.781 178.477 334.812V333.469C178.305 333.445 178.023 333.43 177.805 333.43C176.688 333.43 175.719 334.008 175.469 334.828H175.344V333.578H174.062V342ZM187.016 342.148C188.141 342.148 189.062 341.656 189.609 340.758H189.734V342H191.016V336.234C191.016 334.484 189.867 333.43 187.812 333.43C186.016 333.43 184.688 334.32 184.508 335.672H185.867C186.055 335.008 186.758 334.625 187.766 334.625C189.023 334.625 189.672 335.195 189.672 336.234V337L187.242 337.148C185.281 337.266 184.172 338.133 184.172 339.641C184.172 341.18 185.383 342.148 187.016 342.148ZM187.266 340.969C186.289 340.969 185.562 340.469 185.562 339.609C185.562 338.766 186.125 338.32 187.406 338.234L189.672 338.086V338.859C189.672 340.062 188.648 340.969 187.266 340.969ZM193.305 335.883C193.305 337.102 194.023 337.781 195.602 338.164L197.047 338.516C197.945 338.734 198.383 339.125 198.383 339.703C198.383 340.477 197.57 341.016 196.438 341.016C195.359 341.016 194.688 340.562 194.461 339.852H193.078C193.227 341.25 194.516 342.148 196.391 342.148C198.305 342.148 199.766 341.109 199.766 339.602C199.766 338.391 199 337.703 197.414 337.32L196.117 337.008C195.125 336.766 194.656 336.406 194.656 335.828C194.656 335.078 195.438 334.57 196.438 334.57C197.453 334.57 198.109 335.016 198.289 335.688H199.617C199.438 334.305 198.211 333.43 196.445 333.43C194.656 333.43 193.305 334.484 193.305 335.883ZM216.984 333.578H215.633L213.977 340.312H213.852L211.969 333.578H210.68L208.797 340.312H208.672L207.016 333.578H205.656L208.016 342H209.375L211.25 335.484H211.375L213.258 342H214.625L216.984 333.578ZM224.047 339.82C223.695 340.562 222.961 340.961 221.875 340.961C220.445 340.961 219.516 339.906 219.445 338.242V338.18H225.5V337.664C225.5 335.047 224.117 333.43 221.844 333.43C219.531 333.43 218.047 335.148 218.047 337.797C218.047 340.461 219.508 342.148 221.844 342.148C223.688 342.148 225 341.258 225.391 339.82H224.047ZM221.828 334.617C223.164 334.617 224.055 335.602 224.086 337.094H219.445C219.547 335.602 220.484 334.617 221.828 334.617ZM227.688 342H229.031V330.234H227.688V342ZM231.719 342H233.062V330.234H231.719V342ZM242.531 342.148C243.656 342.148 244.578 341.656 245.125 340.758H245.25V342H246.531V336.234C246.531 334.484 245.383 333.43 243.328 333.43C241.531 333.43 240.203 334.32 240.023 335.672H241.383C241.57 335.008 242.273 334.625 243.281 334.625C244.539 334.625 245.188 335.195 245.188 336.234V337L242.758 337.148C240.797 337.266 239.688 338.133 239.688 339.641C239.688 341.18 240.898 342.148 242.531 342.148ZM242.781 340.969C241.805 340.969 241.078 340.469 241.078 339.609C241.078 338.766 241.641 338.32 242.922 338.234L245.188 338.086V338.859C245.188 340.062 244.164 340.969 242.781 340.969ZM248.82 335.883C248.82 337.102 249.539 337.781 251.117 338.164L252.562 338.516C253.461 338.734 253.898 339.125 253.898 339.703C253.898 340.477 253.086 341.016 251.953 341.016C250.875 341.016 250.203 340.562 249.977 339.852H248.594C248.742 341.25 250.031 342.148 251.906 342.148C253.82 342.148 255.281 341.109 255.281 339.602C255.281 338.391 254.516 337.703 252.93 337.32L251.633 337.008C250.641 336.766 250.172 336.406 250.172 335.828C250.172 335.078 250.953 334.57 251.953 334.57C252.969 334.57 253.625 335.016 253.805 335.688H255.133C254.953 334.305 253.727 333.43 251.961 333.43C250.172 333.43 248.82 334.484 248.82 335.883ZM262.609 331.953C263.125 331.953 263.547 331.531 263.547 331.016C263.547 330.5 263.125 330.078 262.609 330.078C262.094 330.078 261.672 330.5 261.672 331.016C261.672 331.531 262.094 331.953 262.609 331.953ZM261.938 342H263.281V333.578H261.938V342ZM266.406 331.398V333.578H265.047V334.703H266.406V339.812C266.406 341.422 267.102 342.062 268.836 342.062C269.102 342.062 269.359 342.031 269.625 341.984V340.852C269.375 340.875 269.242 340.883 269 340.883C268.125 340.883 267.75 340.461 267.75 339.469V334.703H269.625V333.578H267.75V331.398H266.406ZM271.305 335.883C271.305 337.102 272.023 337.781 273.602 338.164L275.047 338.516C275.945 338.734 276.383 339.125 276.383 339.703C276.383 340.477 275.57 341.016 274.438 341.016C273.359 341.016 272.688 340.562 272.461 339.852H271.078C271.227 341.25 272.516 342.148 274.391 342.148C276.305 342.148 277.766 341.109 277.766 339.602C277.766 338.391 277 337.703 275.414 337.32L274.117 337.008C273.125 336.766 272.656 336.406 272.656 335.828C272.656 335.078 273.438 334.57 274.438 334.57C275.453 334.57 276.109 335.016 276.289 335.688H277.617C277.438 334.305 276.211 333.43 274.445 333.43C272.656 333.43 271.305 334.484 271.305 335.883ZM291.359 336.156C291.125 334.656 289.875 333.43 287.828 333.43C285.469 333.43 283.969 335.133 283.969 337.758C283.969 340.438 285.477 342.148 287.836 342.148C289.859 342.148 291.117 341.008 291.359 339.461H290C289.75 340.414 288.961 340.938 287.828 340.938C286.328 340.938 285.359 339.703 285.359 337.758C285.359 335.852 286.312 334.641 287.828 334.641C289.039 334.641 289.781 335.32 290 336.156H291.359ZM296.805 342.148C299.203 342.148 300.688 340.492 300.688 337.789C300.688 335.078 299.203 333.43 296.805 333.43C294.406 333.43 292.922 335.078 292.922 337.789C292.922 340.492 294.406 342.148 296.805 342.148ZM296.805 340.938C295.211 340.938 294.312 339.781 294.312 337.789C294.312 335.789 295.211 334.641 296.805 334.641C298.398 334.641 299.297 335.789 299.297 337.789C299.297 339.781 298.398 340.938 296.805 340.938ZM302.797 342H304.141V337.016C304.141 335.539 305.008 334.641 306.352 334.641C307.695 334.641 308.336 335.359 308.336 336.875V342H309.68V336.547C309.68 334.547 308.625 333.43 306.734 333.43C305.445 333.43 304.625 333.977 304.203 334.906H304.078V333.578H302.797V342ZM312.703 331.398V333.578H311.344V334.703H312.703V339.812C312.703 341.422 313.398 342.062 315.133 342.062C315.398 342.062 315.656 342.031 315.922 341.984V340.852C315.672 340.875 315.539 340.883 315.297 340.883C314.422 340.883 314.047 340.461 314.047 339.469V334.703H315.922V333.578H314.047V331.398H312.703ZM317.953 342H319.297V336.781C319.297 335.594 320.227 334.734 321.508 334.734C321.773 334.734 322.258 334.781 322.367 334.812V333.469C322.195 333.445 321.914 333.43 321.695 333.43C320.578 333.43 319.609 334.008 319.359 334.828H319.234V333.578H317.953V342ZM324.75 331.953C325.266 331.953 325.688 331.531 325.688 331.016C325.688 330.5 325.266 330.078 324.75 330.078C324.234 330.078 323.812 330.5 323.812 331.016C323.812 331.531 324.234 331.953 324.75 331.953ZM324.078 342H325.422V333.578H324.078V342ZM332.172 342.148C334.305 342.148 335.703 340.422 335.703 337.789C335.703 335.141 334.312 333.43 332.172 333.43C331.016 333.43 329.992 334 329.531 334.906H329.406V330.234H328.062V342H329.344V340.656H329.469C330 341.594 331 342.148 332.172 342.148ZM331.859 334.641C333.398 334.641 334.312 335.82 334.312 337.789C334.312 339.758 333.398 340.938 331.859 340.938C330.328 340.938 329.375 339.734 329.375 337.789C329.375 335.844 330.328 334.641 331.859 334.641ZM344.625 333.578H343.281V338.562C343.281 340.039 342.469 340.922 340.984 340.922C339.641 340.922 339.078 340.219 339.078 338.703V333.578H337.734V339.031C337.734 341.023 338.719 342.148 340.609 342.148C341.898 342.148 342.797 341.617 343.219 340.68H343.344V342H344.625V333.578ZM347.719 331.398V333.578H346.359V334.703H347.719V339.812C347.719 341.422 348.414 342.062 350.148 342.062C350.414 342.062 350.672 342.031 350.938 341.984V340.852C350.688 340.875 350.555 340.883 350.312 340.883C349.438 340.883 349.062 340.461 349.062 339.469V334.703H350.938V333.578H349.062V331.398H347.719ZM353.672 331.953C354.188 331.953 354.609 331.531 354.609 331.016C354.609 330.5 354.188 330.078 353.672 330.078C353.156 330.078 352.734 330.5 352.734 331.016C352.734 331.531 353.156 331.953 353.672 331.953ZM353 342H354.344V333.578H353V342ZM360.367 342.148C362.766 342.148 364.25 340.492 364.25 337.789C364.25 335.078 362.766 333.43 360.367 333.43C357.969 333.43 356.484 335.078 356.484 337.789C356.484 340.492 357.969 342.148 360.367 342.148ZM360.367 340.938C358.773 340.938 357.875 339.781 357.875 337.789C357.875 335.789 358.773 334.641 360.367 334.641C361.961 334.641 362.859 335.789 362.859 337.789C362.859 339.781 361.961 340.938 360.367 340.938ZM366.359 342H367.703V337.016C367.703 335.539 368.57 334.641 369.914 334.641C371.258 334.641 371.898 335.359 371.898 336.875V342H373.242V336.547C373.242 334.547 372.188 333.43 370.297 333.43C369.008 333.43 368.188 333.977 367.766 334.906H367.641V333.578H366.359V342ZM384.406 342.148C386.539 342.148 387.938 340.422 387.938 337.789C387.938 335.141 386.547 333.43 384.406 333.43C383.25 333.43 382.227 334 381.766 334.906H381.641V330.234H380.297V342H381.578V340.656H381.703C382.234 341.594 383.234 342.148 384.406 342.148ZM384.094 334.641C385.633 334.641 386.547 335.82 386.547 337.789C386.547 339.758 385.633 340.938 384.094 340.938C382.562 340.938 381.609 339.734 381.609 337.789C381.609 335.844 382.562 334.641 384.094 334.641ZM390.453 345.047C391.945 345.047 392.617 344.469 393.336 342.516L396.625 333.578H395.195L392.891 340.508H392.766L390.453 333.578H389L392.117 342.008L391.961 342.508C391.609 343.523 391.188 343.891 390.414 343.891C390.227 343.891 390.016 343.883 389.852 343.852V345C390.039 345.031 390.273 345.047 390.453 345.047ZM1.26562 370H2.60938V364.781C2.60938 363.594 3.53906 362.734 4.82031 362.734C5.08594 362.734 5.57031 362.781 5.67969 362.812V361.469C5.50781 361.445 5.22656 361.43 5.00781 361.43C3.89062 361.43 2.92188 362.008 2.67188 362.828H2.54688V361.578H1.26562V370ZM12.7031 367.82C12.3516 368.562 11.6172 368.961 10.5312 368.961C9.10156 368.961 8.17188 367.906 8.10156 366.242V366.18H14.1562V365.664C14.1562 363.047 12.7734 361.43 10.5 361.43C8.1875 361.43 6.70312 363.148 6.70312 365.797C6.70312 368.461 8.16406 370.148 10.5 370.148C12.3438 370.148 13.6562 369.258 14.0469 367.82H12.7031ZM10.4844 362.617C11.8203 362.617 12.7109 363.602 12.7422 365.094H8.10156C8.20312 363.602 9.14062 362.617 10.4844 362.617ZM16.0703 363.883C16.0703 365.102 16.7891 365.781 18.3672 366.164L19.8125 366.516C20.7109 366.734 21.1484 367.125 21.1484 367.703C21.1484 368.477 20.3359 369.016 19.2031 369.016C18.125 369.016 17.4531 368.562 17.2266 367.852H15.8438C15.9922 369.25 17.2812 370.148 19.1562 370.148C21.0703 370.148 22.5312 369.109 22.5312 367.602C22.5312 366.391 21.7656 365.703 20.1797 365.32L18.8828 365.008C17.8906 364.766 17.4219 364.406 17.4219 363.828C17.4219 363.078 18.2031 362.57 19.2031 362.57C20.2188 362.57 20.875 363.016 21.0547 363.688H22.3828C22.2031 362.305 20.9766 361.43 19.2109 361.43C17.4219 361.43 16.0703 362.484 16.0703 363.883ZM28.7422 361.43C27.5938 361.43 26.5859 362.016 26.0469 362.984H25.9219V361.578H24.6406V372.812H25.9844V368.734H26.1094C26.5703 369.625 27.5391 370.148 28.7422 370.148C30.8828 370.148 32.2812 368.422 32.2812 365.789C32.2812 363.141 30.8906 361.43 28.7422 361.43ZM28.4219 368.938C26.9062 368.938 25.9453 367.719 25.9453 365.789C25.9453 363.852 26.9062 362.641 28.4297 362.641C29.9688 362.641 30.8906 363.82 30.8906 365.789C30.8906 367.758 29.9688 368.938 28.4219 368.938ZM39.9688 367.82C39.6172 368.562 38.8828 368.961 37.7969 368.961C36.3672 368.961 35.4375 367.906 35.3672 366.242V366.18H41.4219V365.664C41.4219 363.047 40.0391 361.43 37.7656 361.43C35.4531 361.43 33.9688 363.148 33.9688 365.797C33.9688 368.461 35.4297 370.148 37.7656 370.148C39.6094 370.148 40.9219 369.258 41.3125 367.82H39.9688ZM37.75 362.617C39.0859 362.617 39.9766 363.602 40.0078 365.094H35.3672C35.4688 363.602 36.4062 362.617 37.75 362.617ZM50.5 364.156C50.2656 362.656 49.0156 361.43 46.9688 361.43C44.6094 361.43 43.1094 363.133 43.1094 365.758C43.1094 368.438 44.6172 370.148 46.9766 370.148C49 370.148 50.2578 369.008 50.5 367.461H49.1406C48.8906 368.414 48.1016 368.938 46.9688 368.938C45.4688 368.938 44.5 367.703 44.5 365.758C44.5 363.852 45.4531 362.641 46.9688 362.641C48.1797 362.641 48.9219 363.32 49.1406 364.156H50.5ZM53.2031 359.398V361.578H51.8438V362.703H53.2031V367.812C53.2031 369.422 53.8984 370.062 55.6328 370.062C55.8984 370.062 56.1562 370.031 56.4219 369.984V368.852C56.1719 368.875 56.0391 368.883 55.7969 368.883C54.9219 368.883 54.5469 368.461 54.5469 367.469V362.703H56.4219V361.578H54.5469V359.398H53.2031ZM59.1562 359.953C59.6719 359.953 60.0938 359.531 60.0938 359.016C60.0938 358.5 59.6719 358.078 59.1562 358.078C58.6406 358.078 58.2188 358.5 58.2188 359.016C58.2188 359.531 58.6406 359.953 59.1562 359.953ZM58.4844 370H59.8281V361.578H58.4844V370ZM69.2656 361.578H67.8281L65.5234 368.516H65.3984L63.0938 361.578H61.6562L64.7734 370H66.1484L69.2656 361.578ZM76.3281 367.82C75.9766 368.562 75.2422 368.961 74.1562 368.961C72.7266 368.961 71.7969 367.906 71.7266 366.242V366.18H77.7812V365.664C77.7812 363.047 76.3984 361.43 74.125 361.43C71.8125 361.43 70.3281 363.148 70.3281 365.797C70.3281 368.461 71.7891 370.148 74.125 370.148C75.9688 370.148 77.2812 369.258 77.6719 367.82H76.3281ZM74.1094 362.617C75.4453 362.617 76.3359 363.602 76.3672 365.094H71.7266C71.8281 363.602 72.7656 362.617 74.1094 362.617ZM84.4062 370H85.75V364.781C85.75 363.594 86.6016 362.641 87.7031 362.641C88.7656 362.641 89.4609 363.281 89.4609 364.281V370H90.8047V364.586C90.8047 363.516 91.5859 362.641 92.7578 362.641C93.9453 362.641 94.5312 363.25 94.5312 364.492V370H95.875V364.18C95.875 362.414 94.9141 361.43 93.1953 361.43C92.0312 361.43 91.0703 362.016 90.6172 362.906H90.4922C90.1016 362.031 89.3047 361.43 88.1641 361.43C87.0391 361.43 86.1953 361.969 85.8125 362.906H85.6875V361.578H84.4062V370ZM103.906 367.82C103.555 368.562 102.82 368.961 101.734 368.961C100.305 368.961 99.375 367.906 99.3047 366.242V366.18H105.359V365.664C105.359 363.047 103.977 361.43 101.703 361.43C99.3906 361.43 97.9062 363.148 97.9062 365.797C97.9062 368.461 99.3672 370.148 101.703 370.148C103.547 370.148 104.859 369.258 105.25 367.82H103.906ZM101.688 362.617C103.023 362.617 103.914 363.602 103.945 365.094H99.3047C99.4062 363.602 100.344 362.617 101.688 362.617ZM107.469 370H108.812V365.016C108.812 363.539 109.68 362.641 111.023 362.641C112.367 362.641 113.008 363.359 113.008 364.875V370H114.352V364.547C114.352 362.547 113.297 361.43 111.406 361.43C110.117 361.43 109.297 361.977 108.875 362.906H108.75V361.578H107.469V370ZM117.375 359.398V361.578H116.016V362.703H117.375V367.812C117.375 369.422 118.07 370.062 119.805 370.062C120.07 370.062 120.328 370.031 120.594 369.984V368.852C120.344 368.875 120.211 368.883 119.969 368.883C119.094 368.883 118.719 368.461 118.719 367.469V362.703H120.594V361.578H118.719V359.398H117.375ZM125.961 370.148C128.359 370.148 129.844 368.492 129.844 365.789C129.844 363.078 128.359 361.43 125.961 361.43C123.562 361.43 122.078 363.078 122.078 365.789C122.078 368.492 123.562 370.148 125.961 370.148ZM125.961 368.938C124.367 368.938 123.469 367.781 123.469 365.789C123.469 363.789 124.367 362.641 125.961 362.641C127.555 362.641 128.453 363.789 128.453 365.789C128.453 367.781 127.555 368.938 125.961 368.938ZM131.953 370H133.297V364.781C133.297 363.594 134.227 362.734 135.508 362.734C135.773 362.734 136.258 362.781 136.367 362.812V361.469C136.195 361.445 135.914 361.43 135.695 361.43C134.578 361.43 133.609 362.008 133.359 362.828H133.234V361.578H131.953V370ZM137.695 363.883C137.695 365.102 138.414 365.781 139.992 366.164L141.438 366.516C142.336 366.734 142.773 367.125 142.773 367.703C142.773 368.477 141.961 369.016 140.828 369.016C139.75 369.016 139.078 368.562 138.852 367.852H137.469C137.617 369.25 138.906 370.148 140.781 370.148C142.695 370.148 144.156 369.109 144.156 367.602C144.156 366.391 143.391 365.703 141.805 365.32L140.508 365.008C139.516 364.766 139.047 364.406 139.047 363.828C139.047 363.078 139.828 362.57 140.828 362.57C141.844 362.57 142.5 363.016 142.68 363.688H144.008C143.828 362.305 142.602 361.43 140.836 361.43C139.047 361.43 137.695 362.484 137.695 363.883ZM147.375 370.078C147.938 370.078 148.391 369.617 148.391 369.062C148.391 368.5 147.938 368.047 147.375 368.047C146.82 368.047 146.359 368.5 146.359 369.062C146.359 369.617 146.82 370.078 147.375 370.078Z" fill="#76777A"/>
    <path d="M4.72656 487.148C7.125 487.148 8.60938 485.492 8.60938 482.789C8.60938 480.078 7.125 478.43 4.72656 478.43C2.32812 478.43 0.84375 480.078 0.84375 482.789C0.84375 485.492 2.32812 487.148 4.72656 487.148ZM4.72656 485.938C3.13281 485.938 2.23438 484.781 2.23438 482.789C2.23438 480.789 3.13281 479.641 4.72656 479.641C6.32031 479.641 7.21875 480.789 7.21875 482.789C7.21875 484.781 6.32031 485.938 4.72656 485.938ZM10.7188 487H12.0625V481.781C12.0625 480.594 12.9922 479.734 14.2734 479.734C14.5391 479.734 15.0234 479.781 15.1328 479.812V478.469C14.9609 478.445 14.6797 478.43 14.4609 478.43C13.3438 478.43 12.375 479.008 12.125 479.828H12V478.578H10.7188V487ZM20.9609 484.055C21.1094 486 22.7578 487.266 25.1484 487.266C27.7266 487.266 29.3594 485.945 29.3594 483.875C29.3594 482.219 28.4219 481.312 26.0859 480.727L24.9062 480.414C23.3516 480.016 22.7344 479.508 22.7344 478.625C22.7344 477.484 23.7266 476.734 25.2266 476.734C26.6328 476.734 27.5859 477.422 27.7812 478.578H29.1953C29.0781 476.758 27.4531 475.461 25.2734 475.461C22.8906 475.461 21.2891 476.758 21.2891 478.672C21.2891 480.273 22.1719 481.195 24.2109 481.711L25.6562 482.086C27.2109 482.477 27.9141 483.086 27.9141 484.047C27.9141 485.164 26.7969 485.984 25.2812 485.984C23.6797 485.984 22.5547 485.234 22.3828 484.055H20.9609ZM32.2344 476.953C32.75 476.953 33.1719 476.531 33.1719 476.016C33.1719 475.5 32.75 475.078 32.2344 475.078C31.7188 475.078 31.2969 475.5 31.2969 476.016C31.2969 476.531 31.7188 476.953 32.2344 476.953ZM31.5625 487H32.9062V478.578H31.5625V487ZM38.9375 490.234C41.2344 490.234 42.6875 489.031 42.6875 487.148V478.578H41.4062V479.914H41.2812C40.7969 479.008 39.7578 478.43 38.5781 478.43C36.4141 478.43 35.0469 480.141 35.0469 482.664C35.0469 485.188 36.3984 486.875 38.5781 486.875C39.7344 486.875 40.6875 486.352 41.2188 485.422H41.3438V487.078C41.3438 488.32 40.4453 489.062 38.9375 489.062C37.7266 489.062 36.9766 488.617 36.8281 487.93H35.4062C35.6094 489.32 36.9062 490.234 38.9375 490.234ZM38.875 485.688C37.3125 485.688 36.4375 484.5 36.4375 482.664C36.4375 480.828 37.3125 479.641 38.875 479.641C40.4297 479.641 41.375 480.828 41.375 482.664C41.375 484.5 40.4375 485.688 38.875 485.688ZM45.2188 487H46.5625V482.016C46.5625 480.539 47.4297 479.641 48.7734 479.641C50.1172 479.641 50.7578 480.359 50.7578 481.875V487H52.1016V481.547C52.1016 479.547 51.0469 478.43 49.1562 478.43C47.8672 478.43 47.0469 478.977 46.625 479.906H46.5V478.578H45.2188V487ZM61.375 478.578H60.0312V483.562C60.0312 485.039 59.2188 485.922 57.7344 485.922C56.3906 485.922 55.8281 485.219 55.8281 483.703V478.578H54.4844V484.031C54.4844 486.023 55.4688 487.148 57.3594 487.148C58.6484 487.148 59.5469 486.617 59.9688 485.68H60.0938V487H61.375V478.578ZM68.0078 478.43C66.8594 478.43 65.8516 479.016 65.3125 479.984H65.1875V478.578H63.9062V489.812H65.25V485.734H65.375C65.8359 486.625 66.8047 487.148 68.0078 487.148C70.1484 487.148 71.5469 485.422 71.5469 482.789C71.5469 480.141 70.1562 478.43 68.0078 478.43ZM67.6875 485.938C66.1719 485.938 65.2109 484.719 65.2109 482.789C65.2109 480.852 66.1719 479.641 67.6953 479.641C69.2344 479.641 70.1562 480.82 70.1562 482.789C70.1562 484.758 69.2344 485.938 67.6875 485.938ZM88.7656 478.578H87.4141L85.7578 485.312H85.6328L83.75 478.578H82.4609L80.5781 485.312H80.4531L78.7969 478.578H77.4375L79.7969 487H81.1562L83.0312 480.484H83.1562L85.0391 487H86.4062L88.7656 478.578ZM91.2656 476.953C91.7812 476.953 92.2031 476.531 92.2031 476.016C92.2031 475.5 91.7812 475.078 91.2656 475.078C90.75 475.078 90.3281 475.5 90.3281 476.016C90.3281 476.531 90.75 476.953 91.2656 476.953ZM90.5938 487H91.9375V478.578H90.5938V487ZM95.0625 476.398V478.578H93.7031V479.703H95.0625V484.812C95.0625 486.422 95.7578 487.062 97.4922 487.062C97.7578 487.062 98.0156 487.031 98.2812 486.984V485.852C98.0312 485.875 97.8984 485.883 97.6562 485.883C96.7812 485.883 96.4062 485.461 96.4062 484.469V479.703H98.2812V478.578H96.4062V476.398H95.0625ZM100.391 487H101.734V482.016C101.734 480.594 102.562 479.641 104.07 479.641C105.344 479.641 106.016 480.383 106.016 481.875V487H107.359V481.547C107.359 479.57 106.234 478.43 104.453 478.43C103.164 478.43 102.281 478.977 101.859 479.906H101.734V475.234H100.391V487ZM121.484 485.734H115.906V481.859H121.195V480.609H115.906V476.992H121.484V475.727H114.5V487H121.484V485.734ZM123.859 487H125.203V481.781C125.203 480.594 126.055 479.641 127.156 479.641C128.219 479.641 128.914 480.281 128.914 481.281V487H130.258V481.586C130.258 480.516 131.039 479.641 132.211 479.641C133.398 479.641 133.984 480.25 133.984 481.492V487H135.328V481.18C135.328 479.414 134.367 478.43 132.648 478.43C131.484 478.43 130.523 479.016 130.07 479.906H129.945C129.555 479.031 128.758 478.43 127.617 478.43C126.492 478.43 125.648 478.969 125.266 479.906H125.141V478.578H123.859V487ZM140.125 487.148C141.25 487.148 142.172 486.656 142.719 485.758H142.844V487H144.125V481.234C144.125 479.484 142.977 478.43 140.922 478.43C139.125 478.43 137.797 479.32 137.617 480.672H138.977C139.164 480.008 139.867 479.625 140.875 479.625C142.133 479.625 142.781 480.195 142.781 481.234V482L140.352 482.148C138.391 482.266 137.281 483.133 137.281 484.641C137.281 486.18 138.492 487.148 140.125 487.148ZM140.375 485.969C139.398 485.969 138.672 485.469 138.672 484.609C138.672 483.766 139.234 483.32 140.516 483.234L142.781 483.086V483.859C142.781 485.062 141.758 485.969 140.375 485.969ZM147.312 476.953C147.828 476.953 148.25 476.531 148.25 476.016C148.25 475.5 147.828 475.078 147.312 475.078C146.797 475.078 146.375 475.5 146.375 476.016C146.375 476.531 146.797 476.953 147.312 476.953ZM146.641 487H147.984V478.578H146.641V487ZM150.625 487H151.969V475.234H150.625V487Z" fill="#3F8CFF"/>
    <path d="M0 489.891H153.312V490.828H0V489.891Z" fill="#3F8CFF"/>
    </svg>
    