<svg width="623" height="623" viewBox="0 0 623 623" fill="none" xmlns="http://www.w3.org/2000/svg">
<path d="M623 476.47H0V476.782H623V476.47Z" fill="#EBEBEB"/>
<path d="M560.575 496.519H519.308V496.83H560.575V496.519Z" fill="#EBEBEB"/>
<path d="M375.594 496.681H364.767V496.992H375.594V496.681Z" fill="#EBEBEB"/>
<path d="M518.049 484.956H441.495V485.267H518.049V484.956Z" fill="#EBEBEB"/>
<path d="M280.524 492.307H264.713V492.619H280.524V492.307Z" fill="#EBEBEB"/>
<path d="M253.623 492.307H207.733V492.619H253.623V492.307Z" fill="#EBEBEB"/>
<path d="M97.051 487.049H65.3652V487.36H97.051V487.049Z" fill="#EBEBEB"/>
<path d="M197.84 487.049H104.527V487.36H197.84V487.049Z" fill="#EBEBEB"/>
<path d="M295.302 420.899H54.7118C52.8271 420.896 51.0206 420.144 49.689 418.811C48.3575 417.477 47.6096 415.669 47.6096 413.784V75.5824C47.626 73.7084 48.3811 71.9166 49.7109 70.5961C51.0407 69.2757 52.8378 68.5332 54.7118 68.53H295.302C297.189 68.53 298.999 69.2796 300.333 70.6138C301.667 71.9481 302.417 73.7577 302.417 75.6447V413.784C302.417 415.671 301.667 417.481 300.333 418.815C298.999 420.149 297.189 420.899 295.302 420.899ZM54.7118 68.7792C52.9097 68.7825 51.1825 69.5007 49.9093 70.7762C48.6362 72.0517 47.9211 73.7802 47.9211 75.5824V413.784C47.9211 415.586 48.6362 417.315 49.9093 418.59C51.1825 419.866 52.9097 420.584 54.7118 420.587H295.302C297.105 420.584 298.834 419.866 300.109 418.591C301.384 417.316 302.102 415.587 302.105 413.784V75.5824C302.102 73.7791 301.384 72.0506 300.109 70.7754C298.834 69.5003 297.105 68.7825 295.302 68.7792H54.7118Z" fill="#EBEBEB"/>
<path d="M564.824 420.899H324.222C322.336 420.896 320.528 420.145 319.194 418.811C317.861 417.478 317.11 415.67 317.107 413.784V75.5824C317.127 73.7073 317.884 71.9155 319.216 70.5954C320.548 69.2752 322.346 68.5332 324.222 68.53H564.824C566.696 68.5365 568.49 69.2804 569.817 70.6005C571.144 71.9206 571.898 73.7106 571.914 75.5824V413.784C571.914 415.667 571.168 417.473 569.839 418.806C568.51 420.14 566.707 420.892 564.824 420.899ZM324.222 68.7792C322.418 68.7825 320.69 69.5003 319.415 70.7754C318.14 72.0506 317.422 73.7791 317.418 75.5824V413.784C317.422 415.587 318.14 417.316 319.415 418.591C320.69 419.866 322.418 420.584 324.222 420.587H564.824C566.627 420.584 568.356 419.866 569.631 418.591C570.906 417.316 571.624 415.587 571.627 413.784V75.5824C571.624 73.7791 570.906 72.0506 569.631 70.7754C568.356 69.5003 566.627 68.7825 564.824 68.7792H324.222Z" fill="#EBEBEB"/>
<path d="M89.8866 342.924H258.969L258.969 106.458L89.8866 106.458L89.8866 342.924Z" fill="#E6E6E6"/>
<path d="M86.136 342.924H255.218L255.218 106.458L86.136 106.458L86.136 342.924Z" fill="#F5F5F5"/>
<path d="M248.465 335.348V114.034L92.8768 114.034V335.348H248.465Z" fill="white"/>
<path d="M95.7178 335.348L95.7178 114.034H92.8769L92.8769 335.348H95.7178Z" fill="#E6E6E6"/>
<path d="M88.9271 198.376L252.427 198.376V188.208L88.9271 188.208V198.376Z" fill="#F5F5F5"/>
<path d="M78.7722 93.911H266.32C266.596 93.9143 266.859 94.026 267.052 94.2219C267.246 94.4179 267.354 94.6822 267.354 94.9576C267.354 95.2319 267.245 95.495 267.051 95.6889C266.857 95.8829 266.594 95.9918 266.32 95.9918H78.7722C78.4979 95.9918 78.2349 95.8829 78.0409 95.6889C77.847 95.495 77.738 95.2319 77.738 94.9576C77.738 94.6822 77.8466 94.4179 78.0402 94.2219C78.2338 94.026 78.4968 93.9143 78.7722 93.911Z" fill="#E6E6E6"/>
<path d="M72.5422 94.9577C72.5521 95.9831 72.8651 96.9827 73.442 97.8306C74.0189 98.6785 74.8338 99.3367 75.784 99.7223C76.7342 100.108 77.7773 100.204 78.7819 99.9977C79.7865 99.7916 80.7076 99.2928 81.4293 98.5643C82.151 97.8357 82.6409 96.9098 82.8374 95.9033C83.0339 94.8968 82.9281 93.8546 82.5334 92.9081C82.1387 91.9616 81.4728 91.1531 80.6194 90.5843C79.7661 90.0156 78.7636 89.7121 77.7381 89.712C77.0515 89.712 76.3718 89.848 75.7381 90.1122C75.1045 90.3765 74.5295 90.7636 74.0463 91.2514C73.5632 91.7392 73.1815 92.3179 72.9233 92.954C72.6652 93.5902 72.5356 94.2712 72.5422 94.9577Z" fill="#E6E6E6"/>
<path d="M257.561 100.776C257.933 100.773 258.289 100.624 258.553 100.36C258.816 100.097 258.965 99.7409 258.969 99.3685V96.3532C258.965 95.9819 258.815 95.627 258.552 95.3657C258.288 95.1043 257.932 94.9577 257.561 94.9577C257.19 94.9577 256.835 95.1047 256.574 95.3664C256.312 95.6281 256.165 95.9831 256.165 96.3532V99.3685C256.165 99.7398 256.312 100.096 256.573 100.36C256.834 100.623 257.189 100.773 257.561 100.776Z" fill="#E6E6E6"/>
<path d="M94.4343 100.776C94.8067 100.773 95.163 100.624 95.4263 100.36C95.6897 100.097 95.8391 99.7409 95.8423 99.3685V96.3532C95.839 95.9819 95.6892 95.627 95.4255 95.3657C95.1619 95.1043 94.8056 94.9577 94.4343 94.9577C94.0642 94.9577 93.7093 95.1047 93.4476 95.3664C93.1858 95.6281 93.0388 95.9831 93.0388 96.3532V99.3685C93.0388 99.7398 93.1854 100.096 93.4468 100.36C93.7082 100.623 94.0631 100.773 94.4343 100.776Z" fill="#E6E6E6"/>
<path opacity="0.5" d="M225.812 286.991H105.711C98.6552 286.991 91.8889 284.188 86.9 279.2C81.9111 274.211 79.1084 267.444 79.1084 260.389L79.1084 94.9577L252.415 94.9577L252.415 260.389C252.415 267.444 249.612 274.211 244.623 279.2C239.634 284.188 232.868 286.991 225.812 286.991Z" fill="#E0E0E0"/>
<path d="M235.681 94.9576C235.691 95.9836 236.004 96.9837 236.581 97.8319C237.159 98.68 237.975 99.3382 238.925 99.7234C239.876 100.109 240.92 100.204 241.925 99.9967C242.93 99.7896 243.851 99.2896 244.572 98.5598C245.293 97.8299 245.782 96.9029 245.977 95.8956C246.173 94.8883 246.065 93.8458 245.668 92.8995C245.272 91.9532 244.604 91.1455 243.749 90.5782C242.894 90.011 241.89 89.7096 240.864 89.712C240.178 89.7119 239.499 89.848 238.866 90.1124C238.233 90.3768 237.659 90.7642 237.177 91.2521C236.695 91.7401 236.314 92.3188 236.057 92.9549C235.801 93.591 235.673 94.2717 235.681 94.9576Z" fill="#E6E6E6"/>
<path d="M512.567 108.103H367.931V253.125H512.567V108.103Z" fill="#F0F0F0"/>
<path d="M512.567 253.125H515.059V108.103H512.567V253.125Z" fill="#E0E0E0"/>
<path d="M499.796 176.807C499.796 143.921 473.136 117.261 440.249 117.261C407.363 117.261 380.703 143.921 380.703 176.807V184.42C380.703 217.307 407.363 243.967 440.249 243.967C473.136 243.967 499.796 217.307 499.796 184.42V176.807Z" fill="white"/>
<path d="M462.951 153.557H417.56C416.046 153.557 414.818 154.784 414.818 156.298V204.942C414.818 206.456 416.046 207.683 417.56 207.683H462.951C464.465 207.683 465.693 206.456 465.693 204.942V156.298C465.693 154.784 464.465 153.557 462.951 153.557Z" fill="#F5F5F5"/>
<path d="M230.348 471.636H263.716V397.636H230.348V471.636Z" fill="#F0F0F0"/>
<path d="M92.7274 476.308H257.312V471.623H92.7274V476.308Z" fill="#F0F0F0"/>
<path d="M230.348 397.624H86.323V471.623H230.348V397.624Z" fill="#F5F5F5"/>
<path d="M217.228 431.627H99.4433C99.2781 431.627 99.1196 431.561 99.0028 431.444C98.8859 431.328 98.8203 431.169 98.8203 431.004V406.732C98.8203 406.567 98.8859 406.408 99.0028 406.291C99.1196 406.174 99.2781 406.109 99.4433 406.109H217.228C217.392 406.112 217.549 406.179 217.665 406.295C217.781 406.411 217.847 406.568 217.851 406.732V431.004C217.851 431.169 217.785 431.328 217.668 431.444C217.551 431.561 217.393 431.627 217.228 431.627ZM100.104 430.381H216.642V407.355H100.066L100.104 430.381Z" fill="#F0F0F0"/>
<path d="M217.228 463.138H99.4433C99.2781 463.138 99.1196 463.073 99.0028 462.956C98.8859 462.839 98.8203 462.68 98.8203 462.515V438.243C98.8203 438.078 98.8859 437.919 99.0028 437.803C99.1196 437.686 99.2781 437.62 99.4433 437.62H217.228C217.392 437.623 217.549 437.69 217.665 437.806C217.781 437.922 217.847 438.079 217.851 438.243V462.515C217.851 462.68 217.785 462.839 217.668 462.956C217.551 463.073 217.393 463.138 217.228 463.138ZM100.104 461.892H216.642V438.866H100.066L100.104 461.892Z" fill="#F0F0F0"/>
<path d="M143.315 420.537H173.331C174.143 420.537 174.801 419.879 174.801 419.067V418.681C174.801 417.869 174.143 417.211 173.331 417.211H143.315C142.503 417.211 141.845 417.869 141.845 418.681V419.067C141.845 419.879 142.503 420.537 143.315 420.537Z" fill="white"/>
<path d="M143.315 452.036H173.331C174.143 452.036 174.801 451.378 174.801 450.566V450.18C174.801 449.368 174.143 448.71 173.331 448.71H143.315C142.503 448.71 141.845 449.368 141.845 450.18V450.566C141.845 451.378 142.503 452.036 143.315 452.036Z" fill="white"/>
<path d="M150.953 385.176C150.953 385.176 150.554 397.636 135.179 397.636C119.803 397.636 119.392 385.176 119.392 385.176H150.953Z" fill="#F5F5F5"/>
<path d="M186.9 385.176C186.9 385.176 186.489 397.636 171.113 397.636C155.738 397.636 155.339 385.176 155.339 385.176H186.9Z" fill="#F5F5F5"/>
<path d="M222.909 385.176C222.909 385.176 222.511 397.636 207.122 397.636C191.734 397.636 191.348 385.176 191.348 385.176H222.909Z" fill="#F5F5F5"/>
<path d="M527.905 468.87H553.087V303.762H527.905V468.87Z" fill="#F0F0F0"/>
<path d="M338.775 476.458H546.446V468.87H338.775V476.458Z" fill="#F0F0F0"/>
<path d="M527.905 303.75H332.134V468.857H527.905V303.75Z" fill="#F5F5F5"/>
<path d="M514.299 363.421H345.74V402.695H514.299V363.421Z" fill="#F0F0F0"/>
<path d="M514.299 414.843H345.74V454.117H514.299V414.843Z" fill="#F0F0F0"/>
<path d="M381.413 366.125H478.638C480.049 366.125 481.193 364.981 481.193 363.57V363.296C481.193 361.886 480.049 360.742 478.638 360.742H381.413C380.002 360.742 378.859 361.886 378.859 363.296V363.57C378.859 364.981 380.002 366.125 381.413 366.125Z" fill="#F5F5F5"/>
<path d="M381.413 417.535H478.638C480.049 417.535 481.193 416.391 481.193 414.98V414.706C481.193 413.295 480.049 412.152 478.638 412.152H381.413C380.002 412.152 378.859 413.295 378.859 414.706V414.98C378.859 416.391 380.002 417.535 381.413 417.535Z" fill="#F5F5F5"/>
<path d="M514.299 312.011H345.74V351.285H514.299V312.011Z" fill="#F0F0F0"/>
<path d="M381.413 314.715H478.638C480.049 314.715 481.193 313.571 481.193 312.16V311.886C481.193 310.476 480.049 309.332 478.638 309.332H381.413C380.002 309.332 378.859 310.476 378.859 311.886V312.16C378.859 313.571 380.002 314.715 381.413 314.715Z" fill="#F5F5F5"/>
<path d="M311.5 532.74C444.925 532.74 553.087 526.425 553.087 518.635C553.087 510.845 444.925 504.53 311.5 504.53C178.075 504.53 69.9131 510.845 69.9131 518.635C69.9131 526.425 178.075 532.74 311.5 532.74Z" fill="#F5F5F5"/>
<path d="M358.485 128.761L358.344 129.999L364.881 130.74L365.022 129.502L358.485 128.761Z" fill="#3F8CFF"/>
<path d="M330.137 125.557L329.997 126.795L351.205 129.201L351.345 127.963L330.137 125.557Z" fill="#3F8CFF"/>
<path d="M487.235 147.767L263.059 122.344C259.708 121.964 256.684 124.372 256.304 127.723L236.93 298.563C236.55 301.914 238.958 304.938 242.309 305.318L466.485 330.74C469.835 331.12 472.859 328.712 473.239 325.362L492.614 154.521C492.993 151.171 490.585 148.147 487.235 147.767Z" fill="#3F8CFF"/>
<path d="M240.204 296.548L259.031 130.469C259.097 129.882 259.279 129.314 259.566 128.798C259.853 128.282 260.239 127.828 260.703 127.462C261.166 127.096 261.697 126.825 262.266 126.665C262.834 126.506 263.429 126.46 264.015 126.531L485.429 151.626C486.015 151.694 486.582 151.877 487.097 152.164C487.613 152.452 488.066 152.838 488.432 153.301C488.798 153.764 489.068 154.294 489.229 154.862C489.389 155.43 489.436 156.024 489.366 156.61L470.49 322.627C470.425 323.214 470.244 323.783 469.957 324.3C469.671 324.817 469.285 325.271 468.821 325.638C468.357 326.004 467.825 326.275 467.256 326.434C466.687 326.593 466.092 326.637 465.506 326.564L244.091 301.457C242.928 301.314 241.869 300.718 241.141 299.799C240.414 298.881 240.077 297.713 240.204 296.548Z" fill="#313233"/>
<path d="M452.292 192.557L358.991 181.976L358.47 186.57L451.771 197.15L452.292 192.557Z" fill="#3F8CFF"/>
<path d="M466.593 201.591L367.746 190.381L367.225 194.974L466.073 206.184L466.593 201.591Z" fill="#3F8CFF"/>
<path d="M448.807 206.992L366.909 197.705L366.388 202.298L448.286 211.585L448.807 206.992Z" fill="#3F8CFF"/>
<path d="M439.437 213.352L366.081 205.033L365.56 209.626L438.916 217.945L439.437 213.352Z" fill="#3F8CFF"/>
<path d="M415.758 222.739L355.142 215.865L354.621 220.458L415.237 227.333L415.758 222.739Z" fill="#3F8CFF"/>
<path d="M427.323 246.323L362.238 238.942L361.717 243.535L426.802 250.916L427.323 246.323Z" fill="#3F8CFF"/>
<path d="M416.997 237.73L363.067 231.614L362.546 236.207L416.476 242.323L416.997 237.73Z" fill="#3F8CFF"/>
<path d="M423.292 231.023L363.902 224.288L363.381 228.881L422.771 235.616L423.292 231.023Z" fill="#3F8CFF"/>
<path d="M409.426 278.625L348.811 271.751L348.29 276.344L408.905 283.218L409.426 278.625Z" fill="#3F8CFF"/>
<path d="M420.979 302.207L355.894 294.826L355.373 299.419L420.458 306.8L420.979 302.207Z" fill="#3F8CFF"/>
<path d="M409.954 291.459L356.221 285.488L355.713 290.065L409.446 296.035L409.954 291.459Z" fill="#3F8CFF"/>
<path d="M416.948 286.907L357.558 280.172L357.037 284.765L416.427 291.5L416.948 286.907Z" fill="#3F8CFF"/>
<path d="M318.645 142.783L269.419 137.201L268.898 141.794L318.124 147.376L318.645 142.783Z" fill="white"/>
<path d="M327.552 166.043L274.711 160.051L274.191 164.644L327.031 170.636L327.552 166.043Z" fill="white"/>
<path d="M319.329 157.7L275.539 152.734L275.018 157.327L318.808 162.293L319.329 157.7Z" fill="white"/>
<path d="M324.579 150.863L276.356 145.394L275.836 149.987L324.058 155.456L324.579 150.863Z" fill="white"/>
<path d="M424.824 268.305L359.739 260.924L359.218 265.518L424.303 272.899L424.824 268.305Z" fill="#3F8CFF"/>
<path d="M414.499 259.712L360.569 253.596L360.048 258.189L413.978 264.305L414.499 259.712Z" fill="#3F8CFF"/>
<path d="M420.794 253.005L361.404 246.27L360.883 250.863L420.273 257.598L420.794 253.005Z" fill="#3F8CFF"/>
<path d="M286.744 513.664L294.98 513.477L296.126 494.363L287.89 494.55L286.744 513.664Z" fill="#FFC3BD"/>
<path d="M295.279 512.517L286.283 512.717C286.121 512.721 285.965 512.781 285.841 512.885C285.717 512.988 285.631 513.131 285.598 513.29L284.127 520.654C284.1 520.832 284.112 521.014 284.163 521.188C284.213 521.361 284.3 521.522 284.419 521.658C284.538 521.794 284.684 521.903 284.849 521.977C285.014 522.051 285.193 522.088 285.373 522.086C288.613 521.962 293.298 521.675 297.372 521.576C302.145 521.476 303.004 522.311 308.586 521.725C311.951 521.376 312.536 517.875 311.078 517.713C304.524 516.978 302.954 516.467 297.372 513.115C296.748 512.717 296.02 512.509 295.279 512.517Z" fill="#263238"/>
<path opacity="0.2" d="M296.126 494.375L295.528 504.219L287.292 504.406L287.878 494.562L296.126 494.375Z" fill="black"/>
<path d="M299.777 242.335C302.518 247.705 305.409 252.901 308.499 258.084C311.589 263.267 314.729 268.326 318.467 273.41C318.941 274.045 319.464 274.656 319.962 275.341C320.174 275.628 320.536 276.039 320.859 276.4C321.183 276.762 321.52 277.16 321.881 277.497C323.279 278.901 324.869 280.101 326.604 281.06C329.839 282.871 333.425 283.968 337.12 284.275C340.47 284.574 343.845 284.411 347.15 283.789C348.744 283.505 350.321 283.131 351.872 282.668C353.448 282.216 354.992 281.663 356.495 281.01L354.502 274.718C353.256 274.855 351.835 275.005 350.489 275.079C349.144 275.154 347.748 275.154 346.402 275.079C343.819 275.052 341.248 274.726 338.74 274.108C336.55 273.604 334.482 272.668 332.659 271.354C331.868 270.767 331.156 270.08 330.541 269.31C330.382 269.126 330.236 268.93 330.105 268.725C329.955 268.525 329.831 268.363 329.631 268.052L328.535 266.37C325.607 261.685 322.778 256.539 319.975 251.418L311.564 236.042L299.777 242.335Z" fill="#FFC3BD"/>
<path d="M292.388 234.248C291.142 241.724 308.225 264.264 308.225 264.264L320.747 249.2C317.188 243.087 313.103 237.296 308.537 231.893C302.045 224.616 293.771 225.999 292.388 234.248Z" fill="white"/>
<path opacity="0.2" d="M296.388 240.64C301.372 241.886 309.77 247.181 313.832 257.473L308.188 264.277C308.188 264.277 298.058 250.957 293.971 241.388C294.247 241.029 294.628 240.764 295.061 240.63C295.494 240.496 295.957 240.5 296.388 240.64Z" fill="black"/>
<path d="M301.223 227.183C301.223 227.183 314.356 243.929 313.483 292.262L269.113 300.286C267.581 293.533 267.032 266.058 254.66 235.158C259.395 233.326 264.244 231.803 269.176 230.597C275.392 229.092 281.691 227.952 288.04 227.183C292.428 226.841 296.835 226.841 301.223 227.183Z" fill="white"/>
<path opacity="0.2" d="M264.054 254.022C265.948 256.701 267.095 263.99 264.54 268.974C263.942 265.884 263.232 262.644 262.385 259.268L264.054 254.022Z" fill="black"/>
<path d="M288.04 227.183C288.04 227.183 293.36 237.637 287.155 243.07C276.302 242.148 269.175 230.61 269.175 230.61L288.04 227.183Z" fill="#263238"/>
<path d="M369.204 270.544L369.067 276.737L363.709 280.612L361.292 272.114L369.204 270.544Z" fill="#FFC3BD"/>
<path d="M351.748 275.366L361.292 272.114L363.709 280.612C363.709 280.612 358.152 283.029 353.741 279.789L351.748 275.366Z" fill="#FFC3BD"/>
<path d="M267.207 209.016C269.5 214.873 272.689 225.775 269.176 230.597C269.176 230.597 274.01 236.242 284.863 237.164C291.093 231.731 288.04 227.196 288.04 227.196C280.975 226.797 280.253 221.751 280.564 216.816L267.207 209.016Z" fill="#FFC3BD"/>
<path opacity="0.2" d="M272.652 212.194L280.564 216.804C280.47 217.953 280.47 219.107 280.564 220.255C277.05 222.062 274.184 220.168 272.652 216.368C272.338 214.994 272.338 213.568 272.652 212.194Z" fill="black"/>
<path d="M284.726 202.288C284.215 206.026 272.689 199.933 270.746 198.65C268.802 197.366 271.032 192.918 275.406 189.33C279.779 185.741 285.909 193.554 284.726 202.288Z" fill="#263238"/>
<path d="M261.077 204.008C264.603 211.596 266.272 216.218 271.767 218.661C280.016 222.399 288.227 215.035 287.043 206.549C285.984 198.911 280.402 187.785 271.58 187.66C269.633 187.624 267.709 188.086 265.991 189.004C264.273 189.921 262.818 191.263 261.765 192.902C260.712 194.54 260.096 196.421 259.976 198.365C259.855 200.309 260.234 202.251 261.077 204.008Z" fill="#FFC3BD"/>
<path d="M264.192 211.11C267.93 211.67 265.288 198.899 264.603 196.681C263.917 194.463 257.986 192.432 254.635 196.993C250.61 202.562 255.469 209.814 264.192 211.11Z" fill="#3F8CFF"/>
<path d="M265.313 185.131C268.665 184.458 267.705 180.907 265.238 181.094C267.219 178.689 278.944 176.496 279.58 184.271C280.215 192.046 265.101 196.357 261.014 196.905L254.921 198.612C246.71 194.513 255.818 187.037 265.313 185.131Z" fill="#3F8CFF"/>
<path d="M260.665 213.191C262.206 214.627 264.254 215.394 266.359 215.321C269.138 215.197 269.674 212.505 268.179 210.337C266.845 208.369 263.768 206.063 261.313 207.247C260.785 207.517 260.332 207.914 259.996 208.402C259.659 208.89 259.45 209.455 259.385 210.044C259.321 210.634 259.404 211.23 259.628 211.779C259.851 212.328 260.208 212.813 260.665 213.191Z" fill="#FFC3BD"/>
<path d="M311.814 498.213L319.9 499.808L323.863 481.143L315.776 479.548L311.814 498.213Z" fill="#FFC3BD"/>
<path d="M320.411 498.936L311.577 497.191C311.416 497.161 311.249 497.186 311.104 497.263C310.959 497.34 310.844 497.464 310.779 497.615L307.776 504.481C307.711 504.647 307.682 504.825 307.691 505.003C307.701 505.182 307.748 505.356 307.831 505.515C307.914 505.673 308.03 505.812 308.171 505.921C308.312 506.031 308.475 506.109 308.649 506.15C311.851 506.723 316.486 507.396 320.486 508.231C325.171 509.153 326.716 509.253 332.161 510.337C335.488 510.985 337.07 507.845 335.737 507.234C329.681 504.605 327.015 504.393 322.23 499.945C321.731 499.443 321.101 499.093 320.411 498.936Z" fill="#263238"/>
<path opacity="0.2" d="M323.863 481.143L321.819 490.762L313.733 489.167L315.776 479.548L323.863 481.143Z" fill="black"/>
<path d="M323.451 500.892C323.974 501.133 324.564 501.186 325.121 501.042C325.307 500.976 325.474 500.864 325.605 500.715C325.736 500.567 325.826 500.388 325.868 500.194C325.91 500.085 325.921 499.967 325.899 499.852C325.877 499.738 325.823 499.632 325.744 499.546C325.046 498.786 321.906 499.409 321.557 499.484C321.518 499.493 321.481 499.513 321.452 499.541C321.424 499.57 321.404 499.606 321.395 499.646C321.389 499.684 321.394 499.723 321.409 499.759C321.425 499.794 321.45 499.824 321.482 499.845C322.098 500.267 322.758 500.618 323.451 500.892ZM325.221 499.646C325.304 499.675 325.381 499.722 325.445 499.783C325.445 499.783 325.532 499.895 325.445 500.045C325.419 500.177 325.36 500.3 325.272 500.403C325.185 500.505 325.073 500.584 324.946 500.63C323.913 500.713 322.887 500.397 322.081 499.746C323.127 499.501 324.211 499.467 325.27 499.646H325.221Z" fill="#3F8CFF"/>
<path d="M321.57 499.808H321.67C322.654 499.658 324.872 498.562 325.034 497.565C325.057 497.416 325.027 497.263 324.95 497.134C324.873 497.004 324.752 496.905 324.61 496.855C324.472 496.79 324.321 496.757 324.168 496.757C324.015 496.757 323.864 496.79 323.725 496.855C322.479 497.266 321.508 499.484 321.458 499.571C321.439 499.601 321.429 499.636 321.429 499.671C321.429 499.706 321.439 499.741 321.458 499.771C321.489 499.797 321.529 499.81 321.57 499.808ZM324.348 497.154H324.436C324.66 497.279 324.648 497.403 324.635 497.453C324.548 498.001 323.053 498.948 322.018 499.272C322.355 498.637 323.09 497.391 323.85 497.129C324.014 497.081 324.19 497.09 324.348 497.154Z" fill="#3F8CFF"/>
<path d="M313.483 292.262C313.483 292.262 333.182 367.246 338.877 392.328C344.783 418.432 324.884 488.968 324.884 488.968L311.739 486.376C311.739 486.376 317.259 414.457 315.377 403.044C307.839 375.407 284.314 297.545 284.314 297.545L313.483 292.262Z" fill="#3F8CFF"/>
<path opacity="0.2" d="M310.991 354.412C311.809 364.855 311.642 375.351 310.493 385.762C304.861 366.162 297.036 339.871 291.404 321.094C297.086 323.549 308.885 331.336 310.991 354.412Z" fill="black"/>
<path d="M298.158 295.04C298.158 295.04 308.474 371.445 307.59 396.141C306.63 423.167 300.238 501.764 300.238 501.764L284.825 502.138C284.825 502.138 285.062 427.827 283.579 401.486C282.034 372.903 269.499 300.249 269.499 300.249L298.158 295.04Z" fill="#3F8CFF"/>
<path d="M283.791 502.45L300.425 502.088L301.733 495.783L283.317 495.671L283.791 502.45Z" fill="#263238"/>
<path d="M309.147 486.202L325.47 489.416L328.111 483.535L310.019 480.308L309.147 486.202Z" fill="#263238"/>
<path d="M273.238 201.74C273.487 202.375 274.023 202.762 274.484 202.6C274.945 202.438 275.032 201.79 274.783 201.154C274.533 200.519 273.998 200.145 273.537 200.307C273.076 200.469 273.001 201.117 273.238 201.74Z" fill="#263238"/>
<path d="M280.402 198.949C280.651 199.572 281.187 199.958 281.648 199.796C282.109 199.634 282.196 198.986 281.947 198.363C281.698 197.74 281.162 197.341 280.701 197.503C280.24 197.665 280.153 198.313 280.402 198.949Z" fill="#263238"/>
<path d="M278.732 199.958C280.245 201.6 281.976 203.025 283.878 204.194C283.565 204.672 283.152 205.076 282.669 205.38C282.185 205.683 281.641 205.878 281.075 205.951L278.732 199.958Z" fill="#ED847E"/>
<path d="M281.187 209.017C281.214 209.008 281.239 208.994 281.26 208.975C281.281 208.957 281.298 208.934 281.309 208.908C281.321 208.882 281.327 208.855 281.327 208.826C281.327 208.798 281.321 208.77 281.309 208.745C281.298 208.719 281.281 208.696 281.26 208.677C281.239 208.659 281.214 208.645 281.187 208.636C281.16 208.628 281.132 208.625 281.104 208.628C281.076 208.632 281.049 208.641 281.025 208.655C280.257 209.01 279.416 209.181 278.57 209.153C277.724 209.125 276.896 208.899 276.153 208.493C276.131 208.477 276.106 208.465 276.079 208.459C276.052 208.453 276.025 208.452 275.998 208.457C275.971 208.462 275.945 208.473 275.922 208.488C275.9 208.504 275.88 208.524 275.866 208.547C275.851 208.57 275.841 208.596 275.837 208.623C275.833 208.651 275.835 208.678 275.842 208.705C275.849 208.731 275.861 208.756 275.879 208.778C275.896 208.799 275.917 208.817 275.941 208.83C276.736 209.281 277.628 209.534 278.541 209.567C279.455 209.599 280.362 209.41 281.187 209.017Z" fill="#263238"/>
<path d="M269.275 200.307C269.326 200.275 269.37 200.234 269.405 200.184C269.439 200.135 269.463 200.079 269.474 200.02C269.539 199.518 269.722 199.038 270.007 198.62C270.293 198.202 270.674 197.858 271.119 197.616C271.214 197.572 271.289 197.493 271.326 197.395C271.363 197.297 271.361 197.188 271.319 197.092C271.273 196.996 271.191 196.921 271.091 196.884C270.991 196.847 270.88 196.85 270.783 196.893C270.225 197.193 269.747 197.622 269.39 198.144C269.032 198.667 268.805 199.267 268.727 199.896C268.718 199.948 268.72 200.002 268.732 200.054C268.744 200.105 268.767 200.154 268.798 200.197C268.829 200.24 268.869 200.276 268.914 200.304C268.96 200.331 269.011 200.349 269.063 200.357C269.137 200.359 269.21 200.342 269.275 200.307Z" fill="#263238"/>
<path d="M282.209 194.675C282.262 194.647 282.305 194.604 282.333 194.55C282.363 194.507 282.383 194.457 282.392 194.406C282.402 194.354 282.401 194.301 282.389 194.249C282.378 194.198 282.356 194.15 282.325 194.107C282.293 194.065 282.254 194.029 282.209 194.002C281.676 193.658 281.07 193.446 280.439 193.383C279.809 193.32 279.172 193.409 278.583 193.641C278.487 193.687 278.412 193.768 278.375 193.868C278.338 193.968 278.341 194.079 278.383 194.177C278.406 194.224 278.438 194.267 278.477 194.302C278.517 194.338 278.562 194.365 278.612 194.382C278.662 194.399 278.715 194.407 278.768 194.404C278.82 194.4 278.872 194.387 278.919 194.364C279.387 194.185 279.891 194.12 280.39 194.174C280.888 194.228 281.366 194.4 281.785 194.675C281.849 194.715 281.922 194.736 281.997 194.736C282.072 194.736 282.145 194.715 282.209 194.675Z" fill="#263238"/>
<path d="M260.964 232.466L263.033 231.906C263.132 231.877 263.238 231.887 263.331 231.933C263.423 231.979 263.495 232.058 263.531 232.155C275.019 262.408 277.748 296.237 277.748 296.237L275.443 296.648C272.83 274.963 267.883 253.625 260.69 233.002C260.669 232.949 260.659 232.892 260.662 232.835C260.665 232.778 260.679 232.722 260.705 232.672C260.731 232.621 260.768 232.576 260.813 232.541C260.857 232.505 260.909 232.48 260.964 232.466Z" fill="#3F8CFF"/>
<g opacity="0.99">
<path opacity="0.99" d="M275.106 296.71C275.088 296.613 275.09 296.513 275.111 296.416C275.132 296.319 275.172 296.227 275.229 296.146C275.286 296.065 275.358 295.996 275.442 295.943C275.526 295.89 275.619 295.854 275.717 295.838L277.312 295.539C277.491 295.512 277.673 295.551 277.827 295.647C277.98 295.743 278.094 295.891 278.148 296.064C278.202 296.236 278.193 296.423 278.122 296.589C278.051 296.756 277.923 296.891 277.76 296.972L278.109 298.953C278.132 299.08 278.13 299.211 278.102 299.338C278.074 299.465 278.022 299.585 277.948 299.691C277.874 299.798 277.78 299.888 277.67 299.958C277.561 300.028 277.439 300.076 277.312 300.099C277.184 300.122 277.053 300.12 276.927 300.092C276.8 300.064 276.68 300.012 276.573 299.938C276.467 299.864 276.376 299.769 276.306 299.66C276.236 299.551 276.188 299.429 276.165 299.302L275.804 297.32C275.637 297.31 275.478 297.244 275.351 297.134C275.225 297.024 275.139 296.874 275.106 296.71Z" fill="#263238"/>
</g>
<path d="M296.176 226.535H298.319C298.406 226.536 298.49 226.565 298.559 226.616C298.628 226.668 298.68 226.74 298.706 226.822C308.773 257.349 309.77 290.368 309.77 290.368L307.465 290.791C304.749 256.078 297.049 230.983 295.778 226.996C295.771 226.939 295.776 226.881 295.792 226.827C295.809 226.772 295.837 226.721 295.875 226.677C295.912 226.634 295.959 226.599 296.011 226.574C296.062 226.55 296.119 226.537 296.176 226.535Z" fill="#3F8CFF"/>
<path opacity="0.99" d="M307.129 290.929C307.103 290.726 307.156 290.522 307.277 290.357C307.397 290.193 307.576 290.081 307.777 290.044L309.372 289.745C309.468 289.727 309.568 289.729 309.664 289.752C309.76 289.774 309.85 289.815 309.93 289.874C310.009 289.932 310.076 290.006 310.125 290.091C310.175 290.176 310.207 290.27 310.219 290.368C310.236 290.537 310.2 290.708 310.115 290.856C310.03 291.003 309.901 291.12 309.745 291.19L310.007 293.184C310.04 293.449 309.971 293.716 309.813 293.931C309.656 294.147 309.422 294.294 309.16 294.343C309.033 294.368 308.903 294.366 308.777 294.338C308.651 294.31 308.532 294.256 308.428 294.18C308.324 294.104 308.237 294.007 308.172 293.896C308.107 293.785 308.066 293.661 308.051 293.533L307.789 291.539C307.625 291.532 307.468 291.466 307.347 291.354C307.227 291.243 307.149 291.092 307.129 290.929Z" fill="#263238"/>
<path d="M298.706 513.701C299.265 513.827 299.85 513.757 300.363 513.502C300.529 513.392 300.667 513.245 300.764 513.071C300.862 512.898 300.917 512.704 300.924 512.505C300.94 512.391 300.924 512.274 300.877 512.169C300.831 512.063 300.757 511.972 300.662 511.907C299.802 511.309 296.924 512.592 296.55 512.742C296.515 512.759 296.485 512.785 296.463 512.818C296.441 512.851 296.428 512.889 296.426 512.928C296.431 512.967 296.447 513.003 296.471 513.034C296.495 513.064 296.527 513.088 296.563 513.103C297.251 513.387 297.97 513.588 298.706 513.701ZM300.176 512.106C300.265 512.112 300.352 512.142 300.425 512.193C300.465 512.22 300.496 512.258 300.514 512.302C300.532 512.347 300.536 512.396 300.525 512.442C300.522 512.578 300.487 512.711 300.422 512.831C300.357 512.95 300.264 513.052 300.151 513.128C299.162 513.429 298.095 513.335 297.173 512.866C298.116 512.423 299.136 512.165 300.176 512.106Z" fill="#3F8CFF"/>
<path d="M296.6 513.115H296.7C297.634 512.754 299.553 511.159 299.503 510.2C299.491 510.05 299.43 509.908 299.328 509.798C299.226 509.687 299.091 509.614 298.943 509.589C298.793 509.552 298.637 509.546 298.485 509.572C298.332 509.597 298.187 509.654 298.058 509.739C296.986 510.399 296.451 512.779 296.438 512.879C296.429 512.914 296.43 512.952 296.441 512.987C296.452 513.022 296.473 513.054 296.5 513.078C296.514 513.09 296.529 513.1 296.546 513.107C296.564 513.113 296.582 513.116 296.6 513.115ZM298.743 509.963H298.843C299.092 510.038 299.092 510.162 299.104 510.212C299.104 510.773 297.858 512.006 296.924 512.542C297.118 511.597 297.586 510.731 298.27 510.05C298.411 509.964 298.58 509.933 298.743 509.963Z" fill="#3F8CFF"/>
<path d="M292.974 321.219L286.009 326.141L280.788 322.29L287.467 314.154L292.974 321.219Z" fill="#FFC3BD"/>
<path d="M277.611 312.671L287.467 314.154L280.788 322.29C280.788 322.29 273.948 320.621 274.322 315.138L277.611 312.671Z" fill="#FFC3BD"/>
<path d="M248.579 248.054C248.205 254.558 248.006 261.037 247.969 267.566C247.969 270.818 247.969 274.083 247.969 277.372C247.969 279.004 248.031 280.649 248.118 282.356L248.243 284.848L248.305 286.094C248.305 286.68 248.43 287.34 248.517 287.963C248.891 290.138 249.606 292.241 250.635 294.193C251.529 295.881 252.545 297.501 253.675 299.04C255.782 301.855 258.12 304.489 260.665 306.915C265.54 311.57 270.871 315.723 276.577 319.312L280.614 314.079C278.446 311.886 276.178 309.606 274.085 307.264C271.991 304.921 269.911 302.591 268.004 300.199C266.137 297.896 264.434 295.464 262.908 292.922C262.238 291.774 261.65 290.579 261.151 289.346C260.747 288.384 260.482 287.368 260.366 286.331C260.379 286.144 260.379 285.957 260.366 285.77V284.624L260.429 282.281L260.628 277.534L261.151 267.89C261.475 261.486 261.737 255.031 261.911 248.614L248.579 248.054Z" fill="#FFC3BD"/>
<path d="M254.66 235.158C244.006 239.12 244.094 267.616 244.094 267.616L262.123 270.93C262.123 270.93 266.484 257.984 264.329 247.792C262.273 238.061 262.759 232.13 254.66 235.158Z" fill="white"/>
<path d="M181.717 271.815L133.422 253.723L124.937 202.861L164.809 170.079L213.066 188.146L221.551 239.02L181.717 271.815ZM135.453 252.053L181.281 269.211L219.047 238.061L210.998 189.803L165.17 172.646L127.404 203.796L135.453 252.053Z" fill="#3F8CFF"/>
<path d="M171.262 175.889C173.745 172.411 172.939 167.578 169.461 165.095C165.984 162.612 161.151 163.418 158.668 166.895C156.184 170.373 156.99 175.206 160.468 177.689C163.946 180.172 168.778 179.366 171.262 175.889Z" fill="#3F8CFF"/>
<path d="M187.784 275.007C190.268 271.53 189.461 266.697 185.984 264.214C182.506 261.73 177.674 262.537 175.19 266.014C172.707 269.492 173.513 274.324 176.991 276.808C180.468 279.291 185.301 278.485 187.784 275.007Z" fill="#3F8CFF"/>
<path d="M207.521 195.298C206.276 194.408 205.322 193.169 204.781 191.738C204.24 190.306 204.135 188.746 204.481 187.255C204.826 185.764 205.606 184.408 206.722 183.361C207.838 182.313 209.24 181.62 210.749 181.369C212.259 181.118 213.81 181.32 215.205 181.95C216.599 182.581 217.776 183.61 218.586 184.909C219.395 186.208 219.801 187.718 219.752 189.248C219.704 190.778 219.202 192.259 218.312 193.504C217.118 195.172 215.311 196.298 213.288 196.634C211.265 196.971 209.19 196.49 207.521 195.298Z" fill="#3F8CFF"/>
<path d="M121.66 209.54C120.413 208.651 119.458 207.413 118.916 205.982C118.373 204.551 118.267 202.991 118.611 201.5C118.955 200.009 119.734 198.653 120.848 197.604C121.963 196.555 123.364 195.861 124.873 195.608C126.383 195.355 127.933 195.556 129.329 196.184C130.724 196.813 131.902 197.841 132.713 199.139C133.524 200.437 133.932 201.946 133.885 203.476C133.838 205.006 133.339 206.487 132.45 207.733C131.256 209.401 129.45 210.527 127.428 210.866C125.405 211.204 123.331 210.727 121.66 209.54Z" fill="#3F8CFF"/>
<path d="M215.795 244.951C214.55 244.062 213.597 242.823 213.057 241.392C212.516 239.961 212.411 238.402 212.756 236.912C213.101 235.421 213.88 234.067 214.995 233.019C216.109 231.971 217.509 231.277 219.018 231.025C220.527 230.772 222.077 230.973 223.472 231.601C224.866 232.229 226.044 233.257 226.855 234.554C227.666 235.851 228.075 237.359 228.029 238.888C227.983 240.417 227.485 241.898 226.598 243.144C226.008 243.973 225.26 244.677 224.397 245.217C223.535 245.756 222.574 246.12 221.571 246.288C220.567 246.456 219.541 246.424 218.55 246.195C217.559 245.965 216.622 245.543 215.795 244.951Z" fill="#3F8CFF"/>
<path d="M129.945 259.168C128.7 258.278 127.746 257.039 127.205 255.608C126.664 254.176 126.559 252.616 126.905 251.125C127.25 249.634 128.03 248.278 129.146 247.231C130.262 246.183 131.664 245.49 133.174 245.239C134.683 244.988 136.234 245.19 137.629 245.82C139.024 246.45 140.2 247.48 141.01 248.779C141.819 250.078 142.225 251.588 142.176 253.118C142.128 254.648 141.626 256.129 140.736 257.374C140.146 258.201 139.399 258.904 138.537 259.442C137.675 259.98 136.715 260.343 135.713 260.509C134.71 260.676 133.685 260.643 132.695 260.413C131.706 260.183 130.771 259.76 129.945 259.168Z" fill="#3F8CFF"/>
<path d="M156.921 208.082L166.678 206.45L169.531 223.557C170.097 226.307 170.235 229.127 169.942 231.918C169.556 234.01 168.481 235.914 166.889 237.326C164.91 239.084 162.441 240.196 159.812 240.515C157.31 241.076 154.714 241.076 152.212 240.515C150.373 239.978 148.739 238.896 147.527 237.413C146.195 235.695 145.27 233.697 144.823 231.569L153.906 228.741C154.053 229.791 154.351 230.815 154.791 231.781C155.114 232.391 155.613 232.89 156.224 233.214C156.747 233.437 157.326 233.489 157.881 233.363C158.359 233.317 158.815 233.142 159.201 232.857C159.587 232.571 159.889 232.187 160.074 231.744C160.467 230.371 160.497 228.92 160.161 227.532L156.921 208.082Z" fill="#313233"/>
<path d="M174.976 226.697L184.146 224.579C184.45 225.794 185.069 226.907 185.941 227.806C186.556 228.368 187.297 228.774 188.101 228.99C188.905 229.207 189.749 229.228 190.563 229.052C191.727 228.939 192.809 228.403 193.604 227.545C193.91 227.213 194.138 226.817 194.269 226.386C194.401 225.954 194.433 225.498 194.364 225.053C194.285 224.631 194.114 224.232 193.864 223.883C193.615 223.535 193.292 223.245 192.918 223.034C191.244 222.331 189.438 221.995 187.623 222.05C183.195 221.8 179.939 221.032 177.854 219.745C176.851 219.146 175.995 218.331 175.348 217.359C174.701 216.386 174.28 215.281 174.116 214.125C173.855 212.489 174.08 210.812 174.764 209.303C175.552 207.604 176.827 206.177 178.427 205.204C180.729 203.884 183.27 203.037 185.903 202.712C189.932 202.039 193.126 202.276 195.485 203.422C196.737 204.081 197.831 205.004 198.691 206.127C199.551 207.25 200.158 208.546 200.469 209.926L191.386 211.994C191.26 211.413 191.017 210.863 190.67 210.379C190.324 209.895 189.881 209.488 189.371 209.182C188.861 208.876 188.293 208.678 187.703 208.6C187.113 208.522 186.513 208.566 185.941 208.73C185 208.804 184.117 209.211 183.449 209.876C183.215 210.127 183.041 210.428 182.942 210.757C182.843 211.085 182.82 211.432 182.876 211.77C182.928 212.035 183.039 212.284 183.201 212.5C183.362 212.716 183.571 212.892 183.81 213.016C184.907 213.468 186.089 213.676 187.274 213.627C190.514 213.666 193.738 214.085 196.881 214.873C198.646 215.364 200.239 216.339 201.478 217.689C202.555 218.959 203.258 220.503 203.509 222.149C203.851 224.132 203.591 226.172 202.762 228.006C201.915 229.929 200.508 231.553 198.725 232.666C196.475 234.027 193.968 234.91 191.361 235.257C186.003 236.154 182.124 235.739 179.723 234.011C177.312 232.225 175.626 229.627 174.976 226.697Z" fill="#313233"/>
</svg>
