<svg width="32" height="32" viewBox="0 0 32 32" fill="none" xmlns="http://www.w3.org/2000/svg">
    <rect width="32" height="32" rx="16" fill="#3F8CFF"/>
    <path fill-rule="evenodd" clip-rule="evenodd" d="M19.9995 12.7072V14.5C19.9995 14.7761 20.2234 15 20.4995 15C20.7757 15 20.9996 14.7761 20.9996 14.5V11.5102C21.0022 11.3788 20.9534 11.2467 20.8532 11.1464C20.7945 11.0878 20.7249 11.0467 20.6509 11.0233C20.6032 11.0082 20.5523 11 20.4995 11H17.4995C17.2234 11 16.9995 11.2239 16.9995 11.5C16.9995 11.7761 17.2234 12 17.4995 12H19.2925L14.6461 16.6464C14.4508 16.8417 14.4508 17.1583 14.6461 17.3536C14.8413 17.5488 15.1579 17.5488 15.3532 17.3536L19.9995 12.7072ZM18.4998 16.5V19.5C18.4998 19.7761 18.2759 20 17.9998 20H12.4998C12.2236 20 11.9998 19.7761 11.9998 19.5V14C11.9998 13.7239 12.2236 13.5 12.4998 13.5H15.4998C15.7759 13.5 15.9998 13.2761 15.9998 13C15.9998 12.7239 15.7759 12.5 15.4998 12.5H12.4998C11.6713 12.5 10.9998 13.1716 10.9998 14V19.5C10.9998 20.3284 11.6713 21 12.4998 21H17.9998C18.8282 21 19.4998 20.3284 19.4998 19.5V16.5C19.4998 16.2239 19.2759 16 18.9998 16C18.7236 16 18.4998 16.2239 18.4998 16.5Z" fill="white"/>
    </svg>
    