<svg width="42" height="42" viewBox="0 0 42 42" fill="none" xmlns="http://www.w3.org/2000/svg">
    <path fill-rule="evenodd" clip-rule="evenodd" d="M41.8797 35.3764L36.6025 26.25C34.3593 29.8603 30.9123 32.6393 26.8162 34.0114L31.299 41.5417C31.6735 42.1735 32.6201 42.086 32.8703 41.393L34.9577 35.6564L40.9751 36.6767C41.724 36.7939 42.2472 36.0064 41.8797 35.3764ZM0.120337 35.4077L5.39756 26.2813C7.64072 29.8916 11.0877 32.6706 15.1839 34.0426L10.701 41.573C10.3266 42.2048 9.37996 42.1173 9.12975 41.4243L7.04231 35.6877L1.02495 36.7079C0.276064 36.8252 -0.247109 36.0377 0.120337 35.4077Z" fill="#3F8CFF"/>
    <path d="M21 2.625C13.0396 2.625 6.5625 9.10212 6.5625 17.0625C6.5625 25.0229 13.0396 31.5 21 31.5C28.9604 31.5 35.4375 25.0229 35.4375 17.0625C35.4375 9.10212 28.9604 2.625 21 2.625Z" fill="white"/>
    <path d="M21 0C11.8348 0 4.37744 7.45861 4.37744 16.6253C4.37744 25.7919 11.8348 33.2505 21 33.2505C30.1651 33.2505 37.6225 25.7919 37.6225 16.6253C37.6225 7.45861 30.1651 0 21 0Z" fill="#3F8CFF"/>
    <rect x="21.0933" y="25.0307" width="12.1309" height="12.1309" transform="rotate(-135 21.0933 25.0307)" fill="white"/>
    </svg>
    