<svg width="144" height="32" viewBox="0 0 144 32" fill="none" xmlns="http://www.w3.org/2000/svg">
    <path fill-rule="evenodd" clip-rule="evenodd" d="M31.9083 26.9534L27.8876 20C26.1785 22.7507 23.5522 24.8681 20.4313 25.9134L23.8468 31.6508C24.1321 32.1322 24.8534 32.0655 25.044 31.5375L26.6344 27.1668L31.2191 27.9441C31.7897 28.0335 32.1883 27.4334 31.9083 26.9534ZM0.0916853 26.9779L4.11242 20.0244C5.82151 22.7751 8.44778 24.8925 11.5687 25.9378L8.15316 31.6753C7.86787 32.1566 7.14664 32.0899 6.956 31.5619L5.36557 27.1912L0.780917 27.9685C0.210334 28.0579 -0.188273 27.4579 0.0916853 26.9779Z" fill="#3F8CFF"/>
    <path d="M16 2C9.93495 2 5 6.93495 5 13C5 19.0651 9.93495 24 16 24C22.0651 24 27 19.0651 27 13C27 6.93495 22.0651 2 16 2Z" fill="white"/>
    <path d="M16 0C9.01703 0 3.33521 5.68275 3.33521 12.6669C3.33521 19.651 9.01703 25.3337 16 25.3337C22.983 25.3337 28.6648 19.651 28.6648 12.6669C28.6648 5.68275 22.983 0 16 0Z" fill="#3F8CFF"/>
    <rect x="16.071" y="19.071" width="9.24261" height="9.24261" transform="rotate(-135 16.071 19.071)" fill="white"/>
    <path d="M52.3517 13.3622C51.9043 10.1307 49.4185 8.25568 46.1941 8.25568C42.3944 8.25568 39.5321 11.0256 39.5321 15.7273C39.5321 20.4219 42.3588 23.1989 46.1941 23.1989C49.6529 23.1989 51.9469 20.9616 52.3517 18.1847L49.6955 18.1705C49.3617 19.875 47.9696 20.8338 46.2296 20.8338C43.8716 20.8338 42.1813 19.0653 42.1813 15.7273C42.1813 12.446 43.8574 10.6207 46.2367 10.6207C48.0051 10.6207 49.3901 11.6222 49.6955 13.3622H52.3517ZM58.4096 23.2131C61.6056 23.2131 63.6369 20.9616 63.6369 17.5881C63.6369 14.2074 61.6056 11.9489 58.4096 11.9489C55.2136 11.9489 53.1824 14.2074 53.1824 17.5881C53.1824 20.9616 55.2136 23.2131 58.4096 23.2131ZM58.4238 21.1534C56.6554 21.1534 55.7889 19.5767 55.7889 17.581C55.7889 15.5852 56.6554 13.9872 58.4238 13.9872C60.1639 13.9872 61.0304 15.5852 61.0304 17.581C61.0304 19.5767 60.1639 21.1534 58.4238 21.1534ZM68.8674 23.1918C70.7424 23.1918 71.5875 22.0767 71.9924 21.2812H72.1486V23H74.677V8.45455H72.0989V13.8949H71.9924C71.6017 13.1065 70.7992 11.9489 68.8745 11.9489C66.3532 11.9489 64.3716 13.9233 64.3716 17.5597C64.3716 21.1534 66.2963 23.1918 68.8674 23.1918ZM69.5847 21.0824C67.8873 21.0824 66.9924 19.5909 66.9924 17.5455C66.9924 15.5142 67.873 14.0582 69.5847 14.0582C71.2395 14.0582 72.1486 15.429 72.1486 17.5455C72.1486 19.6619 71.2253 21.0824 69.5847 21.0824ZM81.2463 23.2131C83.7889 23.2131 85.536 21.9702 85.9906 20.0739L83.59 19.804C83.242 20.7273 82.3897 21.2102 81.2818 21.2102C79.6199 21.2102 78.519 20.1165 78.4977 18.2486H86.0971V17.4602C86.0971 13.6321 83.796 11.9489 81.1113 11.9489C77.9863 11.9489 75.948 14.2429 75.948 17.6094C75.948 21.0327 77.9579 23.2131 81.2463 23.2131ZM78.5048 16.5156C78.5829 15.1236 79.6127 13.9517 81.1468 13.9517C82.6241 13.9517 83.6184 15.0312 83.6326 16.5156H78.5048ZM87.3858 23H93.2736C96.6046 23 98.2381 21.3026 98.2381 19.0369C98.2381 16.8352 96.6756 15.5426 95.1273 15.4645V15.3224C96.5478 14.9886 97.6699 13.9943 97.6699 12.2259C97.6699 10.0597 96.1074 8.45455 92.954 8.45455H87.3858V23ZM90.0208 20.7983V16.5369H92.9256C94.552 16.5369 95.5605 17.5312 95.5605 18.831C95.5605 19.9886 94.7651 20.7983 92.8546 20.7983H90.0208ZM90.0208 14.6406V10.6278H92.6841C94.2324 10.6278 95.035 11.4446 95.035 12.5668C95.035 13.8452 93.998 14.6406 92.6273 14.6406H90.0208ZM102.556 23.2202C104.268 23.2202 105.29 22.4176 105.759 21.5014H105.844V23H108.316V15.6989C108.316 12.8153 105.965 11.9489 103.884 11.9489C101.59 11.9489 99.8287 12.9716 99.2605 14.9602L101.661 15.3011C101.917 14.5554 102.641 13.9162 103.898 13.9162C105.091 13.9162 105.745 14.527 105.745 15.5994V15.642C105.745 16.3807 104.971 16.4162 103.046 16.6222C100.93 16.8494 98.9054 17.4815 98.9054 19.9389C98.9054 22.0838 100.475 23.2202 102.556 23.2202ZM103.224 21.331C102.151 21.331 101.384 20.8409 101.384 19.8963C101.384 18.9091 102.243 18.4972 103.394 18.3338C104.069 18.2415 105.418 18.071 105.752 17.8011V19.0866C105.752 20.3011 104.772 21.331 103.224 21.331ZM113.949 23.1918C115.824 23.1918 116.67 22.0767 117.074 21.2812H117.231V23H119.759V8.45455H117.181V13.8949H117.074C116.684 13.1065 115.881 11.9489 113.956 11.9489C111.435 11.9489 109.454 13.9233 109.454 17.5597C109.454 21.1534 111.378 23.1918 113.949 23.1918ZM114.667 21.0824C112.969 21.0824 112.074 19.5909 112.074 17.5455C112.074 15.5142 112.955 14.0582 114.667 14.0582C116.322 14.0582 117.231 15.429 117.231 17.5455C117.231 19.6619 116.307 21.0824 114.667 21.0824ZM126.243 27.2756C129.191 27.2756 131.364 25.9261 131.364 23.1776V12.0909H128.828V13.8949H128.686C128.296 13.1065 127.479 11.9489 125.554 11.9489C123.033 11.9489 121.051 13.9233 121.051 17.5099C121.051 21.0682 123.033 22.8438 125.547 22.8438C127.415 22.8438 128.289 21.8423 128.686 21.0398H128.814V23.1065C128.814 24.669 127.749 25.3295 126.286 25.3295C124.737 25.3295 124.056 24.598 123.743 24.0014L121.428 24.5625C121.896 26.0469 123.466 27.2756 126.243 27.2756ZM126.264 20.8267C124.567 20.8267 123.672 19.5057 123.672 17.4957C123.672 15.5142 124.553 14.0582 126.264 14.0582C127.919 14.0582 128.828 15.429 128.828 17.4957C128.828 19.5767 127.905 20.8267 126.264 20.8267ZM137.828 23.2131C140.371 23.2131 142.118 21.9702 142.573 20.0739L140.172 19.804C139.824 20.7273 138.972 21.2102 137.864 21.2102C136.202 21.2102 135.101 20.1165 135.08 18.2486H142.679V17.4602C142.679 13.6321 140.378 11.9489 137.693 11.9489C134.568 11.9489 132.53 14.2429 132.53 17.6094C132.53 21.0327 134.54 23.2131 137.828 23.2131ZM135.087 16.5156C135.165 15.1236 136.195 13.9517 137.729 13.9517C139.206 13.9517 140.2 15.0312 140.215 16.5156H135.087Z" fill="#313233"/>
    </svg>
    