<svg width="78" height="24" viewBox="0 0 78 24" fill="none" xmlns="http://www.w3.org/2000/svg">
    <rect width="78" height="24" rx="2" fill="#F0F2F5"/>
    <path d="M10.8361 9.18182V15H11.6713V10.7869H11.7253L13.4412 14.9915H14.1344L15.8503 10.7898H15.9043V15H16.7395V9.18182H15.6741L13.8219 13.7045H13.7537L11.9014 9.18182H10.8361ZM24.0182 12.0909C24.0182 10.2301 22.9045 9.10227 21.3989 9.10227C19.8875 9.10227 18.7767 10.2301 18.7767 12.0909C18.7767 13.9489 19.8875 15.0795 21.3989 15.0795C22.9045 15.0795 24.0182 13.9517 24.0182 12.0909ZM23.1489 12.0909C23.1489 13.5085 22.3989 14.2784 21.3989 14.2784C20.396 14.2784 19.6489 13.5085 19.6489 12.0909C19.6489 10.6733 20.396 9.90341 21.3989 9.90341C22.3989 9.90341 23.1489 10.6733 23.1489 12.0909ZM27.7962 15C29.5689 15 30.5945 13.9006 30.5945 12.0824C30.5945 10.2727 29.5689 9.18182 27.8558 9.18182H25.9126V15H27.7962ZM26.7905 14.233V9.94886H27.8018C29.0746 9.94886 29.7308 10.7102 29.7308 12.0824C29.7308 13.4602 29.0746 14.233 27.7479 14.233H26.7905ZM32.4861 15H36.1679V14.2443H33.3639V12.4631H35.9435V11.7102H33.3639V9.9375H36.1338V9.18182H32.4861V15ZM38.1064 15H38.9842V12.7983H40.1774C40.1973 12.7983 40.2143 12.7983 40.2342 12.7983L41.4161 15H42.4161L41.1263 12.6449C41.8393 12.3807 42.1945 11.7869 42.1945 11.0057C42.1945 9.93466 41.5297 9.18182 40.1803 9.18182H38.1064V15ZM38.9842 12.0426V9.93466H40.0865C40.953 9.93466 41.3109 10.3466 41.3109 11.0057C41.3109 11.6619 40.953 12.0426 40.0979 12.0426H38.9842ZM44.5541 15L45.0882 13.4602H47.3609L47.8922 15H48.824L46.7303 9.18182H45.7161L43.6223 15H44.5541ZM45.3439 12.7216L46.2018 10.2386H46.2473L47.1053 12.7216H45.3439ZM49.482 9.9375H51.2945V15H52.1695V9.9375H53.9848V9.18182H49.482V9.9375ZM60.5916 12.0909C60.5916 10.2301 59.478 9.10227 57.9723 9.10227C56.4609 9.10227 55.3501 10.2301 55.3501 12.0909C55.3501 13.9489 56.4609 15.0795 57.9723 15.0795C59.478 15.0795 60.5916 13.9517 60.5916 12.0909ZM59.7223 12.0909C59.7223 13.5085 58.9723 14.2784 57.9723 14.2784C56.9695 14.2784 56.2223 13.5085 56.2223 12.0909C56.2223 10.6733 56.9695 9.90341 57.9723 9.90341C58.9723 9.90341 59.7223 10.6733 59.7223 12.0909ZM62.4861 15H63.3639V12.7983H64.5571C64.577 12.7983 64.594 12.7983 64.6139 12.7983L65.7957 15H66.7957L65.506 12.6449C66.219 12.3807 66.5742 11.7869 66.5742 11.0057C66.5742 9.93466 65.9094 9.18182 64.5599 9.18182H62.4861V15ZM63.3639 12.0426V9.93466H64.4662C65.3327 9.93466 65.6906 10.3466 65.6906 11.0057C65.6906 11.6619 65.3327 12.0426 64.4776 12.0426H63.3639Z" fill="#71757A"/>
    </svg>
    