<svg width="32" height="32" viewBox="0 0 32 32" fill="none" xmlns="http://www.w3.org/2000/svg">
    <rect width="32" height="32" rx="16" fill="#3F8CFF"/>
    <path fill-rule="evenodd" clip-rule="evenodd" d="M21.9849 11.6243C22.0942 11.1748 21.5884 10.83 21.211 11.0967C20.8568 11.3469 20.4718 11.5492 20.0658 11.6986C19.3093 11.0206 18.2286 10.8112 17.2626 11.1805C16.1943 11.5888 15.4923 12.6183 15.5 13.7622C14.0668 13.6545 12.7455 12.9105 11.9099 11.7188C11.6866 11.4003 11.2017 11.4476 11.0439 11.8032C10.9788 11.9499 10.8871 12.2002 10.7969 12.5322C10.4988 13.63 10.4466 14.786 10.804 15.8859C11.1501 16.9513 11.8557 17.8518 12.9576 18.5321C12.1986 18.8822 11.364 19.0501 10.5208 19.0165C9.99468 18.9955 9.79787 19.6984 10.2581 19.9545C15.2771 22.7471 20.9992 19.6968 20.9992 13.7589C20.999 13.6768 20.9951 13.5952 20.9876 13.5141C21.4704 12.9777 21.8136 12.3286 21.9849 11.6243ZM19.5519 12.6005C19.6809 12.7491 19.885 12.8081 20.0733 12.7513C20.1891 12.7164 20.3037 12.678 20.4169 12.6361C20.3225 12.7596 20.2194 12.8769 20.108 12.9869C19.9892 13.1042 19.9367 13.2732 19.968 13.4374C19.9883 13.5439 19.9988 13.6521 19.9991 13.7606C19.9991 18.2381 16.3053 20.7905 12.4663 19.779C13.1084 19.5955 13.7214 19.31 14.2809 18.9297C14.6053 18.7091 14.5614 18.2174 14.2031 18.0579C12.8678 17.4635 12.093 16.6178 11.7545 15.5761C11.4906 14.7637 11.505 13.8833 11.7025 13.0296C12.8253 14.1748 14.3826 14.8175 16.0127 14.7751C16.2837 14.7681 16.4997 14.5461 16.4997 14.2746V13.7739C16.4899 13.0362 16.9368 12.3767 17.6188 12.116C18.3009 11.8553 19.0728 12.0488 19.5519 12.6005Z" fill="white"/>
    </svg>
    